<ttFont>
    <TTGlyph name="A" xMin="-1" yMin="-15" xMax="447" yMax="660">
      <contour>
        <pt x="343" y="226" on="1"/>
        <pt x="307" y="232" on="0"/>
        <pt x="234" y="232" on="0"/>
        <pt x="170" y="232" on="0"/>
        <pt x="142" y="226" on="1"/>
        <pt x="116" y="128" on="0"/>
        <pt x="116" y="61" on="1"/>
        <pt x="116" y="34" on="0"/>
        <pt x="123" y="-1" on="1"/>
        <pt x="54" y="-1" on="0"/>
        <pt x="6" y="-15" on="1"/>
        <pt x="-1" y="-7" on="1"/>
        <pt x="221" y="621" on="1"/>
        <pt x="170" y="629" on="0"/>
        <pt x="128" y="648" on="1"/>
        <pt x="130" y="660" on="1"/>
        <pt x="193" y="651" on="0"/>
        <pt x="398" y="651" on="0"/>
        <pt x="441" y="659" on="1"/>
        <pt x="447" y="654" on="1"/>
        <pt x="433" y="595" on="0"/>
        <pt x="413" y="321" on="0"/>
        <pt x="413" y="58" on="0"/>
        <pt x="424" y="0" on="1"/>
        <pt x="362" y="-4" on="0"/>
        <pt x="322" y="-15" on="1"/>
        <pt x="316" y="-10" on="1"/>
        <pt x="332" y="64" on="0"/>
      </contour>
      <contour>
        <pt x="156" y="276" on="1"/>
        <pt x="182" y="269" on="0"/>
        <pt x="313" y="269" on="0"/>
        <pt x="346" y="277" on="1"/>
        <pt x="351" y="385" on="0"/>
        <pt x="351" y="542" on="0"/>
        <pt x="345" y="612" on="1"/>
        <pt x="333" y="615" on="0"/>
        <pt x="293" y="615" on="0"/>
        <pt x="278" y="612" on="1"/>
        <pt x="255" y="582" on="0"/>
        <pt x="230" y="503" on="1"/>
      </contour>
    </TTGlyph>
    <TTGlyph name="AE" xMin="-1" yMin="-15" xMax="663" yMax="663">
      <contour>
        <pt x="577" y="183" on="1"/>
        <pt x="577" y="194" on="0"/>
        <pt x="574" y="207" on="1"/>
        <pt x="579" y="212" on="1"/>
        <pt x="626" y="214" on="0"/>
        <pt x="656" y="223" on="1"/>
        <pt x="643" y="157" on="0"/>
        <pt x="526" y="13" on="0"/>
        <pt x="465" y="-15" on="1"/>
        <pt x="371" y="-15" on="0"/>
        <pt x="342" y="70" on="1"/>
        <pt x="322" y="129" on="0"/>
        <pt x="322" y="206" on="1"/>
        <pt x="322" y="228" on="0"/>
        <pt x="323" y="252" on="1"/>
        <pt x="326" y="323" on="1"/>
        <pt x="296" y="328" on="0"/>
        <pt x="207" y="328" on="0"/>
        <pt x="169" y="323" on="1"/>
        <pt x="142" y="226" on="1"/>
        <pt x="116" y="133" on="0"/>
        <pt x="116" y="61" on="1"/>
        <pt x="116" y="34" on="0"/>
        <pt x="123" y="-1" on="1"/>
        <pt x="54" y="-1" on="0"/>
        <pt x="6" y="-15" on="1"/>
        <pt x="-1" y="-7" on="1"/>
        <pt x="221" y="621" on="1"/>
        <pt x="170" y="629" on="0"/>
        <pt x="128" y="648" on="1"/>
        <pt x="130" y="660" on="1"/>
        <pt x="193" y="651" on="0"/>
        <pt x="574" y="651" on="0"/>
        <pt x="657" y="663" on="1"/>
        <pt x="663" y="652" on="1"/>
        <pt x="620" y="611" on="0"/>
        <pt x="616" y="497" on="1"/>
        <pt x="604" y="497" on="1"/>
        <pt x="589" y="545" on="0"/>
        <pt x="585" y="593" on="1"/>
        <pt x="539" y="614" on="0"/>
        <pt x="477" y="614" on="1"/>
        <pt x="448" y="614" on="0"/>
        <pt x="420" y="609" on="1"/>
        <pt x="405" y="521" on="0"/>
        <pt x="398" y="374" on="1"/>
        <pt x="423" y="368" on="0"/>
        <pt x="527" y="368" on="0"/>
        <pt x="578" y="385" on="1"/>
        <pt x="583" y="379" on="1"/>
        <pt x="572" y="349" on="0"/>
        <pt x="568" y="317" on="1"/>
        <pt x="498" y="327" on="0"/>
        <pt x="408" y="327" on="0"/>
        <pt x="395" y="324" on="1"/>
        <pt x="394" y="273" on="1"/>
        <pt x="394" y="141" on="0"/>
        <pt x="408" y="111" on="1"/>
        <pt x="429" y="66" on="0"/>
        <pt x="458" y="56" on="1"/>
        <pt x="478" y="50" on="0"/>
        <pt x="505" y="50" on="1"/>
        <pt x="534" y="68" on="0"/>
        <pt x="577" y="149" on="0"/>
      </contour>
      <contour>
        <pt x="333" y="477" on="1"/>
        <pt x="335" y="515" on="0"/>
        <pt x="335" y="590" on="0"/>
        <pt x="330" y="612" on="1"/>
        <pt x="318" y="615" on="0"/>
        <pt x="286" y="615" on="0"/>
        <pt x="271" y="612" on="1"/>
        <pt x="258" y="593" on="0"/>
        <pt x="204" y="436" on="0"/>
        <pt x="185" y="372" on="1"/>
        <pt x="213" y="365" on="0"/>
        <pt x="299" y="365" on="0"/>
        <pt x="328" y="372" on="1"/>
      </contour>
    </TTGlyph>
    <TTGlyph name="Aacute" xMin="-1" yMin="-15" xMax="500" yMax="867">
      <contour>
        <pt x="343" y="226" on="1"/>
        <pt x="307" y="232" on="0"/>
        <pt x="234" y="232" on="0"/>
        <pt x="170" y="232" on="0"/>
        <pt x="142" y="226" on="1"/>
        <pt x="116" y="128" on="0"/>
        <pt x="116" y="61" on="1"/>
        <pt x="116" y="34" on="0"/>
        <pt x="123" y="-1" on="1"/>
        <pt x="54" y="-1" on="0"/>
        <pt x="6" y="-15" on="1"/>
        <pt x="-1" y="-7" on="1"/>
        <pt x="221" y="621" on="1"/>
        <pt x="170" y="629" on="0"/>
        <pt x="128" y="648" on="1"/>
        <pt x="130" y="660" on="1"/>
        <pt x="193" y="651" on="0"/>
        <pt x="398" y="651" on="0"/>
        <pt x="441" y="659" on="1"/>
        <pt x="447" y="654" on="1"/>
        <pt x="433" y="595" on="0"/>
        <pt x="413" y="321" on="0"/>
        <pt x="413" y="58" on="0"/>
        <pt x="424" y="0" on="1"/>
        <pt x="362" y="-4" on="0"/>
        <pt x="322" y="-15" on="1"/>
        <pt x="316" y="-10" on="1"/>
        <pt x="332" y="64" on="0"/>
      </contour>
      <contour>
        <pt x="156" y="276" on="1"/>
        <pt x="182" y="269" on="0"/>
        <pt x="313" y="269" on="0"/>
        <pt x="346" y="277" on="1"/>
        <pt x="351" y="385" on="0"/>
        <pt x="351" y="542" on="0"/>
        <pt x="345" y="612" on="1"/>
        <pt x="333" y="615" on="0"/>
        <pt x="293" y="615" on="0"/>
        <pt x="278" y="612" on="1"/>
        <pt x="255" y="582" on="0"/>
        <pt x="230" y="503" on="1"/>
      </contour>
      <contour>
        <pt x="500" y="808" on="1"/>
        <pt x="302" y="733" on="1"/>
        <pt x="293" y="751" on="1"/>
        <pt x="334" y="771" on="0"/>
        <pt x="421" y="836" on="0"/>
        <pt x="443" y="867" on="1"/>
        <pt x="467" y="867" on="0"/>
        <pt x="482" y="862" on="1"/>
        <pt x="488" y="854" on="0"/>
        <pt x="500" y="817" on="0"/>
      </contour>
    </TTGlyph>
    <TTGlyph name="Acircumflex" xMin="-1" yMin="-15" xMax="465" yMax="885">
      <contour>
        <pt x="343" y="226" on="1"/>
        <pt x="307" y="232" on="0"/>
        <pt x="234" y="232" on="0"/>
        <pt x="170" y="232" on="0"/>
        <pt x="142" y="226" on="1"/>
        <pt x="116" y="128" on="0"/>
        <pt x="116" y="61" on="1"/>
        <pt x="116" y="34" on="0"/>
        <pt x="123" y="-1" on="1"/>
        <pt x="54" y="-1" on="0"/>
        <pt x="6" y="-15" on="1"/>
        <pt x="-1" y="-7" on="1"/>
        <pt x="221" y="621" on="1"/>
        <pt x="170" y="629" on="0"/>
        <pt x="128" y="648" on="1"/>
        <pt x="130" y="660" on="1"/>
        <pt x="193" y="651" on="0"/>
        <pt x="398" y="651" on="0"/>
        <pt x="441" y="659" on="1"/>
        <pt x="447" y="654" on="1"/>
        <pt x="433" y="595" on="0"/>
        <pt x="413" y="321" on="0"/>
        <pt x="413" y="58" on="0"/>
        <pt x="424" y="0" on="1"/>
        <pt x="362" y="-4" on="0"/>
        <pt x="322" y="-15" on="1"/>
        <pt x="316" y="-10" on="1"/>
        <pt x="332" y="64" on="0"/>
      </contour>
      <contour>
        <pt x="156" y="276" on="1"/>
        <pt x="182" y="269" on="0"/>
        <pt x="313" y="269" on="0"/>
        <pt x="346" y="277" on="1"/>
        <pt x="351" y="385" on="0"/>
        <pt x="351" y="542" on="0"/>
        <pt x="345" y="612" on="1"/>
        <pt x="333" y="615" on="0"/>
        <pt x="293" y="615" on="0"/>
        <pt x="278" y="612" on="1"/>
        <pt x="255" y="582" on="0"/>
        <pt x="230" y="503" on="1"/>
      </contour>
      <contour>
        <pt x="325" y="797" on="1"/>
        <pt x="202" y="718" on="1"/>
        <pt x="191" y="734" on="1"/>
        <pt x="287" y="806" on="0"/>
        <pt x="333" y="885" on="1"/>
        <pt x="355" y="885" on="1"/>
        <pt x="388" y="796" on="0"/>
        <pt x="465" y="732" on="1"/>
        <pt x="450" y="720" on="1"/>
      </contour>
    </TTGlyph>
    <TTGlyph name="Adieresis" xMin="-1" yMin="-15" xMax="465" yMax="858">
      <contour>
        <pt x="343" y="226" on="1"/>
        <pt x="307" y="232" on="0"/>
        <pt x="234" y="232" on="0"/>
        <pt x="170" y="232" on="0"/>
        <pt x="142" y="226" on="1"/>
        <pt x="116" y="128" on="0"/>
        <pt x="116" y="61" on="1"/>
        <pt x="116" y="34" on="0"/>
        <pt x="123" y="-1" on="1"/>
        <pt x="54" y="-1" on="0"/>
        <pt x="6" y="-15" on="1"/>
        <pt x="-1" y="-7" on="1"/>
        <pt x="221" y="621" on="1"/>
        <pt x="170" y="629" on="0"/>
        <pt x="128" y="648" on="1"/>
        <pt x="130" y="660" on="1"/>
        <pt x="193" y="651" on="0"/>
        <pt x="398" y="651" on="0"/>
        <pt x="441" y="659" on="1"/>
        <pt x="447" y="654" on="1"/>
        <pt x="433" y="595" on="0"/>
        <pt x="413" y="321" on="0"/>
        <pt x="413" y="58" on="0"/>
        <pt x="424" y="0" on="1"/>
        <pt x="362" y="-4" on="0"/>
        <pt x="322" y="-15" on="1"/>
        <pt x="316" y="-10" on="1"/>
        <pt x="332" y="64" on="0"/>
      </contour>
      <contour>
        <pt x="156" y="276" on="1"/>
        <pt x="182" y="269" on="0"/>
        <pt x="313" y="269" on="0"/>
        <pt x="346" y="277" on="1"/>
        <pt x="351" y="385" on="0"/>
        <pt x="351" y="542" on="0"/>
        <pt x="345" y="612" on="1"/>
        <pt x="333" y="615" on="0"/>
        <pt x="293" y="615" on="0"/>
        <pt x="278" y="612" on="1"/>
        <pt x="255" y="582" on="0"/>
        <pt x="230" y="503" on="1"/>
      </contour>
      <contour>
        <pt x="465" y="803" on="1"/>
        <pt x="456" y="788" on="0"/>
        <pt x="419" y="744" on="0"/>
        <pt x="405" y="735" on="1"/>
        <pt x="381" y="752" on="0"/>
        <pt x="357" y="803" on="1"/>
        <pt x="364" y="816" on="0"/>
        <pt x="402" y="850" on="0"/>
        <pt x="416" y="858" on="1"/>
        <pt x="441" y="842" on="0"/>
      </contour>
      <contour>
        <pt x="300" y="803" on="1"/>
        <pt x="291" y="788" on="0"/>
        <pt x="254" y="744" on="0"/>
        <pt x="240" y="735" on="1"/>
        <pt x="216" y="752" on="0"/>
        <pt x="192" y="803" on="1"/>
        <pt x="199" y="816" on="0"/>
        <pt x="237" y="850" on="0"/>
        <pt x="251" y="858" on="1"/>
        <pt x="276" y="842" on="0"/>
      </contour>
    </TTGlyph>
    <TTGlyph name="Agrave" xMin="-1" yMin="-15" xMax="447" yMax="867">
      <contour>
        <pt x="343" y="226" on="1"/>
        <pt x="307" y="232" on="0"/>
        <pt x="234" y="232" on="0"/>
        <pt x="170" y="232" on="0"/>
        <pt x="142" y="226" on="1"/>
        <pt x="116" y="128" on="0"/>
        <pt x="116" y="61" on="1"/>
        <pt x="116" y="34" on="0"/>
        <pt x="123" y="-1" on="1"/>
        <pt x="54" y="-1" on="0"/>
        <pt x="6" y="-15" on="1"/>
        <pt x="-1" y="-7" on="1"/>
        <pt x="221" y="621" on="1"/>
        <pt x="170" y="629" on="0"/>
        <pt x="128" y="648" on="1"/>
        <pt x="130" y="660" on="1"/>
        <pt x="193" y="651" on="0"/>
        <pt x="398" y="651" on="0"/>
        <pt x="441" y="659" on="1"/>
        <pt x="447" y="654" on="1"/>
        <pt x="433" y="595" on="0"/>
        <pt x="413" y="321" on="0"/>
        <pt x="413" y="58" on="0"/>
        <pt x="424" y="0" on="1"/>
        <pt x="362" y="-4" on="0"/>
        <pt x="322" y="-15" on="1"/>
        <pt x="316" y="-10" on="1"/>
        <pt x="332" y="64" on="0"/>
      </contour>
      <contour>
        <pt x="156" y="276" on="1"/>
        <pt x="182" y="269" on="0"/>
        <pt x="313" y="269" on="0"/>
        <pt x="346" y="277" on="1"/>
        <pt x="351" y="385" on="0"/>
        <pt x="351" y="542" on="0"/>
        <pt x="345" y="612" on="1"/>
        <pt x="333" y="615" on="0"/>
        <pt x="293" y="615" on="0"/>
        <pt x="278" y="612" on="1"/>
        <pt x="255" y="582" on="0"/>
        <pt x="230" y="503" on="1"/>
      </contour>
      <contour>
        <pt x="335" y="733" on="1"/>
        <pt x="137" y="808" on="1"/>
        <pt x="137" y="817" on="0"/>
        <pt x="149" y="854" on="0"/>
        <pt x="155" y="862" on="1"/>
        <pt x="170" y="867" on="0"/>
        <pt x="194" y="867" on="1"/>
        <pt x="216" y="836" on="0"/>
        <pt x="303" y="771" on="0"/>
        <pt x="344" y="751" on="1"/>
      </contour>
    </TTGlyph>
    <TTGlyph name="Aring" xMin="-1" yMin="-15" xMax="447" yMax="885">
      <contour>
        <pt x="378" y="823" on="0"/>
        <pt x="350" y="850" on="0"/>
        <pt x="308" y="850" on="0"/>
        <pt x="296" y="841" on="1"/>
        <pt x="279" y="821" on="0"/>
        <pt x="279" y="788" on="1"/>
        <pt x="279" y="739" on="0"/>
        <pt x="330" y="739" on="1"/>
        <pt x="350" y="739" on="0"/>
        <pt x="361" y="748" on="1"/>
        <pt x="378" y="768" on="0"/>
      </contour>
      <contour>
        <pt x="280" y="704" on="0"/>
        <pt x="229" y="737" on="0"/>
        <pt x="229" y="810" on="0"/>
        <pt x="296" y="871" on="0"/>
        <pt x="345" y="885" on="1"/>
        <pt x="428" y="885" on="0"/>
        <pt x="428" y="824" on="1"/>
        <pt x="428" y="780" on="0"/>
        <pt x="365" y="718" on="0"/>
        <pt x="318" y="704" on="1"/>
      </contour>
      <contour>
        <pt x="343" y="226" on="1"/>
        <pt x="307" y="232" on="0"/>
        <pt x="234" y="232" on="0"/>
        <pt x="170" y="232" on="0"/>
        <pt x="142" y="226" on="1"/>
        <pt x="116" y="128" on="0"/>
        <pt x="116" y="61" on="1"/>
        <pt x="116" y="34" on="0"/>
        <pt x="123" y="-1" on="1"/>
        <pt x="54" y="-1" on="0"/>
        <pt x="6" y="-15" on="1"/>
        <pt x="-1" y="-7" on="1"/>
        <pt x="221" y="621" on="1"/>
        <pt x="170" y="629" on="0"/>
        <pt x="128" y="648" on="1"/>
        <pt x="130" y="660" on="1"/>
        <pt x="193" y="651" on="0"/>
        <pt x="398" y="651" on="0"/>
        <pt x="441" y="659" on="1"/>
        <pt x="447" y="654" on="1"/>
        <pt x="433" y="595" on="0"/>
        <pt x="413" y="321" on="0"/>
        <pt x="413" y="58" on="0"/>
        <pt x="424" y="0" on="1"/>
        <pt x="362" y="-4" on="0"/>
        <pt x="322" y="-15" on="1"/>
        <pt x="316" y="-10" on="1"/>
        <pt x="332" y="64" on="0"/>
      </contour>
      <contour>
        <pt x="156" y="276" on="1"/>
        <pt x="182" y="269" on="0"/>
        <pt x="313" y="269" on="0"/>
        <pt x="346" y="277" on="1"/>
        <pt x="351" y="385" on="0"/>
        <pt x="351" y="542" on="0"/>
        <pt x="345" y="612" on="1"/>
        <pt x="333" y="615" on="0"/>
        <pt x="293" y="615" on="0"/>
        <pt x="278" y="612" on="1"/>
        <pt x="255" y="582" on="0"/>
        <pt x="230" y="503" on="1"/>
      </contour>
    </TTGlyph>
    <TTGlyph name="Atilde" xMin="-1" yMin="-15" xMax="484" yMax="845">
      <contour>
        <pt x="343" y="226" on="1"/>
        <pt x="307" y="232" on="0"/>
        <pt x="234" y="232" on="0"/>
        <pt x="170" y="232" on="0"/>
        <pt x="142" y="226" on="1"/>
        <pt x="116" y="128" on="0"/>
        <pt x="116" y="61" on="1"/>
        <pt x="116" y="34" on="0"/>
        <pt x="123" y="-1" on="1"/>
        <pt x="54" y="-1" on="0"/>
        <pt x="6" y="-15" on="1"/>
        <pt x="-1" y="-7" on="1"/>
        <pt x="221" y="621" on="1"/>
        <pt x="170" y="629" on="0"/>
        <pt x="128" y="648" on="1"/>
        <pt x="130" y="660" on="1"/>
        <pt x="193" y="651" on="0"/>
        <pt x="398" y="651" on="0"/>
        <pt x="441" y="659" on="1"/>
        <pt x="447" y="654" on="1"/>
        <pt x="433" y="595" on="0"/>
        <pt x="413" y="321" on="0"/>
        <pt x="413" y="58" on="0"/>
        <pt x="424" y="0" on="1"/>
        <pt x="362" y="-4" on="0"/>
        <pt x="322" y="-15" on="1"/>
        <pt x="316" y="-10" on="1"/>
        <pt x="332" y="64" on="0"/>
      </contour>
      <contour>
        <pt x="156" y="276" on="1"/>
        <pt x="182" y="269" on="0"/>
        <pt x="313" y="269" on="0"/>
        <pt x="346" y="277" on="1"/>
        <pt x="351" y="385" on="0"/>
        <pt x="351" y="542" on="0"/>
        <pt x="345" y="612" on="1"/>
        <pt x="333" y="615" on="0"/>
        <pt x="293" y="615" on="0"/>
        <pt x="278" y="612" on="1"/>
        <pt x="255" y="582" on="0"/>
        <pt x="230" y="503" on="1"/>
      </contour>
      <contour>
        <pt x="306" y="845" on="1"/>
        <pt x="357" y="812" on="0"/>
        <pt x="445" y="812" on="0"/>
        <pt x="468" y="836" on="1"/>
        <pt x="484" y="824" on="1"/>
        <pt x="446" y="771" on="0"/>
        <pt x="388" y="747" on="1"/>
        <pt x="370" y="747" on="0"/>
        <pt x="278" y="780" on="0"/>
        <pt x="260" y="780" on="1"/>
        <pt x="226" y="780" on="0"/>
        <pt x="204" y="756" on="1"/>
        <pt x="187" y="768" on="1"/>
        <pt x="225" y="820" on="0"/>
      </contour>
    </TTGlyph>
    <TTGlyph name="B" xMin="7" yMin="-15" xMax="460" yMax="662">
      <contour>
        <pt x="278" y="662" on="1"/>
        <pt x="344" y="662" on="0"/>
        <pt x="427" y="603" on="0"/>
        <pt x="427" y="544" on="1"/>
        <pt x="427" y="426" on="0"/>
        <pt x="299" y="373" on="1"/>
        <pt x="299" y="369" on="1"/>
        <pt x="374" y="369" on="0"/>
        <pt x="460" y="305" on="0"/>
        <pt x="460" y="237" on="1"/>
        <pt x="460" y="154" on="0"/>
        <pt x="319" y="9" on="0"/>
        <pt x="230" y="-15" on="1"/>
        <pt x="205" y="-7" on="1"/>
        <pt x="148" y="11" on="0"/>
        <pt x="92" y="11" on="0"/>
        <pt x="72" y="7" on="1"/>
        <pt x="66" y="20" on="1"/>
        <pt x="86" y="41" on="0"/>
        <pt x="93" y="99" on="1"/>
        <pt x="111" y="267" on="0"/>
        <pt x="111" y="566" on="0"/>
        <pt x="103" y="620" on="1"/>
        <pt x="45" y="625" on="0"/>
        <pt x="7" y="639" on="1"/>
        <pt x="8" y="651" on="1"/>
        <pt x="68" y="651" on="0"/>
        <pt x="248" y="662" on="0"/>
      </contour>
      <contour>
        <pt x="261" y="625" on="1"/>
        <pt x="228" y="625" on="0"/>
        <pt x="200" y="614" on="1"/>
        <pt x="173" y="443" on="0"/>
        <pt x="173" y="192" on="1"/>
        <pt x="173" y="126" on="0"/>
        <pt x="177" y="70" on="1"/>
        <pt x="220" y="52" on="0"/>
        <pt x="311" y="52" on="0"/>
        <pt x="350" y="85" on="1"/>
        <pt x="376" y="134" on="0"/>
        <pt x="376" y="277" on="0"/>
        <pt x="295" y="352" on="0"/>
        <pt x="214" y="352" on="1"/>
        <pt x="218" y="382" on="1"/>
        <pt x="280" y="386" on="0"/>
        <pt x="308" y="407" on="1"/>
        <pt x="343" y="446" on="0"/>
        <pt x="343" y="514" on="1"/>
        <pt x="343" y="625" on="0"/>
      </contour>
    </TTGlyph>
    <TTGlyph name="C" xMin="38" yMin="-15" xMax="432" yMax="666">
      <contour>
        <pt x="38" y="234" on="1"/>
        <pt x="38" y="515" on="0"/>
        <pt x="252" y="666" on="1"/>
        <pt x="297" y="651" on="0"/>
        <pt x="407" y="651" on="0"/>
        <pt x="426" y="656" on="1"/>
        <pt x="432" y="645" on="1"/>
        <pt x="375" y="591" on="0"/>
        <pt x="375" y="471" on="1"/>
        <pt x="363" y="471" on="1"/>
        <pt x="348" y="519" on="0"/>
        <pt x="344" y="567" on="1"/>
        <pt x="319" y="578" on="1"/>
        <pt x="271" y="599" on="0"/>
        <pt x="214" y="599" on="1"/>
        <pt x="171" y="533" on="0"/>
        <pt x="120" y="355" on="0"/>
        <pt x="120" y="169" on="0"/>
        <pt x="187" y="50" on="0"/>
        <pt x="273" y="50" on="1"/>
        <pt x="306" y="72" on="0"/>
        <pt x="345" y="159" on="0"/>
        <pt x="345" y="203" on="1"/>
        <pt x="345" y="214" on="0"/>
        <pt x="342" y="227" on="1"/>
        <pt x="347" y="232" on="1"/>
        <pt x="394" y="234" on="0"/>
        <pt x="424" y="243" on="1"/>
        <pt x="404" y="160" on="0"/>
        <pt x="303" y="18" on="0"/>
        <pt x="233" y="-15" on="1"/>
        <pt x="137" y="-15" on="0"/>
        <pt x="38" y="126" on="0"/>
      </contour>
    </TTGlyph>
    <TTGlyph name="Ccedilla" xMin="38" yMin="-215" xMax="432" yMax="666">
      <contour>
        <pt x="38" y="234" on="1"/>
        <pt x="38" y="515" on="0"/>
        <pt x="252" y="666" on="1"/>
        <pt x="297" y="651" on="0"/>
        <pt x="407" y="651" on="0"/>
        <pt x="426" y="656" on="1"/>
        <pt x="432" y="645" on="1"/>
        <pt x="375" y="591" on="0"/>
        <pt x="375" y="471" on="1"/>
        <pt x="363" y="471" on="1"/>
        <pt x="348" y="519" on="0"/>
        <pt x="344" y="567" on="1"/>
        <pt x="319" y="578" on="1"/>
        <pt x="271" y="599" on="0"/>
        <pt x="214" y="599" on="1"/>
        <pt x="171" y="533" on="0"/>
        <pt x="120" y="355" on="0"/>
        <pt x="120" y="169" on="0"/>
        <pt x="187" y="50" on="0"/>
        <pt x="273" y="50" on="1"/>
        <pt x="306" y="72" on="0"/>
        <pt x="345" y="159" on="0"/>
        <pt x="345" y="203" on="1"/>
        <pt x="345" y="214" on="0"/>
        <pt x="342" y="227" on="1"/>
        <pt x="347" y="232" on="1"/>
        <pt x="394" y="234" on="0"/>
        <pt x="424" y="243" on="1"/>
        <pt x="404" y="160" on="0"/>
        <pt x="303" y="18" on="0"/>
        <pt x="233" y="-15" on="1"/>
        <pt x="137" y="-15" on="0"/>
        <pt x="38" y="126" on="0"/>
      </contour>
      <contour>
        <pt x="308" y="-119" on="1"/>
        <pt x="308" y="-126" on="0"/>
        <pt x="307" y="-133" on="1"/>
        <pt x="267" y="-195" on="0"/>
        <pt x="206" y="-215" on="1"/>
        <pt x="162" y="-215" on="0"/>
        <pt x="122" y="-194" on="1"/>
        <pt x="136" y="-170" on="0"/>
        <pt x="142" y="-155" on="1"/>
        <pt x="146" y="-153" on="1"/>
        <pt x="175" y="-178" on="0"/>
        <pt x="211" y="-178" on="1"/>
        <pt x="229" y="-178" on="0"/>
        <pt x="237" y="-173" on="1"/>
        <pt x="250" y="-158" on="0"/>
        <pt x="250" y="-112" on="0"/>
        <pt x="209" y="-97" on="0"/>
        <pt x="173" y="-97" on="1"/>
        <pt x="167" y="-93" on="1"/>
        <pt x="228" y="14" on="1"/>
        <pt x="257" y="16" on="1"/>
        <pt x="223" y="-46" on="1"/>
        <pt x="226" y="-49" on="1"/>
        <pt x="267" y="-49" on="0"/>
        <pt x="308" y="-90" on="0"/>
      </contour>
    </TTGlyph>
    <TTGlyph name="D" xMin="7" yMin="-15" xMax="491" yMax="662">
      <contour>
        <pt x="278" y="662" on="1"/>
        <pt x="394" y="662" on="0"/>
        <pt x="491" y="519" on="0"/>
        <pt x="491" y="232" on="0"/>
        <pt x="365" y="21" on="0"/>
        <pt x="230" y="-15" on="1"/>
        <pt x="205" y="-7" on="1"/>
        <pt x="148" y="11" on="0"/>
        <pt x="92" y="11" on="0"/>
        <pt x="72" y="7" on="1"/>
        <pt x="66" y="20" on="1"/>
        <pt x="86" y="41" on="0"/>
        <pt x="93" y="99" on="1"/>
        <pt x="111" y="267" on="0"/>
        <pt x="111" y="566" on="0"/>
        <pt x="103" y="620" on="1"/>
        <pt x="45" y="625" on="0"/>
        <pt x="7" y="639" on="1"/>
        <pt x="8" y="651" on="1"/>
        <pt x="68" y="651" on="0"/>
        <pt x="248" y="662" on="0"/>
      </contour>
      <contour>
        <pt x="257" y="52" on="1"/>
        <pt x="319" y="52" on="0"/>
        <pt x="355" y="85" on="1"/>
        <pt x="382" y="132" on="0"/>
        <pt x="412" y="272" on="0"/>
        <pt x="412" y="334" on="1"/>
        <pt x="412" y="625" on="0"/>
        <pt x="265" y="625" on="1"/>
        <pt x="231" y="625" on="0"/>
        <pt x="200" y="614" on="1"/>
        <pt x="173" y="443" on="0"/>
        <pt x="173" y="192" on="1"/>
        <pt x="173" y="126" on="0"/>
        <pt x="177" y="70" on="1"/>
        <pt x="220" y="52" on="0"/>
      </contour>
    </TTGlyph>
    <TTGlyph name="E" xMin="42" yMin="-15" xMax="426" yMax="666">
      <contour>
        <pt x="371" y="560" on="1"/>
        <pt x="320" y="598" on="0"/>
        <pt x="216" y="598" on="0"/>
        <pt x="178" y="573" on="1"/>
        <pt x="167" y="554" on="0"/>
        <pt x="167" y="524" on="1"/>
        <pt x="167" y="451" on="0"/>
        <pt x="263" y="371" on="0"/>
        <pt x="343" y="364" on="1"/>
        <pt x="337" y="335" on="1"/>
        <pt x="242" y="335" on="0"/>
        <pt x="125" y="261" on="0"/>
        <pt x="125" y="180" on="1"/>
        <pt x="125" y="117" on="0"/>
        <pt x="191" y="46" on="0"/>
        <pt x="303" y="46" on="0"/>
        <pt x="337" y="67" on="1"/>
        <pt x="349" y="91" on="0"/>
        <pt x="349" y="144" on="0"/>
        <pt x="339" y="155" on="1"/>
        <pt x="340" y="162" on="1"/>
        <pt x="365" y="177" on="0"/>
        <pt x="390" y="204" on="1"/>
        <pt x="402" y="203" on="0"/>
        <pt x="417" y="185" on="0"/>
        <pt x="417" y="173" on="1"/>
        <pt x="417" y="104" on="0"/>
        <pt x="309" y="6" on="0"/>
        <pt x="231" y="-15" on="1"/>
        <pt x="149" y="-15" on="0"/>
        <pt x="42" y="83" on="0"/>
        <pt x="42" y="239" on="0"/>
        <pt x="157" y="341" on="0"/>
        <pt x="240" y="350" on="1"/>
        <pt x="240" y="354" on="1"/>
        <pt x="174" y="364" on="0"/>
        <pt x="82" y="446" on="0"/>
        <pt x="82" y="506" on="1"/>
        <pt x="153" y="626" on="0"/>
        <pt x="294" y="666" on="1"/>
        <pt x="373" y="666" on="0"/>
        <pt x="426" y="643" on="1"/>
        <pt x="399" y="610" on="0"/>
        <pt x="378" y="560" on="1"/>
      </contour>
    </TTGlyph>
    <TTGlyph name="Eacute" xMin="42" yMin="-15" xMax="461" yMax="867">
      <contour>
        <pt x="371" y="560" on="1"/>
        <pt x="320" y="598" on="0"/>
        <pt x="216" y="598" on="0"/>
        <pt x="178" y="573" on="1"/>
        <pt x="167" y="554" on="0"/>
        <pt x="167" y="524" on="1"/>
        <pt x="167" y="451" on="0"/>
        <pt x="263" y="371" on="0"/>
        <pt x="343" y="364" on="1"/>
        <pt x="337" y="335" on="1"/>
        <pt x="242" y="335" on="0"/>
        <pt x="125" y="261" on="0"/>
        <pt x="125" y="180" on="1"/>
        <pt x="125" y="117" on="0"/>
        <pt x="191" y="46" on="0"/>
        <pt x="303" y="46" on="0"/>
        <pt x="337" y="67" on="1"/>
        <pt x="349" y="91" on="0"/>
        <pt x="349" y="144" on="0"/>
        <pt x="339" y="155" on="1"/>
        <pt x="340" y="162" on="1"/>
        <pt x="365" y="177" on="0"/>
        <pt x="390" y="204" on="1"/>
        <pt x="402" y="203" on="0"/>
        <pt x="417" y="185" on="0"/>
        <pt x="417" y="173" on="1"/>
        <pt x="417" y="104" on="0"/>
        <pt x="309" y="6" on="0"/>
        <pt x="231" y="-15" on="1"/>
        <pt x="149" y="-15" on="0"/>
        <pt x="42" y="83" on="0"/>
        <pt x="42" y="239" on="0"/>
        <pt x="157" y="341" on="0"/>
        <pt x="240" y="350" on="1"/>
        <pt x="240" y="354" on="1"/>
        <pt x="174" y="364" on="0"/>
        <pt x="82" y="446" on="0"/>
        <pt x="82" y="506" on="1"/>
        <pt x="153" y="626" on="0"/>
        <pt x="294" y="666" on="1"/>
        <pt x="373" y="666" on="0"/>
        <pt x="426" y="643" on="1"/>
        <pt x="399" y="610" on="0"/>
        <pt x="378" y="560" on="1"/>
      </contour>
      <contour>
        <pt x="461" y="808" on="1"/>
        <pt x="263" y="733" on="1"/>
        <pt x="254" y="751" on="1"/>
        <pt x="295" y="771" on="0"/>
        <pt x="382" y="836" on="0"/>
        <pt x="404" y="867" on="1"/>
        <pt x="428" y="867" on="0"/>
        <pt x="443" y="862" on="1"/>
        <pt x="449" y="854" on="0"/>
        <pt x="461" y="817" on="0"/>
      </contour>
    </TTGlyph>
    <TTGlyph name="Ecircumflex" xMin="42" yMin="-15" xMax="441" yMax="885">
      <contour>
        <pt x="371" y="560" on="1"/>
        <pt x="320" y="598" on="0"/>
        <pt x="216" y="598" on="0"/>
        <pt x="178" y="573" on="1"/>
        <pt x="167" y="554" on="0"/>
        <pt x="167" y="524" on="1"/>
        <pt x="167" y="451" on="0"/>
        <pt x="263" y="371" on="0"/>
        <pt x="343" y="364" on="1"/>
        <pt x="337" y="335" on="1"/>
        <pt x="242" y="335" on="0"/>
        <pt x="125" y="261" on="0"/>
        <pt x="125" y="180" on="1"/>
        <pt x="125" y="117" on="0"/>
        <pt x="191" y="46" on="0"/>
        <pt x="303" y="46" on="0"/>
        <pt x="337" y="67" on="1"/>
        <pt x="349" y="91" on="0"/>
        <pt x="349" y="144" on="0"/>
        <pt x="339" y="155" on="1"/>
        <pt x="340" y="162" on="1"/>
        <pt x="365" y="177" on="0"/>
        <pt x="390" y="204" on="1"/>
        <pt x="402" y="203" on="0"/>
        <pt x="417" y="185" on="0"/>
        <pt x="417" y="173" on="1"/>
        <pt x="417" y="104" on="0"/>
        <pt x="309" y="6" on="0"/>
        <pt x="231" y="-15" on="1"/>
        <pt x="149" y="-15" on="0"/>
        <pt x="42" y="83" on="0"/>
        <pt x="42" y="239" on="0"/>
        <pt x="157" y="341" on="0"/>
        <pt x="240" y="350" on="1"/>
        <pt x="240" y="354" on="1"/>
        <pt x="174" y="364" on="0"/>
        <pt x="82" y="446" on="0"/>
        <pt x="82" y="506" on="1"/>
        <pt x="153" y="626" on="0"/>
        <pt x="294" y="666" on="1"/>
        <pt x="373" y="666" on="0"/>
        <pt x="426" y="643" on="1"/>
        <pt x="399" y="610" on="0"/>
        <pt x="378" y="560" on="1"/>
      </contour>
      <contour>
        <pt x="301" y="797" on="1"/>
        <pt x="178" y="718" on="1"/>
        <pt x="167" y="734" on="1"/>
        <pt x="263" y="806" on="0"/>
        <pt x="309" y="885" on="1"/>
        <pt x="331" y="885" on="1"/>
        <pt x="364" y="796" on="0"/>
        <pt x="441" y="732" on="1"/>
        <pt x="426" y="720" on="1"/>
      </contour>
    </TTGlyph>
    <TTGlyph name="Edieresis" xMin="42" yMin="-15" xMax="441" yMax="858">
      <contour>
        <pt x="371" y="560" on="1"/>
        <pt x="320" y="598" on="0"/>
        <pt x="216" y="598" on="0"/>
        <pt x="178" y="573" on="1"/>
        <pt x="167" y="554" on="0"/>
        <pt x="167" y="524" on="1"/>
        <pt x="167" y="451" on="0"/>
        <pt x="263" y="371" on="0"/>
        <pt x="343" y="364" on="1"/>
        <pt x="337" y="335" on="1"/>
        <pt x="242" y="335" on="0"/>
        <pt x="125" y="261" on="0"/>
        <pt x="125" y="180" on="1"/>
        <pt x="125" y="117" on="0"/>
        <pt x="191" y="46" on="0"/>
        <pt x="303" y="46" on="0"/>
        <pt x="337" y="67" on="1"/>
        <pt x="349" y="91" on="0"/>
        <pt x="349" y="144" on="0"/>
        <pt x="339" y="155" on="1"/>
        <pt x="340" y="162" on="1"/>
        <pt x="365" y="177" on="0"/>
        <pt x="390" y="204" on="1"/>
        <pt x="402" y="203" on="0"/>
        <pt x="417" y="185" on="0"/>
        <pt x="417" y="173" on="1"/>
        <pt x="417" y="104" on="0"/>
        <pt x="309" y="6" on="0"/>
        <pt x="231" y="-15" on="1"/>
        <pt x="149" y="-15" on="0"/>
        <pt x="42" y="83" on="0"/>
        <pt x="42" y="239" on="0"/>
        <pt x="157" y="341" on="0"/>
        <pt x="240" y="350" on="1"/>
        <pt x="240" y="354" on="1"/>
        <pt x="174" y="364" on="0"/>
        <pt x="82" y="446" on="0"/>
        <pt x="82" y="506" on="1"/>
        <pt x="153" y="626" on="0"/>
        <pt x="294" y="666" on="1"/>
        <pt x="373" y="666" on="0"/>
        <pt x="426" y="643" on="1"/>
        <pt x="399" y="610" on="0"/>
        <pt x="378" y="560" on="1"/>
      </contour>
      <contour>
        <pt x="441" y="803" on="1"/>
        <pt x="432" y="788" on="0"/>
        <pt x="395" y="744" on="0"/>
        <pt x="381" y="735" on="1"/>
        <pt x="357" y="752" on="0"/>
        <pt x="333" y="803" on="1"/>
        <pt x="340" y="816" on="0"/>
        <pt x="378" y="850" on="0"/>
        <pt x="392" y="858" on="1"/>
        <pt x="417" y="842" on="0"/>
      </contour>
      <contour>
        <pt x="276" y="803" on="1"/>
        <pt x="267" y="788" on="0"/>
        <pt x="230" y="744" on="0"/>
        <pt x="216" y="735" on="1"/>
        <pt x="192" y="752" on="0"/>
        <pt x="168" y="803" on="1"/>
        <pt x="175" y="816" on="0"/>
        <pt x="213" y="850" on="0"/>
        <pt x="227" y="858" on="1"/>
        <pt x="252" y="842" on="0"/>
      </contour>
    </TTGlyph>
    <TTGlyph name="Egrave" xMin="42" yMin="-15" xMax="426" yMax="867">
      <contour>
        <pt x="371" y="560" on="1"/>
        <pt x="320" y="598" on="0"/>
        <pt x="216" y="598" on="0"/>
        <pt x="178" y="573" on="1"/>
        <pt x="167" y="554" on="0"/>
        <pt x="167" y="524" on="1"/>
        <pt x="167" y="451" on="0"/>
        <pt x="263" y="371" on="0"/>
        <pt x="343" y="364" on="1"/>
        <pt x="337" y="335" on="1"/>
        <pt x="242" y="335" on="0"/>
        <pt x="125" y="261" on="0"/>
        <pt x="125" y="180" on="1"/>
        <pt x="125" y="117" on="0"/>
        <pt x="191" y="46" on="0"/>
        <pt x="303" y="46" on="0"/>
        <pt x="337" y="67" on="1"/>
        <pt x="349" y="91" on="0"/>
        <pt x="349" y="144" on="0"/>
        <pt x="339" y="155" on="1"/>
        <pt x="340" y="162" on="1"/>
        <pt x="365" y="177" on="0"/>
        <pt x="390" y="204" on="1"/>
        <pt x="402" y="203" on="0"/>
        <pt x="417" y="185" on="0"/>
        <pt x="417" y="173" on="1"/>
        <pt x="417" y="104" on="0"/>
        <pt x="309" y="6" on="0"/>
        <pt x="231" y="-15" on="1"/>
        <pt x="149" y="-15" on="0"/>
        <pt x="42" y="83" on="0"/>
        <pt x="42" y="239" on="0"/>
        <pt x="157" y="341" on="0"/>
        <pt x="240" y="350" on="1"/>
        <pt x="240" y="354" on="1"/>
        <pt x="174" y="364" on="0"/>
        <pt x="82" y="446" on="0"/>
        <pt x="82" y="506" on="1"/>
        <pt x="153" y="626" on="0"/>
        <pt x="294" y="666" on="1"/>
        <pt x="373" y="666" on="0"/>
        <pt x="426" y="643" on="1"/>
        <pt x="399" y="610" on="0"/>
        <pt x="378" y="560" on="1"/>
      </contour>
      <contour>
        <pt x="334" y="733" on="1"/>
        <pt x="136" y="808" on="1"/>
        <pt x="136" y="817" on="0"/>
        <pt x="148" y="854" on="0"/>
        <pt x="154" y="862" on="1"/>
        <pt x="169" y="867" on="0"/>
        <pt x="193" y="867" on="1"/>
        <pt x="215" y="836" on="0"/>
        <pt x="302" y="771" on="0"/>
        <pt x="343" y="751" on="1"/>
      </contour>
    </TTGlyph>
    <TTGlyph name="Eth" xMin="6" yMin="-15" xMax="491" yMax="662">
      <contour>
        <pt x="278" y="662" on="1"/>
        <pt x="394" y="662" on="0"/>
        <pt x="491" y="519" on="0"/>
        <pt x="491" y="232" on="0"/>
        <pt x="365" y="21" on="0"/>
        <pt x="230" y="-15" on="1"/>
        <pt x="205" y="-7" on="1"/>
        <pt x="148" y="11" on="0"/>
        <pt x="92" y="11" on="0"/>
        <pt x="72" y="7" on="1"/>
        <pt x="66" y="20" on="1"/>
        <pt x="86" y="41" on="0"/>
        <pt x="93" y="99" on="1"/>
        <pt x="103" y="195" on="0"/>
        <pt x="108" y="324" on="1"/>
        <pt x="52" y="321" on="0"/>
        <pt x="9" y="315" on="1"/>
        <pt x="6" y="319" on="1"/>
        <pt x="25" y="338" on="0"/>
        <pt x="34" y="351" on="1"/>
        <pt x="109" y="353" on="1"/>
        <pt x="111" y="427" on="0"/>
        <pt x="111" y="566" on="0"/>
        <pt x="103" y="620" on="1"/>
        <pt x="45" y="625" on="0"/>
        <pt x="7" y="639" on="1"/>
        <pt x="8" y="651" on="1"/>
        <pt x="68" y="651" on="0"/>
        <pt x="248" y="662" on="0"/>
      </contour>
      <contour>
        <pt x="257" y="52" on="1"/>
        <pt x="319" y="52" on="0"/>
        <pt x="355" y="85" on="1"/>
        <pt x="382" y="132" on="0"/>
        <pt x="412" y="272" on="0"/>
        <pt x="412" y="334" on="1"/>
        <pt x="412" y="625" on="0"/>
        <pt x="265" y="625" on="1"/>
        <pt x="231" y="625" on="0"/>
        <pt x="200" y="614" on="1"/>
        <pt x="186" y="527" on="0"/>
        <pt x="177" y="356" on="1"/>
        <pt x="218" y="358" on="1"/>
        <pt x="281" y="361" on="0"/>
        <pt x="302" y="363" on="1"/>
        <pt x="305" y="359" on="1"/>
        <pt x="295" y="344" on="0"/>
        <pt x="290" y="327" on="1"/>
        <pt x="176" y="325" on="1"/>
        <pt x="173" y="253" on="0"/>
        <pt x="173" y="126" on="0"/>
        <pt x="177" y="70" on="1"/>
        <pt x="220" y="52" on="0"/>
      </contour>
    </TTGlyph>
    <TTGlyph name="Euro" xMin="21" yMin="-15" xMax="374" yMax="538">
      <contour>
        <pt x="73" y="175" on="1"/>
        <pt x="73" y="189" on="0"/>
        <pt x="75" y="219" on="1"/>
        <pt x="24" y="214" on="1"/>
        <pt x="21" y="218" on="1"/>
        <pt x="40" y="237" on="0"/>
        <pt x="49" y="250" on="1"/>
        <pt x="78" y="251" on="1"/>
        <pt x="82" y="279" on="0"/>
        <pt x="85" y="292" on="1"/>
        <pt x="49" y="291" on="0"/>
        <pt x="24" y="287" on="1"/>
        <pt x="21" y="291" on="1"/>
        <pt x="40" y="310" on="0"/>
        <pt x="49" y="323" on="1"/>
        <pt x="93" y="325" on="1"/>
        <pt x="133" y="468" on="0"/>
        <pt x="234" y="538" on="1"/>
        <pt x="283" y="518" on="0"/>
        <pt x="355" y="518" on="0"/>
        <pt x="368" y="523" on="1"/>
        <pt x="374" y="506" on="1"/>
        <pt x="333" y="468" on="0"/>
        <pt x="333" y="365" on="1"/>
        <pt x="319" y="365" on="1"/>
        <pt x="307" y="413" on="0"/>
        <pt x="305" y="440" on="1"/>
        <pt x="278" y="452" on="1"/>
        <pt x="238" y="470" on="0"/>
        <pt x="198" y="477" on="1"/>
        <pt x="166" y="412" on="0"/>
        <pt x="152" y="328" on="1"/>
        <pt x="214" y="331" on="1"/>
        <pt x="278" y="334" on="0"/>
        <pt x="298" y="336" on="1"/>
        <pt x="301" y="332" on="1"/>
        <pt x="291" y="317" on="0"/>
        <pt x="286" y="300" on="1"/>
        <pt x="148" y="296" on="1"/>
        <pt x="146" y="283" on="0"/>
        <pt x="144" y="255" on="1"/>
        <pt x="214" y="258" on="1"/>
        <pt x="278" y="261" on="0"/>
        <pt x="298" y="263" on="1"/>
        <pt x="301" y="259" on="1"/>
        <pt x="291" y="244" on="0"/>
        <pt x="286" y="227" on="1"/>
        <pt x="144" y="223" on="1"/>
        <pt x="144" y="169" on="0"/>
        <pt x="179" y="78" on="0"/>
        <pt x="216" y="62" on="1"/>
        <pt x="292" y="122" on="0"/>
        <pt x="328" y="228" on="1"/>
        <pt x="351" y="218" on="1"/>
        <pt x="330" y="147" on="0"/>
        <pt x="246" y="23" on="0"/>
        <pt x="191" y="-15" on="1"/>
        <pt x="134" y="-2" on="0"/>
        <pt x="73" y="105" on="0"/>
      </contour>
    </TTGlyph>
    <TTGlyph name="F" xMin="7" yMin="-15" xMax="440" yMax="663">
      <contour>
        <pt x="175" y="374" on="1"/>
        <pt x="200" y="368" on="0"/>
        <pt x="304" y="368" on="0"/>
        <pt x="355" y="385" on="1"/>
        <pt x="360" y="379" on="1"/>
        <pt x="349" y="349" on="0"/>
        <pt x="345" y="317" on="1"/>
        <pt x="275" y="327" on="0"/>
        <pt x="186" y="327" on="0"/>
        <pt x="173" y="324" on="1"/>
        <pt x="170" y="254" on="0"/>
        <pt x="170" y="51" on="0"/>
        <pt x="181" y="0" on="1"/>
        <pt x="125" y="-3" on="0"/>
        <pt x="79" y="-15" on="1"/>
        <pt x="73" y="-10" on="1"/>
        <pt x="87" y="49" on="0"/>
        <pt x="108" y="331" on="0"/>
        <pt x="108" y="567" on="0"/>
        <pt x="100" y="621" on="1"/>
        <pt x="49" y="629" on="0"/>
        <pt x="7" y="648" on="1"/>
        <pt x="9" y="660" on="1"/>
        <pt x="72" y="651" on="0"/>
        <pt x="381" y="651" on="0"/>
        <pt x="434" y="663" on="1"/>
        <pt x="440" y="652" on="1"/>
        <pt x="397" y="611" on="0"/>
        <pt x="393" y="497" on="1"/>
        <pt x="381" y="497" on="1"/>
        <pt x="366" y="545" on="0"/>
        <pt x="362" y="593" on="1"/>
        <pt x="316" y="614" on="0"/>
        <pt x="254" y="614" on="1"/>
        <pt x="225" y="614" on="0"/>
        <pt x="197" y="609" on="1"/>
        <pt x="182" y="521" on="0"/>
      </contour>
    </TTGlyph>
    <TTGlyph name="G" xMin="38" yMin="-200" xMax="432" yMax="666">
      <contour>
        <pt x="321" y="61" on="1"/>
        <pt x="321" y="71" on="1"/>
        <pt x="304" y="50" on="0"/>
        <pt x="234" y="-6" on="0"/>
        <pt x="212" y="-15" on="1"/>
        <pt x="129" y="-5" on="0"/>
        <pt x="38" y="128" on="0"/>
        <pt x="38" y="220" on="1"/>
        <pt x="38" y="355" on="0"/>
        <pt x="148" y="596" on="0"/>
        <pt x="252" y="666" on="1"/>
        <pt x="297" y="651" on="0"/>
        <pt x="407" y="651" on="0"/>
        <pt x="426" y="656" on="1"/>
        <pt x="432" y="645" on="1"/>
        <pt x="375" y="591" on="0"/>
        <pt x="375" y="471" on="1"/>
        <pt x="363" y="471" on="1"/>
        <pt x="348" y="519" on="0"/>
        <pt x="344" y="567" on="1"/>
        <pt x="319" y="578" on="1"/>
        <pt x="271" y="599" on="0"/>
        <pt x="214" y="599" on="1"/>
        <pt x="171" y="533" on="0"/>
        <pt x="120" y="355" on="0"/>
        <pt x="120" y="274" on="1"/>
        <pt x="120" y="91" on="0"/>
        <pt x="237" y="59" on="1"/>
        <pt x="290" y="70" on="0"/>
        <pt x="322" y="105" on="1"/>
        <pt x="322" y="181" on="1"/>
        <pt x="322" y="220" on="0"/>
        <pt x="317" y="248" on="1"/>
        <pt x="272" y="261" on="0"/>
        <pt x="226" y="284" on="1"/>
        <pt x="228" y="295" on="1"/>
        <pt x="264" y="289" on="0"/>
        <pt x="295" y="289" on="1"/>
        <pt x="366" y="289" on="0"/>
        <pt x="409" y="321" on="1"/>
        <pt x="419" y="314" on="1"/>
        <pt x="407" y="288" on="0"/>
        <pt x="404" y="256" on="1"/>
        <pt x="387" y="113" on="0"/>
        <pt x="385" y="-49" on="1"/>
        <pt x="356" y="-102" on="0"/>
        <pt x="223" y="-200" on="0"/>
        <pt x="168" y="-200" on="1"/>
        <pt x="153" y="-200" on="0"/>
        <pt x="133" y="-184" on="0"/>
        <pt x="133" y="-170" on="1"/>
        <pt x="162" y="-148" on="0"/>
        <pt x="182" y="-119" on="1"/>
        <pt x="189" y="-118" on="1"/>
        <pt x="211" y="-135" on="0"/>
        <pt x="269" y="-135" on="0"/>
        <pt x="280" y="-129" on="1"/>
        <pt x="321" y="-74" on="0"/>
      </contour>
    </TTGlyph>
    <TTGlyph name="H" xMin="7" yMin="-15" xMax="533" yMax="664">
      <contour>
        <pt x="435" y="381" on="1"/>
        <pt x="436" y="457" on="1"/>
        <pt x="436" y="598" on="0"/>
        <pt x="425" y="649" on="1"/>
        <pt x="481" y="652" on="0"/>
        <pt x="527" y="664" on="1"/>
        <pt x="533" y="659" on="1"/>
        <pt x="517" y="587" on="0"/>
        <pt x="498" y="307" on="0"/>
        <pt x="498" y="51" on="0"/>
        <pt x="509" y="0" on="1"/>
        <pt x="453" y="-3" on="0"/>
        <pt x="407" y="-15" on="1"/>
        <pt x="401" y="-10" on="1"/>
        <pt x="426" y="105" on="0"/>
        <pt x="433" y="328" on="1"/>
        <pt x="373" y="335" on="0"/>
        <pt x="236" y="335" on="0"/>
        <pt x="176" y="328" on="1"/>
        <pt x="173" y="269" on="0"/>
        <pt x="173" y="51" on="0"/>
        <pt x="184" y="0" on="1"/>
        <pt x="128" y="-3" on="0"/>
        <pt x="82" y="-15" on="1"/>
        <pt x="76" y="-10" on="1"/>
        <pt x="90" y="49" on="0"/>
        <pt x="111" y="331" on="0"/>
        <pt x="111" y="566" on="0"/>
        <pt x="103" y="620" on="1"/>
        <pt x="45" y="625" on="0"/>
        <pt x="7" y="639" on="1"/>
        <pt x="8" y="651" on="1"/>
        <pt x="128" y="651" on="0"/>
        <pt x="202" y="664" on="1"/>
        <pt x="208" y="659" on="1"/>
        <pt x="189" y="573" on="0"/>
        <pt x="178" y="382" on="1"/>
        <pt x="239" y="372" on="0"/>
        <pt x="380" y="372" on="0"/>
      </contour>
    </TTGlyph>
    <TTGlyph name="I" xMin="7" yMin="-15" xMax="208" yMax="664">
      <contour>
        <pt x="192" y="587" on="0"/>
        <pt x="173" y="307" on="0"/>
        <pt x="173" y="51" on="0"/>
        <pt x="184" y="0" on="1"/>
        <pt x="128" y="-3" on="0"/>
        <pt x="82" y="-15" on="1"/>
        <pt x="76" y="-10" on="1"/>
        <pt x="90" y="49" on="0"/>
        <pt x="111" y="331" on="0"/>
        <pt x="111" y="566" on="0"/>
        <pt x="103" y="620" on="1"/>
        <pt x="45" y="625" on="0"/>
        <pt x="7" y="639" on="1"/>
        <pt x="8" y="651" on="1"/>
        <pt x="128" y="651" on="0"/>
        <pt x="202" y="664" on="1"/>
        <pt x="208" y="659" on="1"/>
      </contour>
    </TTGlyph>
    <TTGlyph name="IJ" xMin="7" yMin="-180" xMax="500" yMax="664">
      <contour>
        <pt x="192" y="587" on="0"/>
        <pt x="173" y="307" on="0"/>
        <pt x="173" y="51" on="0"/>
        <pt x="184" y="0" on="1"/>
        <pt x="128" y="-3" on="0"/>
        <pt x="82" y="-15" on="1"/>
        <pt x="76" y="-10" on="1"/>
        <pt x="90" y="49" on="0"/>
        <pt x="111" y="331" on="0"/>
        <pt x="111" y="566" on="0"/>
        <pt x="103" y="620" on="1"/>
        <pt x="45" y="625" on="0"/>
        <pt x="7" y="639" on="1"/>
        <pt x="8" y="651" on="1"/>
        <pt x="128" y="651" on="0"/>
        <pt x="202" y="664" on="1"/>
        <pt x="208" y="659" on="1"/>
      </contour>
      <contour>
        <pt x="392" y="154" on="1"/>
        <pt x="403" y="361" on="0"/>
        <pt x="403" y="566" on="0"/>
        <pt x="395" y="620" on="1"/>
        <pt x="337" y="625" on="0"/>
        <pt x="299" y="639" on="1"/>
        <pt x="300" y="651" on="1"/>
        <pt x="420" y="651" on="0"/>
        <pt x="494" y="664" on="1"/>
        <pt x="500" y="659" on="1"/>
        <pt x="484" y="587" on="0"/>
        <pt x="465" y="307" on="0"/>
        <pt x="465" y="88" on="0"/>
        <pt x="474" y="13" on="1"/>
        <pt x="449" y="-41" on="0"/>
        <pt x="332" y="-148" on="0"/>
        <pt x="271" y="-180" on="1"/>
        <pt x="260" y="-165" on="1"/>
        <pt x="333" y="-104" on="0"/>
        <pt x="386" y="41" on="0"/>
      </contour>
    </TTGlyph>
    <TTGlyph name="Iacute" xMin="7" yMin="-15" xMax="277" yMax="867">
      <contour>
        <pt x="192" y="587" on="0"/>
        <pt x="173" y="307" on="0"/>
        <pt x="173" y="51" on="0"/>
        <pt x="184" y="0" on="1"/>
        <pt x="128" y="-3" on="0"/>
        <pt x="82" y="-15" on="1"/>
        <pt x="76" y="-10" on="1"/>
        <pt x="90" y="49" on="0"/>
        <pt x="111" y="331" on="0"/>
        <pt x="111" y="566" on="0"/>
        <pt x="103" y="620" on="1"/>
        <pt x="45" y="625" on="0"/>
        <pt x="7" y="639" on="1"/>
        <pt x="8" y="651" on="1"/>
        <pt x="128" y="651" on="0"/>
        <pt x="202" y="664" on="1"/>
        <pt x="208" y="659" on="1"/>
      </contour>
      <contour>
        <pt x="277" y="808" on="1"/>
        <pt x="79" y="733" on="1"/>
        <pt x="70" y="751" on="1"/>
        <pt x="111" y="771" on="0"/>
        <pt x="198" y="836" on="0"/>
        <pt x="220" y="867" on="1"/>
        <pt x="244" y="867" on="0"/>
        <pt x="259" y="862" on="1"/>
        <pt x="265" y="854" on="0"/>
        <pt x="277" y="817" on="0"/>
      </contour>
    </TTGlyph>
    <TTGlyph name="Icircumflex" xMin="-7" yMin="-15" xMax="267" yMax="885">
      <contour>
        <pt x="192" y="587" on="0"/>
        <pt x="173" y="307" on="0"/>
        <pt x="173" y="51" on="0"/>
        <pt x="184" y="0" on="1"/>
        <pt x="128" y="-3" on="0"/>
        <pt x="82" y="-15" on="1"/>
        <pt x="76" y="-10" on="1"/>
        <pt x="90" y="49" on="0"/>
        <pt x="111" y="331" on="0"/>
        <pt x="111" y="566" on="0"/>
        <pt x="103" y="620" on="1"/>
        <pt x="45" y="625" on="0"/>
        <pt x="7" y="639" on="1"/>
        <pt x="8" y="651" on="1"/>
        <pt x="128" y="651" on="0"/>
        <pt x="202" y="664" on="1"/>
        <pt x="208" y="659" on="1"/>
      </contour>
      <contour>
        <pt x="127" y="797" on="1"/>
        <pt x="4" y="718" on="1"/>
        <pt x="-7" y="734" on="1"/>
        <pt x="89" y="806" on="0"/>
        <pt x="135" y="885" on="1"/>
        <pt x="157" y="885" on="1"/>
        <pt x="190" y="796" on="0"/>
        <pt x="267" y="732" on="1"/>
        <pt x="252" y="720" on="1"/>
      </contour>
    </TTGlyph>
    <TTGlyph name="Idieresis" xMin="1" yMin="-15" xMax="274" yMax="858">
      <contour>
        <pt x="274" y="803" on="1"/>
        <pt x="265" y="788" on="0"/>
        <pt x="228" y="744" on="0"/>
        <pt x="214" y="735" on="1"/>
        <pt x="190" y="752" on="0"/>
        <pt x="166" y="803" on="1"/>
        <pt x="173" y="816" on="0"/>
        <pt x="211" y="850" on="0"/>
        <pt x="225" y="858" on="1"/>
        <pt x="250" y="842" on="0"/>
      </contour>
      <contour>
        <pt x="109" y="803" on="1"/>
        <pt x="100" y="788" on="0"/>
        <pt x="63" y="744" on="0"/>
        <pt x="49" y="735" on="1"/>
        <pt x="25" y="752" on="0"/>
        <pt x="1" y="803" on="1"/>
        <pt x="8" y="816" on="0"/>
        <pt x="46" y="850" on="0"/>
        <pt x="60" y="858" on="1"/>
        <pt x="85" y="842" on="0"/>
      </contour>
      <contour>
        <pt x="192" y="587" on="0"/>
        <pt x="173" y="307" on="0"/>
        <pt x="173" y="51" on="0"/>
        <pt x="184" y="0" on="1"/>
        <pt x="128" y="-3" on="0"/>
        <pt x="82" y="-15" on="1"/>
        <pt x="76" y="-10" on="1"/>
        <pt x="90" y="49" on="0"/>
        <pt x="111" y="331" on="0"/>
        <pt x="111" y="566" on="0"/>
        <pt x="103" y="620" on="1"/>
        <pt x="45" y="625" on="0"/>
        <pt x="7" y="639" on="1"/>
        <pt x="8" y="651" on="1"/>
        <pt x="128" y="651" on="0"/>
        <pt x="202" y="664" on="1"/>
        <pt x="208" y="659" on="1"/>
      </contour>
    </TTGlyph>
    <TTGlyph name="Igrave" xMin="7" yMin="-15" xMax="215" yMax="867">
      <contour>
        <pt x="192" y="587" on="0"/>
        <pt x="173" y="307" on="0"/>
        <pt x="173" y="51" on="0"/>
        <pt x="184" y="0" on="1"/>
        <pt x="128" y="-3" on="0"/>
        <pt x="82" y="-15" on="1"/>
        <pt x="76" y="-10" on="1"/>
        <pt x="90" y="49" on="0"/>
        <pt x="111" y="331" on="0"/>
        <pt x="111" y="566" on="0"/>
        <pt x="103" y="620" on="1"/>
        <pt x="45" y="625" on="0"/>
        <pt x="7" y="639" on="1"/>
        <pt x="8" y="651" on="1"/>
        <pt x="128" y="651" on="0"/>
        <pt x="202" y="664" on="1"/>
        <pt x="208" y="659" on="1"/>
      </contour>
      <contour>
        <pt x="206" y="733" on="1"/>
        <pt x="8" y="808" on="1"/>
        <pt x="8" y="817" on="0"/>
        <pt x="20" y="854" on="0"/>
        <pt x="26" y="862" on="1"/>
        <pt x="41" y="867" on="0"/>
        <pt x="65" y="867" on="1"/>
        <pt x="87" y="836" on="0"/>
        <pt x="174" y="771" on="0"/>
        <pt x="215" y="751" on="1"/>
      </contour>
    </TTGlyph>
    <TTGlyph name="Itilde" xMin="-4" yMin="-15" xMax="293" yMax="845">
      <contour>
        <pt x="192" y="587" on="0"/>
        <pt x="173" y="307" on="0"/>
        <pt x="173" y="51" on="0"/>
        <pt x="184" y="0" on="1"/>
        <pt x="128" y="-3" on="0"/>
        <pt x="82" y="-15" on="1"/>
        <pt x="76" y="-10" on="1"/>
        <pt x="90" y="49" on="0"/>
        <pt x="111" y="331" on="0"/>
        <pt x="111" y="566" on="0"/>
        <pt x="103" y="620" on="1"/>
        <pt x="45" y="625" on="0"/>
        <pt x="7" y="639" on="1"/>
        <pt x="8" y="651" on="1"/>
        <pt x="128" y="651" on="0"/>
        <pt x="202" y="664" on="1"/>
        <pt x="208" y="659" on="1"/>
      </contour>
      <contour>
        <pt x="115" y="845" on="1"/>
        <pt x="166" y="812" on="0"/>
        <pt x="254" y="812" on="0"/>
        <pt x="277" y="836" on="1"/>
        <pt x="293" y="824" on="1"/>
        <pt x="255" y="771" on="0"/>
        <pt x="197" y="747" on="1"/>
        <pt x="180" y="747" on="0"/>
        <pt x="86" y="780" on="0"/>
        <pt x="69" y="780" on="1"/>
        <pt x="36" y="780" on="0"/>
        <pt x="13" y="756" on="1"/>
        <pt x="-4" y="768" on="1"/>
        <pt x="34" y="820" on="0"/>
      </contour>
    </TTGlyph>
    <TTGlyph name="J" xMin="-32" yMin="-180" xMax="208" yMax="664">
      <contour>
        <pt x="100" y="154" on="1"/>
        <pt x="111" y="361" on="0"/>
        <pt x="111" y="566" on="0"/>
        <pt x="103" y="620" on="1"/>
        <pt x="45" y="625" on="0"/>
        <pt x="7" y="639" on="1"/>
        <pt x="8" y="651" on="1"/>
        <pt x="128" y="651" on="0"/>
        <pt x="202" y="664" on="1"/>
        <pt x="208" y="659" on="1"/>
        <pt x="192" y="587" on="0"/>
        <pt x="173" y="307" on="0"/>
        <pt x="173" y="88" on="0"/>
        <pt x="182" y="13" on="1"/>
        <pt x="157" y="-41" on="0"/>
        <pt x="40" y="-148" on="0"/>
        <pt x="-21" y="-180" on="1"/>
        <pt x="-32" y="-165" on="1"/>
        <pt x="41" y="-104" on="0"/>
        <pt x="94" y="41" on="0"/>
      </contour>
    </TTGlyph>
    <TTGlyph name="Jcircumflex" xMin="-32" yMin="-180" xMax="267" yMax="885">
      <contour>
        <pt x="100" y="154" on="1"/>
        <pt x="111" y="361" on="0"/>
        <pt x="111" y="566" on="0"/>
        <pt x="103" y="620" on="1"/>
        <pt x="45" y="625" on="0"/>
        <pt x="7" y="639" on="1"/>
        <pt x="8" y="651" on="1"/>
        <pt x="128" y="651" on="0"/>
        <pt x="202" y="664" on="1"/>
        <pt x="208" y="659" on="1"/>
        <pt x="192" y="587" on="0"/>
        <pt x="173" y="307" on="0"/>
        <pt x="173" y="88" on="0"/>
        <pt x="182" y="13" on="1"/>
        <pt x="157" y="-41" on="0"/>
        <pt x="40" y="-148" on="0"/>
        <pt x="-21" y="-180" on="1"/>
        <pt x="-32" y="-165" on="1"/>
        <pt x="41" y="-104" on="0"/>
        <pt x="94" y="41" on="0"/>
      </contour>
      <contour>
        <pt x="127" y="797" on="1"/>
        <pt x="4" y="718" on="1"/>
        <pt x="-7" y="734" on="1"/>
        <pt x="89" y="806" on="0"/>
        <pt x="135" y="885" on="1"/>
        <pt x="157" y="885" on="1"/>
        <pt x="190" y="796" on="0"/>
        <pt x="267" y="732" on="1"/>
        <pt x="252" y="720" on="1"/>
      </contour>
    </TTGlyph>
    <TTGlyph name="K" xMin="7" yMin="-15" xMax="519" yMax="664">
      <contour>
        <pt x="173" y="192" on="1"/>
        <pt x="173" y="51" on="0"/>
        <pt x="184" y="0" on="1"/>
        <pt x="128" y="-3" on="0"/>
        <pt x="82" y="-15" on="1"/>
        <pt x="76" y="-10" on="1"/>
        <pt x="90" y="49" on="0"/>
        <pt x="111" y="331" on="0"/>
        <pt x="111" y="566" on="0"/>
        <pt x="103" y="620" on="1"/>
        <pt x="45" y="625" on="0"/>
        <pt x="7" y="639" on="1"/>
        <pt x="8" y="651" on="1"/>
        <pt x="128" y="651" on="0"/>
        <pt x="202" y="664" on="1"/>
        <pt x="208" y="659" on="1"/>
        <pt x="183" y="549" on="0"/>
        <pt x="175" y="306" on="1"/>
        <pt x="282" y="447" on="1"/>
        <pt x="363" y="554" on="0"/>
        <pt x="363" y="616" on="1"/>
        <pt x="363" y="622" on="0"/>
        <pt x="361" y="646" on="1"/>
        <pt x="365" y="651" on="1"/>
        <pt x="431" y="651" on="0"/>
        <pt x="473" y="660" on="1"/>
        <pt x="432" y="540" on="0"/>
        <pt x="294" y="395" on="1"/>
        <pt x="329" y="324" on="0"/>
        <pt x="467" y="70" on="0"/>
        <pt x="519" y="0" on="1"/>
        <pt x="452" y="-4" on="0"/>
        <pt x="410" y="-14" on="1"/>
        <pt x="403" y="-11" on="1"/>
        <pt x="393" y="38" on="0"/>
        <pt x="303" y="235" on="0"/>
        <pt x="244" y="340" on="1"/>
        <pt x="173" y="257" on="1"/>
      </contour>
    </TTGlyph>
    <TTGlyph name="L" xMin="7" yMin="-15" xMax="403" yMax="664">
      <contour>
        <pt x="192" y="587" on="0"/>
        <pt x="173" y="307" on="0"/>
        <pt x="173" y="104" on="0"/>
        <pt x="178" y="47" on="1"/>
        <pt x="203" y="41" on="0"/>
        <pt x="347" y="41" on="0"/>
        <pt x="398" y="58" on="1"/>
        <pt x="403" y="52" on="1"/>
        <pt x="392" y="22" on="0"/>
        <pt x="388" y="-10" on="1"/>
        <pt x="318" y="0" on="0"/>
        <pt x="150" y="0" on="0"/>
        <pt x="82" y="-15" on="1"/>
        <pt x="76" y="-10" on="1"/>
        <pt x="90" y="49" on="0"/>
        <pt x="111" y="331" on="0"/>
        <pt x="111" y="566" on="0"/>
        <pt x="103" y="620" on="1"/>
        <pt x="45" y="625" on="0"/>
        <pt x="7" y="639" on="1"/>
        <pt x="8" y="651" on="1"/>
        <pt x="128" y="651" on="0"/>
        <pt x="202" y="664" on="1"/>
        <pt x="208" y="659" on="1"/>
      </contour>
    </TTGlyph>
    <TTGlyph name="Ldotaccent" xMin="7" yMin="-15" xMax="403" yMax="664">
      <contour>
        <pt x="192" y="587" on="0"/>
        <pt x="173" y="307" on="0"/>
        <pt x="173" y="104" on="0"/>
        <pt x="178" y="47" on="1"/>
        <pt x="203" y="41" on="0"/>
        <pt x="347" y="41" on="0"/>
        <pt x="398" y="58" on="1"/>
        <pt x="403" y="52" on="1"/>
        <pt x="392" y="22" on="0"/>
        <pt x="388" y="-10" on="1"/>
        <pt x="318" y="0" on="0"/>
        <pt x="150" y="0" on="0"/>
        <pt x="82" y="-15" on="1"/>
        <pt x="76" y="-10" on="1"/>
        <pt x="90" y="49" on="0"/>
        <pt x="111" y="331" on="0"/>
        <pt x="111" y="566" on="0"/>
        <pt x="103" y="620" on="1"/>
        <pt x="45" y="625" on="0"/>
        <pt x="7" y="639" on="1"/>
        <pt x="8" y="651" on="1"/>
        <pt x="128" y="651" on="0"/>
        <pt x="202" y="664" on="1"/>
        <pt x="208" y="659" on="1"/>
      </contour>
      <contour>
        <pt x="373" y="353" on="1"/>
        <pt x="364" y="338" on="0"/>
        <pt x="327" y="294" on="0"/>
        <pt x="313" y="285" on="1"/>
        <pt x="289" y="302" on="0"/>
        <pt x="265" y="353" on="1"/>
        <pt x="272" y="366" on="0"/>
        <pt x="310" y="400" on="0"/>
        <pt x="324" y="408" on="1"/>
        <pt x="349" y="392" on="0"/>
      </contour>
    </TTGlyph>
    <TTGlyph name="Lslash" xMin="6" yMin="-15" xMax="403" yMax="664">
      <contour>
        <pt x="176" y="341" on="1"/>
        <pt x="173" y="260" on="0"/>
        <pt x="173" y="104" on="0"/>
        <pt x="178" y="47" on="1"/>
        <pt x="203" y="41" on="0"/>
        <pt x="347" y="41" on="0"/>
        <pt x="398" y="58" on="1"/>
        <pt x="403" y="52" on="1"/>
        <pt x="392" y="22" on="0"/>
        <pt x="388" y="-10" on="1"/>
        <pt x="318" y="0" on="0"/>
        <pt x="150" y="0" on="0"/>
        <pt x="82" y="-15" on="1"/>
        <pt x="76" y="-10" on="1"/>
        <pt x="99" y="89" on="0"/>
        <pt x="107" y="306" on="1"/>
        <pt x="39" y="272" on="0"/>
        <pt x="10" y="251" on="1"/>
        <pt x="6" y="254" on="1"/>
        <pt x="12" y="275" on="0"/>
        <pt x="13" y="293" on="1"/>
        <pt x="108" y="341" on="1"/>
        <pt x="111" y="401" on="0"/>
        <pt x="111" y="566" on="0"/>
        <pt x="103" y="620" on="1"/>
        <pt x="45" y="625" on="0"/>
        <pt x="7" y="639" on="1"/>
        <pt x="8" y="651" on="1"/>
        <pt x="128" y="651" on="0"/>
        <pt x="202" y="664" on="1"/>
        <pt x="208" y="659" on="1"/>
        <pt x="187" y="561" on="0"/>
        <pt x="178" y="377" on="1"/>
        <pt x="238" y="408" on="1"/>
        <pt x="290" y="435" on="0"/>
        <pt x="313" y="449" on="1"/>
        <pt x="317" y="448" on="1"/>
        <pt x="317" y="429" on="0"/>
        <pt x="322" y="414" on="1"/>
      </contour>
    </TTGlyph>
    <TTGlyph name="M" xMin="21" yMin="-15" xMax="615" yMax="665">
      <contour>
        <pt x="253" y="614" on="1"/>
        <pt x="253" y="542" on="0"/>
        <pt x="327" y="307" on="1"/>
        <pt x="358" y="209" on="1"/>
        <pt x="365" y="211" on="1"/>
        <pt x="365" y="236" on="0"/>
        <pt x="382" y="292" on="1"/>
        <pt x="477" y="596" on="1"/>
        <pt x="483" y="615" on="0"/>
        <pt x="483" y="641" on="0"/>
        <pt x="480" y="647" on="1"/>
        <pt x="483" y="654" on="1"/>
        <pt x="502" y="651" on="0"/>
        <pt x="561" y="651" on="0"/>
        <pt x="608" y="665" on="1"/>
        <pt x="615" y="660" on="1"/>
        <pt x="593" y="544" on="0"/>
        <pt x="593" y="88" on="0"/>
        <pt x="614" y="0" on="1"/>
        <pt x="564" y="-3" on="0"/>
        <pt x="512" y="-15" on="1"/>
        <pt x="505" y="-10" on="1"/>
        <pt x="528" y="113" on="0"/>
        <pt x="528" y="450" on="0"/>
        <pt x="517" y="543" on="1"/>
        <pt x="513" y="543" on="1"/>
        <pt x="417" y="275" on="0"/>
        <pt x="396" y="182" on="1"/>
        <pt x="389" y="151" on="0"/>
        <pt x="387" y="122" on="1"/>
        <pt x="349" y="110" on="0"/>
        <pt x="300" y="79" on="1"/>
        <pt x="288" y="87" on="1"/>
        <pt x="290" y="109" on="0"/>
        <pt x="290" y="120" on="1"/>
        <pt x="290" y="217" on="0"/>
        <pt x="190" y="516" on="1"/>
        <pt x="186" y="515" on="1"/>
        <pt x="132" y="188" on="0"/>
        <pt x="130" y="0" on="1"/>
        <pt x="81" y="-1" on="0"/>
        <pt x="27" y="-14" on="1"/>
        <pt x="21" y="-9" on="1"/>
        <pt x="54" y="90" on="0"/>
        <pt x="145" y="519" on="0"/>
        <pt x="153" y="620" on="1"/>
        <pt x="95" y="625" on="0"/>
        <pt x="57" y="639" on="1"/>
        <pt x="58" y="651" on="1"/>
        <pt x="179" y="651" on="0"/>
        <pt x="253" y="664" on="1"/>
        <pt x="259" y="659" on="1"/>
        <pt x="253" y="638" on="0"/>
      </contour>
    </TTGlyph>
    <TTGlyph name="N" xMin="7" yMin="-15" xMax="531" yMax="666">
      <contour>
        <pt x="517" y="600" on="0"/>
        <pt x="495" y="333" on="0"/>
        <pt x="495" y="88" on="0"/>
        <pt x="510" y="0" on="1"/>
        <pt x="466" y="-4" on="0"/>
        <pt x="435" y="-13" on="1"/>
        <pt x="428" y="-10" on="1"/>
        <pt x="395" y="94" on="0"/>
        <pt x="219" y="420" on="1"/>
        <pt x="192" y="471" on="0"/>
        <pt x="163" y="515" on="1"/>
        <pt x="159" y="513" on="1"/>
        <pt x="159" y="334" on="0"/>
        <pt x="177" y="36" on="0"/>
        <pt x="185" y="0" on="1"/>
        <pt x="133" y="-3" on="0"/>
        <pt x="86" y="-15" on="1"/>
        <pt x="80" y="-10" on="1"/>
        <pt x="94" y="49" on="0"/>
        <pt x="114" y="328" on="0"/>
        <pt x="114" y="556" on="0"/>
        <pt x="103" y="620" on="1"/>
        <pt x="45" y="625" on="0"/>
        <pt x="7" y="639" on="1"/>
        <pt x="8" y="651" on="1"/>
        <pt x="125" y="651" on="0"/>
        <pt x="199" y="664" on="1"/>
        <pt x="224" y="556" on="0"/>
        <pt x="405" y="229" on="1"/>
        <pt x="449" y="149" on="1"/>
        <pt x="452" y="150" on="1"/>
        <pt x="452" y="328" on="0"/>
        <pt x="434" y="614" on="0"/>
        <pt x="426" y="651" on="1"/>
        <pt x="480" y="654" on="0"/>
        <pt x="525" y="666" on="1"/>
        <pt x="531" y="661" on="1"/>
      </contour>
    </TTGlyph>
    <TTGlyph name="Nacute" xMin="7" yMin="-15" xMax="531" yMax="867">
      <contour>
        <pt x="517" y="600" on="0"/>
        <pt x="495" y="333" on="0"/>
        <pt x="495" y="88" on="0"/>
        <pt x="510" y="0" on="1"/>
        <pt x="466" y="-4" on="0"/>
        <pt x="435" y="-13" on="1"/>
        <pt x="428" y="-10" on="1"/>
        <pt x="395" y="94" on="0"/>
        <pt x="219" y="420" on="1"/>
        <pt x="192" y="471" on="0"/>
        <pt x="163" y="515" on="1"/>
        <pt x="159" y="513" on="1"/>
        <pt x="159" y="334" on="0"/>
        <pt x="177" y="36" on="0"/>
        <pt x="185" y="0" on="1"/>
        <pt x="133" y="-3" on="0"/>
        <pt x="86" y="-15" on="1"/>
        <pt x="80" y="-10" on="1"/>
        <pt x="94" y="49" on="0"/>
        <pt x="114" y="328" on="0"/>
        <pt x="114" y="556" on="0"/>
        <pt x="103" y="620" on="1"/>
        <pt x="45" y="625" on="0"/>
        <pt x="7" y="639" on="1"/>
        <pt x="8" y="651" on="1"/>
        <pt x="125" y="651" on="0"/>
        <pt x="199" y="664" on="1"/>
        <pt x="224" y="556" on="0"/>
        <pt x="405" y="229" on="1"/>
        <pt x="449" y="149" on="1"/>
        <pt x="452" y="150" on="1"/>
        <pt x="452" y="328" on="0"/>
        <pt x="434" y="614" on="0"/>
        <pt x="426" y="651" on="1"/>
        <pt x="480" y="654" on="0"/>
        <pt x="525" y="666" on="1"/>
        <pt x="531" y="661" on="1"/>
      </contour>
      <contour>
        <pt x="503" y="808" on="1"/>
        <pt x="305" y="733" on="1"/>
        <pt x="296" y="751" on="1"/>
        <pt x="337" y="771" on="0"/>
        <pt x="424" y="836" on="0"/>
        <pt x="446" y="867" on="1"/>
        <pt x="470" y="867" on="0"/>
        <pt x="485" y="862" on="1"/>
        <pt x="491" y="854" on="0"/>
        <pt x="503" y="817" on="0"/>
      </contour>
    </TTGlyph>
    <TTGlyph name="Ntilde" xMin="7" yMin="-15" xMax="531" yMax="845">
      <contour>
        <pt x="517" y="600" on="0"/>
        <pt x="495" y="333" on="0"/>
        <pt x="495" y="88" on="0"/>
        <pt x="510" y="0" on="1"/>
        <pt x="466" y="-4" on="0"/>
        <pt x="435" y="-13" on="1"/>
        <pt x="428" y="-10" on="1"/>
        <pt x="395" y="94" on="0"/>
        <pt x="219" y="420" on="1"/>
        <pt x="192" y="471" on="0"/>
        <pt x="163" y="515" on="1"/>
        <pt x="159" y="513" on="1"/>
        <pt x="159" y="334" on="0"/>
        <pt x="177" y="36" on="0"/>
        <pt x="185" y="0" on="1"/>
        <pt x="133" y="-3" on="0"/>
        <pt x="86" y="-15" on="1"/>
        <pt x="80" y="-10" on="1"/>
        <pt x="94" y="49" on="0"/>
        <pt x="114" y="328" on="0"/>
        <pt x="114" y="556" on="0"/>
        <pt x="103" y="620" on="1"/>
        <pt x="45" y="625" on="0"/>
        <pt x="7" y="639" on="1"/>
        <pt x="8" y="651" on="1"/>
        <pt x="125" y="651" on="0"/>
        <pt x="199" y="664" on="1"/>
        <pt x="224" y="556" on="0"/>
        <pt x="405" y="229" on="1"/>
        <pt x="449" y="149" on="1"/>
        <pt x="452" y="150" on="1"/>
        <pt x="452" y="328" on="0"/>
        <pt x="434" y="614" on="0"/>
        <pt x="426" y="651" on="1"/>
        <pt x="480" y="654" on="0"/>
        <pt x="525" y="666" on="1"/>
        <pt x="531" y="661" on="1"/>
      </contour>
      <contour>
        <pt x="315" y="845" on="1"/>
        <pt x="366" y="812" on="0"/>
        <pt x="454" y="812" on="0"/>
        <pt x="477" y="836" on="1"/>
        <pt x="493" y="824" on="1"/>
        <pt x="455" y="771" on="0"/>
        <pt x="397" y="747" on="1"/>
        <pt x="380" y="747" on="0"/>
        <pt x="286" y="780" on="0"/>
        <pt x="269" y="780" on="1"/>
        <pt x="236" y="780" on="0"/>
        <pt x="213" y="756" on="1"/>
        <pt x="196" y="768" on="1"/>
        <pt x="234" y="820" on="0"/>
      </contour>
    </TTGlyph>
    <TTGlyph name="O" xMin="38" yMin="-15" xMax="476" yMax="666">
      <contour>
        <pt x="394" y="396" on="1"/>
        <pt x="394" y="596" on="0"/>
        <pt x="265" y="596" on="1"/>
        <pt x="227" y="596" on="0"/>
        <pt x="200" y="580" on="1"/>
        <pt x="162" y="512" on="0"/>
        <pt x="120" y="337" on="0"/>
        <pt x="120" y="205" on="0"/>
        <pt x="144" y="118" on="0"/>
        <pt x="205" y="54" on="0"/>
        <pt x="285" y="54" on="0"/>
        <pt x="312" y="71" on="1"/>
        <pt x="350" y="125" on="0"/>
        <pt x="394" y="317" on="0"/>
      </contour>
      <contour>
        <pt x="138" y="-15" on="0"/>
        <pt x="38" y="130" on="0"/>
        <pt x="38" y="327" on="0"/>
        <pt x="91" y="495" on="0"/>
        <pt x="204" y="634" on="0"/>
        <pt x="282" y="666" on="1"/>
        <pt x="476" y="666" on="0"/>
        <pt x="476" y="413" on="1"/>
        <pt x="476" y="277" on="0"/>
        <pt x="347" y="32" on="0"/>
        <pt x="233" y="-15" on="1"/>
      </contour>
    </TTGlyph>
    <TTGlyph name="OE" xMin="38" yMin="-15" xMax="683" yMax="666">
      <contour>
        <pt x="138" y="-15" on="0"/>
        <pt x="38" y="130" on="0"/>
        <pt x="38" y="327" on="0"/>
        <pt x="91" y="495" on="0"/>
        <pt x="204" y="634" on="0"/>
        <pt x="282" y="666" on="1"/>
        <pt x="395" y="651" on="0"/>
        <pt x="624" y="651" on="0"/>
        <pt x="677" y="663" on="1"/>
        <pt x="683" y="652" on="1"/>
        <pt x="640" y="611" on="0"/>
        <pt x="636" y="497" on="1"/>
        <pt x="624" y="497" on="1"/>
        <pt x="609" y="545" on="0"/>
        <pt x="605" y="593" on="1"/>
        <pt x="559" y="614" on="0"/>
        <pt x="497" y="614" on="1"/>
        <pt x="468" y="614" on="0"/>
        <pt x="440" y="609" on="1"/>
        <pt x="425" y="521" on="0"/>
        <pt x="418" y="374" on="1"/>
        <pt x="443" y="368" on="0"/>
        <pt x="547" y="368" on="0"/>
        <pt x="598" y="385" on="1"/>
        <pt x="603" y="379" on="1"/>
        <pt x="592" y="349" on="0"/>
        <pt x="588" y="317" on="1"/>
        <pt x="518" y="327" on="0"/>
        <pt x="429" y="327" on="0"/>
        <pt x="416" y="324" on="1"/>
        <pt x="414" y="257" on="1"/>
        <pt x="414" y="248" on="0"/>
        <pt x="414" y="239" on="1"/>
        <pt x="414" y="67" on="0"/>
        <pt x="525" y="50" on="1"/>
        <pt x="554" y="68" on="0"/>
        <pt x="597" y="149" on="0"/>
        <pt x="597" y="183" on="1"/>
        <pt x="597" y="194" on="0"/>
        <pt x="594" y="207" on="1"/>
        <pt x="599" y="212" on="1"/>
        <pt x="646" y="214" on="0"/>
        <pt x="676" y="223" on="1"/>
        <pt x="663" y="157" on="0"/>
        <pt x="546" y="13" on="0"/>
        <pt x="485" y="-15" on="1"/>
        <pt x="401" y="-3" on="0"/>
        <pt x="370" y="87" on="1"/>
        <pt x="367" y="87" on="1"/>
        <pt x="311" y="18" on="0"/>
        <pt x="233" y="-15" on="1"/>
      </contour>
      <contour>
        <pt x="353" y="493" on="0"/>
        <pt x="353" y="553" on="0"/>
        <pt x="351" y="577" on="1"/>
        <pt x="307" y="596" on="0"/>
        <pt x="227" y="596" on="0"/>
        <pt x="200" y="580" on="1"/>
        <pt x="162" y="512" on="0"/>
        <pt x="120" y="337" on="0"/>
        <pt x="120" y="205" on="0"/>
        <pt x="144" y="118" on="0"/>
        <pt x="205" y="54" on="0"/>
        <pt x="286" y="54" on="0"/>
        <pt x="313" y="71" on="1"/>
        <pt x="336" y="100" on="0"/>
        <pt x="338" y="144" on="1"/>
        <pt x="351" y="457" on="1"/>
      </contour>
    </TTGlyph>
    <TTGlyph name="Oacute" xMin="38" yMin="-15" xMax="476" yMax="867">
      <contour>
        <pt x="394" y="396" on="1"/>
        <pt x="394" y="596" on="0"/>
        <pt x="265" y="596" on="1"/>
        <pt x="227" y="596" on="0"/>
        <pt x="200" y="580" on="1"/>
        <pt x="162" y="512" on="0"/>
        <pt x="120" y="337" on="0"/>
        <pt x="120" y="205" on="0"/>
        <pt x="144" y="118" on="0"/>
        <pt x="205" y="54" on="0"/>
        <pt x="285" y="54" on="0"/>
        <pt x="312" y="71" on="1"/>
        <pt x="350" y="125" on="0"/>
        <pt x="394" y="317" on="0"/>
      </contour>
      <contour>
        <pt x="138" y="-15" on="0"/>
        <pt x="38" y="130" on="0"/>
        <pt x="38" y="327" on="0"/>
        <pt x="91" y="495" on="0"/>
        <pt x="204" y="634" on="0"/>
        <pt x="282" y="666" on="1"/>
        <pt x="476" y="666" on="0"/>
        <pt x="476" y="413" on="1"/>
        <pt x="476" y="277" on="0"/>
        <pt x="347" y="32" on="0"/>
        <pt x="233" y="-15" on="1"/>
      </contour>
      <contour>
        <pt x="454" y="808" on="1"/>
        <pt x="256" y="733" on="1"/>
        <pt x="247" y="751" on="1"/>
        <pt x="288" y="771" on="0"/>
        <pt x="375" y="836" on="0"/>
        <pt x="397" y="867" on="1"/>
        <pt x="421" y="867" on="0"/>
        <pt x="436" y="862" on="1"/>
        <pt x="442" y="854" on="0"/>
        <pt x="454" y="817" on="0"/>
      </contour>
    </TTGlyph>
    <TTGlyph name="Ocircumflex" xMin="38" yMin="-15" xMax="476" yMax="885">
      <contour>
        <pt x="394" y="396" on="1"/>
        <pt x="394" y="596" on="0"/>
        <pt x="265" y="596" on="1"/>
        <pt x="227" y="596" on="0"/>
        <pt x="200" y="580" on="1"/>
        <pt x="162" y="512" on="0"/>
        <pt x="120" y="337" on="0"/>
        <pt x="120" y="205" on="0"/>
        <pt x="144" y="118" on="0"/>
        <pt x="205" y="54" on="0"/>
        <pt x="285" y="54" on="0"/>
        <pt x="312" y="71" on="1"/>
        <pt x="350" y="125" on="0"/>
        <pt x="394" y="317" on="0"/>
      </contour>
      <contour>
        <pt x="138" y="-15" on="0"/>
        <pt x="38" y="130" on="0"/>
        <pt x="38" y="327" on="0"/>
        <pt x="91" y="495" on="0"/>
        <pt x="204" y="634" on="0"/>
        <pt x="282" y="666" on="1"/>
        <pt x="476" y="666" on="0"/>
        <pt x="476" y="413" on="1"/>
        <pt x="476" y="277" on="0"/>
        <pt x="347" y="32" on="0"/>
        <pt x="233" y="-15" on="1"/>
      </contour>
      <contour>
        <pt x="291" y="797" on="1"/>
        <pt x="168" y="718" on="1"/>
        <pt x="157" y="734" on="1"/>
        <pt x="253" y="806" on="0"/>
        <pt x="299" y="885" on="1"/>
        <pt x="321" y="885" on="1"/>
        <pt x="354" y="796" on="0"/>
        <pt x="431" y="732" on="1"/>
        <pt x="416" y="720" on="1"/>
      </contour>
    </TTGlyph>
    <TTGlyph name="Odieresis" xMin="38" yMin="-15" xMax="476" yMax="858">
      <contour>
        <pt x="394" y="396" on="1"/>
        <pt x="394" y="596" on="0"/>
        <pt x="265" y="596" on="1"/>
        <pt x="227" y="596" on="0"/>
        <pt x="200" y="580" on="1"/>
        <pt x="162" y="512" on="0"/>
        <pt x="120" y="337" on="0"/>
        <pt x="120" y="205" on="0"/>
        <pt x="144" y="118" on="0"/>
        <pt x="205" y="54" on="0"/>
        <pt x="285" y="54" on="0"/>
        <pt x="312" y="71" on="1"/>
        <pt x="350" y="125" on="0"/>
        <pt x="394" y="317" on="0"/>
      </contour>
      <contour>
        <pt x="138" y="-15" on="0"/>
        <pt x="38" y="130" on="0"/>
        <pt x="38" y="327" on="0"/>
        <pt x="91" y="495" on="0"/>
        <pt x="204" y="634" on="0"/>
        <pt x="282" y="666" on="1"/>
        <pt x="476" y="666" on="0"/>
        <pt x="476" y="413" on="1"/>
        <pt x="476" y="277" on="0"/>
        <pt x="347" y="32" on="0"/>
        <pt x="233" y="-15" on="1"/>
      </contour>
      <contour>
        <pt x="452" y="803" on="1"/>
        <pt x="443" y="788" on="0"/>
        <pt x="406" y="744" on="0"/>
        <pt x="392" y="735" on="1"/>
        <pt x="368" y="752" on="0"/>
        <pt x="344" y="803" on="1"/>
        <pt x="351" y="816" on="0"/>
        <pt x="389" y="850" on="0"/>
        <pt x="403" y="858" on="1"/>
        <pt x="428" y="842" on="0"/>
      </contour>
      <contour>
        <pt x="287" y="803" on="1"/>
        <pt x="278" y="788" on="0"/>
        <pt x="241" y="744" on="0"/>
        <pt x="227" y="735" on="1"/>
        <pt x="203" y="752" on="0"/>
        <pt x="179" y="803" on="1"/>
        <pt x="186" y="816" on="0"/>
        <pt x="224" y="850" on="0"/>
        <pt x="238" y="858" on="1"/>
        <pt x="263" y="842" on="0"/>
      </contour>
    </TTGlyph>
    <TTGlyph name="Ograve" xMin="38" yMin="-15" xMax="476" yMax="867">
      <contour>
        <pt x="394" y="396" on="1"/>
        <pt x="394" y="596" on="0"/>
        <pt x="265" y="596" on="1"/>
        <pt x="227" y="596" on="0"/>
        <pt x="200" y="580" on="1"/>
        <pt x="162" y="512" on="0"/>
        <pt x="120" y="337" on="0"/>
        <pt x="120" y="205" on="0"/>
        <pt x="144" y="118" on="0"/>
        <pt x="205" y="54" on="0"/>
        <pt x="285" y="54" on="0"/>
        <pt x="312" y="71" on="1"/>
        <pt x="350" y="125" on="0"/>
        <pt x="394" y="317" on="0"/>
      </contour>
      <contour>
        <pt x="138" y="-15" on="0"/>
        <pt x="38" y="130" on="0"/>
        <pt x="38" y="327" on="0"/>
        <pt x="91" y="495" on="0"/>
        <pt x="204" y="634" on="0"/>
        <pt x="282" y="666" on="1"/>
        <pt x="476" y="666" on="0"/>
        <pt x="476" y="413" on="1"/>
        <pt x="476" y="277" on="0"/>
        <pt x="347" y="32" on="0"/>
        <pt x="233" y="-15" on="1"/>
      </contour>
      <contour>
        <pt x="326" y="733" on="1"/>
        <pt x="128" y="808" on="1"/>
        <pt x="128" y="817" on="0"/>
        <pt x="140" y="854" on="0"/>
        <pt x="146" y="862" on="1"/>
        <pt x="161" y="867" on="0"/>
        <pt x="185" y="867" on="1"/>
        <pt x="207" y="836" on="0"/>
        <pt x="294" y="771" on="0"/>
        <pt x="335" y="751" on="1"/>
      </contour>
    </TTGlyph>
    <TTGlyph name="Oslash" xMin="38" yMin="-87" xMax="476" yMax="739">
      <contour>
        <pt x="38" y="238" on="1"/>
        <pt x="38" y="430" on="0"/>
        <pt x="148" y="564" on="1"/>
        <pt x="204" y="634" on="0"/>
        <pt x="282" y="666" on="1"/>
        <pt x="320" y="666" on="0"/>
        <pt x="353" y="655" on="1"/>
        <pt x="378" y="732" on="1"/>
        <pt x="401" y="734" on="0"/>
        <pt x="416" y="739" on="1"/>
        <pt x="420" y="736" on="1"/>
        <pt x="417" y="729" on="0"/>
        <pt x="382" y="642" on="1"/>
        <pt x="476" y="589" on="0"/>
        <pt x="476" y="413" on="1"/>
        <pt x="476" y="277" on="0"/>
        <pt x="347" y="32" on="0"/>
        <pt x="233" y="-15" on="1"/>
        <pt x="182" y="-15" on="0"/>
        <pt x="140" y="9" on="1"/>
        <pt x="105" y="-87" on="1"/>
        <pt x="100" y="-87" on="1"/>
        <pt x="84" y="-78" on="0"/>
        <pt x="74" y="-63" on="1"/>
        <pt x="114" y="28" on="1"/>
        <pt x="38" y="97" on="0"/>
      </contour>
      <contour>
        <pt x="394" y="396" on="1"/>
        <pt x="394" y="510" on="0"/>
        <pt x="350" y="559" on="1"/>
        <pt x="170" y="89" on="1"/>
        <pt x="202" y="54" on="0"/>
        <pt x="285" y="54" on="0"/>
        <pt x="312" y="71" on="1"/>
        <pt x="350" y="125" on="0"/>
        <pt x="394" y="317" on="0"/>
      </contour>
      <contour>
        <pt x="162" y="512" on="0"/>
        <pt x="120" y="337" on="0"/>
        <pt x="120" y="174" on="0"/>
        <pt x="150" y="118" on="1"/>
        <pt x="327" y="579" on="1"/>
        <pt x="301" y="596" on="0"/>
        <pt x="227" y="596" on="0"/>
        <pt x="200" y="580" on="1"/>
      </contour>
    </TTGlyph>
    <TTGlyph name="Otilde" xMin="38" yMin="-15" xMax="476" yMax="845">
      <contour>
        <pt x="394" y="396" on="1"/>
        <pt x="394" y="596" on="0"/>
        <pt x="265" y="596" on="1"/>
        <pt x="227" y="596" on="0"/>
        <pt x="200" y="580" on="1"/>
        <pt x="162" y="512" on="0"/>
        <pt x="120" y="337" on="0"/>
        <pt x="120" y="205" on="0"/>
        <pt x="144" y="118" on="0"/>
        <pt x="205" y="54" on="0"/>
        <pt x="285" y="54" on="0"/>
        <pt x="312" y="71" on="1"/>
        <pt x="350" y="125" on="0"/>
        <pt x="394" y="317" on="0"/>
      </contour>
      <contour>
        <pt x="138" y="-15" on="0"/>
        <pt x="38" y="130" on="0"/>
        <pt x="38" y="327" on="0"/>
        <pt x="91" y="495" on="0"/>
        <pt x="204" y="634" on="0"/>
        <pt x="282" y="666" on="1"/>
        <pt x="476" y="666" on="0"/>
        <pt x="476" y="413" on="1"/>
        <pt x="476" y="277" on="0"/>
        <pt x="347" y="32" on="0"/>
        <pt x="233" y="-15" on="1"/>
      </contour>
      <contour>
        <pt x="286" y="845" on="1"/>
        <pt x="337" y="812" on="0"/>
        <pt x="425" y="812" on="0"/>
        <pt x="448" y="836" on="1"/>
        <pt x="464" y="824" on="1"/>
        <pt x="426" y="771" on="0"/>
        <pt x="368" y="747" on="1"/>
        <pt x="350" y="747" on="0"/>
        <pt x="258" y="780" on="0"/>
        <pt x="240" y="780" on="1"/>
        <pt x="206" y="780" on="0"/>
        <pt x="184" y="756" on="1"/>
        <pt x="167" y="768" on="1"/>
        <pt x="205" y="820" on="0"/>
      </contour>
    </TTGlyph>
    <TTGlyph name="P" xMin="7" yMin="-15" xMax="457" yMax="662">
      <contour>
        <pt x="371" y="662" on="0"/>
        <pt x="457" y="595" on="0"/>
        <pt x="457" y="422" on="0"/>
        <pt x="324" y="312" on="0"/>
        <pt x="225" y="312" on="1"/>
        <pt x="228" y="342" on="1"/>
        <pt x="373" y="342" on="0"/>
        <pt x="373" y="625" on="0"/>
        <pt x="271" y="625" on="1"/>
        <pt x="235" y="625" on="0"/>
        <pt x="200" y="614" on="1"/>
        <pt x="173" y="443" on="0"/>
        <pt x="173" y="192" on="1"/>
        <pt x="173" y="51" on="0"/>
        <pt x="184" y="0" on="1"/>
        <pt x="128" y="-3" on="0"/>
        <pt x="82" y="-15" on="1"/>
        <pt x="76" y="-10" on="1"/>
        <pt x="90" y="49" on="0"/>
        <pt x="111" y="331" on="0"/>
        <pt x="111" y="566" on="0"/>
        <pt x="103" y="620" on="1"/>
        <pt x="45" y="625" on="0"/>
        <pt x="7" y="639" on="1"/>
        <pt x="8" y="651" on="1"/>
        <pt x="66" y="651" on="0"/>
        <pt x="252" y="662" on="0"/>
        <pt x="288" y="662" on="1"/>
      </contour>
    </TTGlyph>
    <TTGlyph name="Q" xMin="38" yMin="-200" xMax="704" yMax="666">
      <contour>
        <pt x="117" y="4" on="0"/>
        <pt x="38" y="142" on="0"/>
        <pt x="38" y="327" on="0"/>
        <pt x="91" y="495" on="0"/>
        <pt x="204" y="634" on="0"/>
        <pt x="282" y="666" on="1"/>
        <pt x="476" y="666" on="0"/>
        <pt x="476" y="413" on="1"/>
        <pt x="476" y="286" on="0"/>
        <pt x="363" y="53" on="0"/>
        <pt x="262" y="-1" on="1"/>
        <pt x="295" y="-6" on="0"/>
        <pt x="418" y="-81" on="0"/>
        <pt x="538" y="-148" on="0"/>
        <pt x="573" y="-148" on="1"/>
        <pt x="594" y="-148" on="0"/>
        <pt x="623" y="-98" on="0"/>
        <pt x="623" y="-73" on="1"/>
        <pt x="627" y="-66" on="1"/>
        <pt x="660" y="-66" on="0"/>
        <pt x="692" y="-56" on="1"/>
        <pt x="704" y="-65" on="0"/>
        <pt x="704" y="-78" on="1"/>
        <pt x="704" y="-109" on="0"/>
        <pt x="605" y="-169" on="0"/>
        <pt x="490" y="-200" on="0"/>
        <pt x="453" y="-200" on="1"/>
        <pt x="297" y="-56" on="0"/>
        <pt x="200" y="-56" on="1"/>
        <pt x="140" y="-56" on="0"/>
        <pt x="93" y="-90" on="1"/>
        <pt x="76" y="-74" on="1"/>
        <pt x="98" y="-53" on="0"/>
        <pt x="168" y="-18" on="0"/>
        <pt x="198" y="-12" on="1"/>
      </contour>
      <contour>
        <pt x="394" y="396" on="1"/>
        <pt x="394" y="596" on="0"/>
        <pt x="265" y="596" on="1"/>
        <pt x="227" y="596" on="0"/>
        <pt x="200" y="580" on="1"/>
        <pt x="162" y="512" on="0"/>
        <pt x="120" y="337" on="0"/>
        <pt x="120" y="205" on="0"/>
        <pt x="144" y="118" on="0"/>
        <pt x="205" y="54" on="0"/>
        <pt x="285" y="54" on="0"/>
        <pt x="312" y="71" on="1"/>
        <pt x="350" y="125" on="0"/>
        <pt x="394" y="317" on="0"/>
      </contour>
    </TTGlyph>
    <TTGlyph name="R" xMin="7" yMin="-15" xMax="519" yMax="662">
      <contour>
        <pt x="373" y="498" on="1"/>
        <pt x="373" y="625" on="0"/>
        <pt x="271" y="625" on="1"/>
        <pt x="235" y="625" on="0"/>
        <pt x="200" y="614" on="1"/>
        <pt x="173" y="443" on="0"/>
        <pt x="173" y="192" on="1"/>
        <pt x="173" y="51" on="0"/>
        <pt x="184" y="0" on="1"/>
        <pt x="128" y="-3" on="0"/>
        <pt x="82" y="-15" on="1"/>
        <pt x="76" y="-10" on="1"/>
        <pt x="90" y="49" on="0"/>
        <pt x="111" y="331" on="0"/>
        <pt x="111" y="566" on="0"/>
        <pt x="103" y="620" on="1"/>
        <pt x="45" y="625" on="0"/>
        <pt x="7" y="639" on="1"/>
        <pt x="8" y="651" on="1"/>
        <pt x="66" y="651" on="0"/>
        <pt x="252" y="662" on="0"/>
        <pt x="288" y="662" on="1"/>
        <pt x="371" y="662" on="0"/>
        <pt x="457" y="601" on="0"/>
        <pt x="457" y="459" on="0"/>
        <pt x="382" y="363" on="0"/>
        <pt x="320" y="341" on="1"/>
        <pt x="372" y="238" on="0"/>
        <pt x="499" y="24" on="0"/>
        <pt x="519" y="0" on="1"/>
        <pt x="452" y="-4" on="0"/>
        <pt x="410" y="-14" on="1"/>
        <pt x="403" y="-11" on="1"/>
        <pt x="381" y="93" on="0"/>
        <pt x="252" y="327" on="1"/>
        <pt x="243" y="326" on="0"/>
        <pt x="225" y="326" on="1"/>
        <pt x="228" y="356" on="1"/>
        <pt x="373" y="356" on="0"/>
      </contour>
    </TTGlyph>
    <TTGlyph name="Racute" xMin="7" yMin="-15" xMax="519" yMax="867">
      <contour>
        <pt x="373" y="498" on="1"/>
        <pt x="373" y="625" on="0"/>
        <pt x="271" y="625" on="1"/>
        <pt x="235" y="625" on="0"/>
        <pt x="200" y="614" on="1"/>
        <pt x="173" y="443" on="0"/>
        <pt x="173" y="192" on="1"/>
        <pt x="173" y="51" on="0"/>
        <pt x="184" y="0" on="1"/>
        <pt x="128" y="-3" on="0"/>
        <pt x="82" y="-15" on="1"/>
        <pt x="76" y="-10" on="1"/>
        <pt x="90" y="49" on="0"/>
        <pt x="111" y="331" on="0"/>
        <pt x="111" y="566" on="0"/>
        <pt x="103" y="620" on="1"/>
        <pt x="45" y="625" on="0"/>
        <pt x="7" y="639" on="1"/>
        <pt x="8" y="651" on="1"/>
        <pt x="66" y="651" on="0"/>
        <pt x="252" y="662" on="0"/>
        <pt x="288" y="662" on="1"/>
        <pt x="371" y="662" on="0"/>
        <pt x="457" y="601" on="0"/>
        <pt x="457" y="459" on="0"/>
        <pt x="382" y="363" on="0"/>
        <pt x="320" y="341" on="1"/>
        <pt x="372" y="238" on="0"/>
        <pt x="499" y="24" on="0"/>
        <pt x="519" y="0" on="1"/>
        <pt x="452" y="-4" on="0"/>
        <pt x="410" y="-14" on="1"/>
        <pt x="403" y="-11" on="1"/>
        <pt x="381" y="93" on="0"/>
        <pt x="252" y="327" on="1"/>
        <pt x="243" y="326" on="0"/>
        <pt x="225" y="326" on="1"/>
        <pt x="228" y="356" on="1"/>
        <pt x="373" y="356" on="0"/>
      </contour>
      <contour>
        <pt x="471" y="808" on="1"/>
        <pt x="273" y="733" on="1"/>
        <pt x="264" y="751" on="1"/>
        <pt x="305" y="771" on="0"/>
        <pt x="392" y="836" on="0"/>
        <pt x="414" y="867" on="1"/>
        <pt x="438" y="867" on="0"/>
        <pt x="453" y="862" on="1"/>
        <pt x="459" y="854" on="0"/>
        <pt x="471" y="817" on="0"/>
      </contour>
    </TTGlyph>
    <TTGlyph name="Rcaron" xMin="7" yMin="-15" xMax="519" yMax="885">
      <contour>
        <pt x="373" y="498" on="1"/>
        <pt x="373" y="625" on="0"/>
        <pt x="271" y="625" on="1"/>
        <pt x="235" y="625" on="0"/>
        <pt x="200" y="614" on="1"/>
        <pt x="173" y="443" on="0"/>
        <pt x="173" y="192" on="1"/>
        <pt x="173" y="51" on="0"/>
        <pt x="184" y="0" on="1"/>
        <pt x="128" y="-3" on="0"/>
        <pt x="82" y="-15" on="1"/>
        <pt x="76" y="-10" on="1"/>
        <pt x="90" y="49" on="0"/>
        <pt x="111" y="331" on="0"/>
        <pt x="111" y="566" on="0"/>
        <pt x="103" y="620" on="1"/>
        <pt x="45" y="625" on="0"/>
        <pt x="7" y="639" on="1"/>
        <pt x="8" y="651" on="1"/>
        <pt x="66" y="651" on="0"/>
        <pt x="252" y="662" on="0"/>
        <pt x="288" y="662" on="1"/>
        <pt x="371" y="662" on="0"/>
        <pt x="457" y="601" on="0"/>
        <pt x="457" y="459" on="0"/>
        <pt x="382" y="363" on="0"/>
        <pt x="320" y="341" on="1"/>
        <pt x="372" y="238" on="0"/>
        <pt x="499" y="24" on="0"/>
        <pt x="519" y="0" on="1"/>
        <pt x="452" y="-4" on="0"/>
        <pt x="410" y="-14" on="1"/>
        <pt x="403" y="-11" on="1"/>
        <pt x="381" y="93" on="0"/>
        <pt x="252" y="327" on="1"/>
        <pt x="243" y="326" on="0"/>
        <pt x="225" y="326" on="1"/>
        <pt x="228" y="356" on="1"/>
        <pt x="373" y="356" on="0"/>
      </contour>
      <contour>
        <pt x="299" y="806" on="1"/>
        <pt x="422" y="885" on="1"/>
        <pt x="433" y="869" on="1"/>
        <pt x="337" y="797" on="0"/>
        <pt x="291" y="718" on="1"/>
        <pt x="269" y="718" on="1"/>
        <pt x="236" y="807" on="0"/>
        <pt x="159" y="871" on="1"/>
        <pt x="174" y="883" on="1"/>
      </contour>
    </TTGlyph>
    <TTGlyph name="Rcommaaccent" xMin="7" yMin="-215" xMax="519" yMax="662">
      <contour>
        <pt x="373" y="498" on="1"/>
        <pt x="373" y="625" on="0"/>
        <pt x="271" y="625" on="1"/>
        <pt x="235" y="625" on="0"/>
        <pt x="200" y="614" on="1"/>
        <pt x="173" y="443" on="0"/>
        <pt x="173" y="192" on="1"/>
        <pt x="173" y="51" on="0"/>
        <pt x="184" y="0" on="1"/>
        <pt x="128" y="-3" on="0"/>
        <pt x="82" y="-15" on="1"/>
        <pt x="76" y="-10" on="1"/>
        <pt x="90" y="49" on="0"/>
        <pt x="111" y="331" on="0"/>
        <pt x="111" y="566" on="0"/>
        <pt x="103" y="620" on="1"/>
        <pt x="45" y="625" on="0"/>
        <pt x="7" y="639" on="1"/>
        <pt x="8" y="651" on="1"/>
        <pt x="66" y="651" on="0"/>
        <pt x="252" y="662" on="0"/>
        <pt x="288" y="662" on="1"/>
        <pt x="371" y="662" on="0"/>
        <pt x="457" y="601" on="0"/>
        <pt x="457" y="459" on="0"/>
        <pt x="382" y="363" on="0"/>
        <pt x="320" y="341" on="1"/>
        <pt x="372" y="238" on="0"/>
        <pt x="499" y="24" on="0"/>
        <pt x="519" y="0" on="1"/>
        <pt x="452" y="-4" on="0"/>
        <pt x="410" y="-14" on="1"/>
        <pt x="403" y="-11" on="1"/>
        <pt x="381" y="93" on="0"/>
        <pt x="252" y="327" on="1"/>
        <pt x="243" y="326" on="0"/>
        <pt x="225" y="326" on="1"/>
        <pt x="228" y="356" on="1"/>
        <pt x="373" y="356" on="0"/>
      </contour>
      <contour>
        <pt x="295" y="-31" on="1"/>
        <pt x="322" y="-51" on="0"/>
        <pt x="339" y="-84" on="1"/>
        <pt x="327" y="-162" on="0"/>
        <pt x="228" y="-215" on="1"/>
        <pt x="218" y="-202" on="1"/>
        <pt x="265" y="-167" on="0"/>
        <pt x="271" y="-130" on="1"/>
        <pt x="251" y="-111" on="0"/>
        <pt x="236" y="-84" on="1"/>
        <pt x="242" y="-72" on="0"/>
        <pt x="281" y="-38" on="0"/>
      </contour>
    </TTGlyph>
    <TTGlyph name="S" xMin="11" yMin="-15" xMax="414" yMax="666">
      <contour>
        <pt x="218" y="430" on="1"/>
        <pt x="254" y="409" on="0"/>
        <pt x="328" y="368" on="0"/>
        <pt x="379" y="316" on="0"/>
        <pt x="379" y="289" on="1"/>
        <pt x="379" y="219" on="0"/>
        <pt x="264" y="37" on="0"/>
        <pt x="198" y="-15" on="1"/>
        <pt x="156" y="-5" on="0"/>
        <pt x="65" y="61" on="0"/>
        <pt x="38" y="98" on="1"/>
        <pt x="11" y="135" on="1"/>
        <pt x="69" y="190" on="0"/>
        <pt x="103" y="244" on="1"/>
        <pt x="115" y="238" on="1"/>
        <pt x="103" y="212" on="0"/>
        <pt x="103" y="145" on="0"/>
        <pt x="179" y="73" on="0"/>
        <pt x="224" y="57" on="1"/>
        <pt x="248" y="73" on="0"/>
        <pt x="311" y="201" on="0"/>
        <pt x="311" y="259" on="0"/>
        <pt x="234" y="321" on="0"/>
        <pt x="143" y="366" on="0"/>
        <pt x="66" y="432" on="0"/>
        <pt x="66" y="465" on="1"/>
        <pt x="66" y="518" on="0"/>
        <pt x="173" y="638" on="0"/>
        <pt x="231" y="666" on="1"/>
        <pt x="276" y="651" on="0"/>
        <pt x="389" y="651" on="0"/>
        <pt x="408" y="656" on="1"/>
        <pt x="414" y="645" on="1"/>
        <pt x="357" y="591" on="0"/>
        <pt x="357" y="471" on="1"/>
        <pt x="345" y="471" on="1"/>
        <pt x="330" y="519" on="0"/>
        <pt x="326" y="567" on="1"/>
        <pt x="306" y="575" on="1"/>
        <pt x="258" y="594" on="0"/>
        <pt x="200" y="594" on="1"/>
        <pt x="130" y="561" on="0"/>
        <pt x="130" y="479" on="0"/>
      </contour>
    </TTGlyph>
    <TTGlyph name="T" xMin="-24" yMin="-15" xMax="500" yMax="714">
      <contour>
        <pt x="163" y="665" on="0"/>
        <pt x="341" y="647" on="0"/>
        <pt x="409" y="647" on="0"/>
        <pt x="421" y="651" on="1"/>
        <pt x="463" y="693" on="0"/>
        <pt x="489" y="714" on="1"/>
        <pt x="500" y="708" on="1"/>
        <pt x="454" y="649" on="0"/>
        <pt x="443" y="571" on="1"/>
        <pt x="420" y="578" on="1"/>
        <pt x="360" y="593" on="0"/>
        <pt x="277" y="600" on="1"/>
        <pt x="252" y="431" on="0"/>
        <pt x="252" y="51" on="0"/>
        <pt x="263" y="0" on="1"/>
        <pt x="207" y="-3" on="0"/>
        <pt x="161" y="-15" on="1"/>
        <pt x="155" y="-10" on="1"/>
        <pt x="171" y="62" on="0"/>
        <pt x="190" y="342" on="0"/>
        <pt x="190" y="536" on="0"/>
        <pt x="184" y="605" on="1"/>
        <pt x="178" y="605" on="0"/>
        <pt x="173" y="605" on="1"/>
        <pt x="83" y="605" on="0"/>
        <pt x="51" y="573" on="1"/>
        <pt x="44" y="559" on="0"/>
        <pt x="44" y="499" on="0"/>
        <pt x="54" y="488" on="1"/>
        <pt x="53" y="481" on="1"/>
        <pt x="28" y="466" on="0"/>
        <pt x="3" y="439" on="1"/>
        <pt x="-9" y="440" on="0"/>
        <pt x="-24" y="458" on="0"/>
        <pt x="-24" y="470" on="1"/>
        <pt x="-24" y="527" on="0"/>
        <pt x="83" y="643" on="0"/>
        <pt x="145" y="666" on="1"/>
      </contour>
    </TTGlyph>
    <TTGlyph name="Thorn" xMin="7" yMin="-15" xMax="441" yMax="664">
      <contour>
        <pt x="272" y="521" on="1"/>
        <pt x="355" y="521" on="0"/>
        <pt x="441" y="454" on="0"/>
        <pt x="441" y="281" on="0"/>
        <pt x="308" y="171" on="0"/>
        <pt x="209" y="171" on="1"/>
        <pt x="212" y="201" on="1"/>
        <pt x="357" y="201" on="0"/>
        <pt x="357" y="484" on="0"/>
        <pt x="255" y="484" on="1"/>
        <pt x="219" y="484" on="0"/>
        <pt x="184" y="473" on="1"/>
        <pt x="173" y="340" on="0"/>
        <pt x="173" y="51" on="0"/>
        <pt x="184" y="0" on="1"/>
        <pt x="128" y="-3" on="0"/>
        <pt x="82" y="-15" on="1"/>
        <pt x="76" y="-10" on="1"/>
        <pt x="90" y="49" on="0"/>
        <pt x="111" y="331" on="0"/>
        <pt x="111" y="566" on="0"/>
        <pt x="103" y="620" on="1"/>
        <pt x="45" y="625" on="0"/>
        <pt x="7" y="639" on="1"/>
        <pt x="8" y="651" on="1"/>
        <pt x="128" y="651" on="0"/>
        <pt x="202" y="664" on="1"/>
        <pt x="208" y="659" on="1"/>
        <pt x="196" y="606" on="0"/>
        <pt x="188" y="518" on="1"/>
        <pt x="232" y="521" on="0"/>
      </contour>
    </TTGlyph>
    <TTGlyph name="U" xMin="7" yMin="-15" xMax="510" yMax="664">
      <contour>
        <pt x="96" y="205" on="1"/>
        <pt x="96" y="205" on="0"/>
        <pt x="107" y="457" on="1"/>
        <pt x="107" y="566" on="0"/>
        <pt x="99" y="620" on="1"/>
        <pt x="46" y="625" on="0"/>
        <pt x="7" y="639" on="1"/>
        <pt x="8" y="651" on="1"/>
        <pt x="128" y="651" on="0"/>
        <pt x="202" y="664" on="1"/>
        <pt x="208" y="659" on="1"/>
        <pt x="193" y="594" on="0"/>
        <pt x="172" y="369" on="0"/>
        <pt x="172" y="240" on="0"/>
        <pt x="173" y="205" on="0"/>
        <pt x="178" y="151" on="0"/>
        <pt x="191" y="119" on="0"/>
        <pt x="201" y="101" on="1"/>
        <pt x="220" y="67" on="0"/>
        <pt x="268" y="59" on="1"/>
        <pt x="343" y="109" on="0"/>
        <pt x="404" y="208" on="1"/>
        <pt x="413" y="340" on="0"/>
        <pt x="413" y="598" on="0"/>
        <pt x="402" y="649" on="1"/>
        <pt x="458" y="652" on="0"/>
        <pt x="504" y="664" on="1"/>
        <pt x="510" y="659" on="1"/>
        <pt x="494" y="587" on="0"/>
        <pt x="475" y="307" on="0"/>
        <pt x="475" y="51" on="0"/>
        <pt x="486" y="0" on="1"/>
        <pt x="430" y="-3" on="0"/>
        <pt x="384" y="-15" on="1"/>
        <pt x="378" y="-10" on="1"/>
        <pt x="389" y="42" on="0"/>
        <pt x="399" y="146" on="1"/>
        <pt x="396" y="147" on="1"/>
        <pt x="333" y="36" on="0"/>
        <pt x="243" y="-15" on="1"/>
        <pt x="160" y="-7" on="0"/>
        <pt x="96" y="106" on="0"/>
      </contour>
    </TTGlyph>
    <TTGlyph name="Uacute" xMin="7" yMin="-15" xMax="510" yMax="867">
      <contour>
        <pt x="96" y="205" on="1"/>
        <pt x="96" y="205" on="0"/>
        <pt x="107" y="457" on="1"/>
        <pt x="107" y="566" on="0"/>
        <pt x="99" y="620" on="1"/>
        <pt x="46" y="625" on="0"/>
        <pt x="7" y="639" on="1"/>
        <pt x="8" y="651" on="1"/>
        <pt x="128" y="651" on="0"/>
        <pt x="202" y="664" on="1"/>
        <pt x="208" y="659" on="1"/>
        <pt x="193" y="594" on="0"/>
        <pt x="172" y="369" on="0"/>
        <pt x="172" y="240" on="0"/>
        <pt x="173" y="205" on="0"/>
        <pt x="178" y="151" on="0"/>
        <pt x="191" y="119" on="0"/>
        <pt x="201" y="101" on="1"/>
        <pt x="220" y="67" on="0"/>
        <pt x="268" y="59" on="1"/>
        <pt x="343" y="109" on="0"/>
        <pt x="404" y="208" on="1"/>
        <pt x="413" y="340" on="0"/>
        <pt x="413" y="598" on="0"/>
        <pt x="402" y="649" on="1"/>
        <pt x="458" y="652" on="0"/>
        <pt x="504" y="664" on="1"/>
        <pt x="510" y="659" on="1"/>
        <pt x="494" y="587" on="0"/>
        <pt x="475" y="307" on="0"/>
        <pt x="475" y="51" on="0"/>
        <pt x="486" y="0" on="1"/>
        <pt x="430" y="-3" on="0"/>
        <pt x="384" y="-15" on="1"/>
        <pt x="378" y="-10" on="1"/>
        <pt x="389" y="42" on="0"/>
        <pt x="399" y="146" on="1"/>
        <pt x="396" y="147" on="1"/>
        <pt x="333" y="36" on="0"/>
        <pt x="243" y="-15" on="1"/>
        <pt x="160" y="-7" on="0"/>
        <pt x="96" y="106" on="0"/>
      </contour>
      <contour>
        <pt x="491" y="808" on="1"/>
        <pt x="293" y="733" on="1"/>
        <pt x="284" y="751" on="1"/>
        <pt x="325" y="771" on="0"/>
        <pt x="412" y="836" on="0"/>
        <pt x="434" y="867" on="1"/>
        <pt x="458" y="867" on="0"/>
        <pt x="473" y="862" on="1"/>
        <pt x="479" y="854" on="0"/>
        <pt x="491" y="817" on="0"/>
      </contour>
    </TTGlyph>
    <TTGlyph name="Ucircumflex" xMin="7" yMin="-15" xMax="510" yMax="885">
      <contour>
        <pt x="96" y="205" on="1"/>
        <pt x="96" y="205" on="0"/>
        <pt x="107" y="457" on="1"/>
        <pt x="107" y="566" on="0"/>
        <pt x="99" y="620" on="1"/>
        <pt x="46" y="625" on="0"/>
        <pt x="7" y="639" on="1"/>
        <pt x="8" y="651" on="1"/>
        <pt x="128" y="651" on="0"/>
        <pt x="202" y="664" on="1"/>
        <pt x="208" y="659" on="1"/>
        <pt x="193" y="594" on="0"/>
        <pt x="172" y="369" on="0"/>
        <pt x="172" y="240" on="0"/>
        <pt x="173" y="205" on="0"/>
        <pt x="178" y="151" on="0"/>
        <pt x="191" y="119" on="0"/>
        <pt x="201" y="101" on="1"/>
        <pt x="220" y="67" on="0"/>
        <pt x="268" y="59" on="1"/>
        <pt x="343" y="109" on="0"/>
        <pt x="404" y="208" on="1"/>
        <pt x="413" y="340" on="0"/>
        <pt x="413" y="598" on="0"/>
        <pt x="402" y="649" on="1"/>
        <pt x="458" y="652" on="0"/>
        <pt x="504" y="664" on="1"/>
        <pt x="510" y="659" on="1"/>
        <pt x="494" y="587" on="0"/>
        <pt x="475" y="307" on="0"/>
        <pt x="475" y="51" on="0"/>
        <pt x="486" y="0" on="1"/>
        <pt x="430" y="-3" on="0"/>
        <pt x="384" y="-15" on="1"/>
        <pt x="378" y="-10" on="1"/>
        <pt x="389" y="42" on="0"/>
        <pt x="399" y="146" on="1"/>
        <pt x="396" y="147" on="1"/>
        <pt x="333" y="36" on="0"/>
        <pt x="243" y="-15" on="1"/>
        <pt x="160" y="-7" on="0"/>
        <pt x="96" y="106" on="0"/>
      </contour>
      <contour>
        <pt x="300" y="797" on="1"/>
        <pt x="177" y="718" on="1"/>
        <pt x="166" y="734" on="1"/>
        <pt x="262" y="806" on="0"/>
        <pt x="308" y="885" on="1"/>
        <pt x="330" y="885" on="1"/>
        <pt x="363" y="796" on="0"/>
        <pt x="440" y="732" on="1"/>
        <pt x="425" y="720" on="1"/>
      </contour>
    </TTGlyph>
    <TTGlyph name="Udieresis" xMin="7" yMin="-15" xMax="510" yMax="858">
      <contour>
        <pt x="96" y="205" on="1"/>
        <pt x="96" y="205" on="0"/>
        <pt x="107" y="457" on="1"/>
        <pt x="107" y="566" on="0"/>
        <pt x="99" y="620" on="1"/>
        <pt x="46" y="625" on="0"/>
        <pt x="7" y="639" on="1"/>
        <pt x="8" y="651" on="1"/>
        <pt x="128" y="651" on="0"/>
        <pt x="202" y="664" on="1"/>
        <pt x="208" y="659" on="1"/>
        <pt x="193" y="594" on="0"/>
        <pt x="172" y="369" on="0"/>
        <pt x="172" y="240" on="0"/>
        <pt x="173" y="205" on="0"/>
        <pt x="178" y="151" on="0"/>
        <pt x="191" y="119" on="0"/>
        <pt x="201" y="101" on="1"/>
        <pt x="220" y="67" on="0"/>
        <pt x="268" y="59" on="1"/>
        <pt x="343" y="109" on="0"/>
        <pt x="404" y="208" on="1"/>
        <pt x="413" y="340" on="0"/>
        <pt x="413" y="598" on="0"/>
        <pt x="402" y="649" on="1"/>
        <pt x="458" y="652" on="0"/>
        <pt x="504" y="664" on="1"/>
        <pt x="510" y="659" on="1"/>
        <pt x="494" y="587" on="0"/>
        <pt x="475" y="307" on="0"/>
        <pt x="475" y="51" on="0"/>
        <pt x="486" y="0" on="1"/>
        <pt x="430" y="-3" on="0"/>
        <pt x="384" y="-15" on="1"/>
        <pt x="378" y="-10" on="1"/>
        <pt x="389" y="42" on="0"/>
        <pt x="399" y="146" on="1"/>
        <pt x="396" y="147" on="1"/>
        <pt x="333" y="36" on="0"/>
        <pt x="243" y="-15" on="1"/>
        <pt x="160" y="-7" on="0"/>
        <pt x="96" y="106" on="0"/>
      </contour>
      <contour>
        <pt x="446" y="803" on="1"/>
        <pt x="437" y="788" on="0"/>
        <pt x="400" y="744" on="0"/>
        <pt x="386" y="735" on="1"/>
        <pt x="362" y="752" on="0"/>
        <pt x="338" y="803" on="1"/>
        <pt x="345" y="816" on="0"/>
        <pt x="383" y="850" on="0"/>
        <pt x="397" y="858" on="1"/>
        <pt x="422" y="842" on="0"/>
      </contour>
      <contour>
        <pt x="281" y="803" on="1"/>
        <pt x="272" y="788" on="0"/>
        <pt x="235" y="744" on="0"/>
        <pt x="221" y="735" on="1"/>
        <pt x="197" y="752" on="0"/>
        <pt x="173" y="803" on="1"/>
        <pt x="180" y="816" on="0"/>
        <pt x="218" y="850" on="0"/>
        <pt x="232" y="858" on="1"/>
        <pt x="257" y="842" on="0"/>
      </contour>
    </TTGlyph>
    <TTGlyph name="Ugrave" xMin="7" yMin="-15" xMax="510" yMax="867">
      <contour>
        <pt x="96" y="205" on="1"/>
        <pt x="96" y="205" on="0"/>
        <pt x="107" y="457" on="1"/>
        <pt x="107" y="566" on="0"/>
        <pt x="99" y="620" on="1"/>
        <pt x="46" y="625" on="0"/>
        <pt x="7" y="639" on="1"/>
        <pt x="8" y="651" on="1"/>
        <pt x="128" y="651" on="0"/>
        <pt x="202" y="664" on="1"/>
        <pt x="208" y="659" on="1"/>
        <pt x="193" y="594" on="0"/>
        <pt x="172" y="369" on="0"/>
        <pt x="172" y="240" on="0"/>
        <pt x="173" y="205" on="0"/>
        <pt x="178" y="151" on="0"/>
        <pt x="191" y="119" on="0"/>
        <pt x="201" y="101" on="1"/>
        <pt x="220" y="67" on="0"/>
        <pt x="268" y="59" on="1"/>
        <pt x="343" y="109" on="0"/>
        <pt x="404" y="208" on="1"/>
        <pt x="413" y="340" on="0"/>
        <pt x="413" y="598" on="0"/>
        <pt x="402" y="649" on="1"/>
        <pt x="458" y="652" on="0"/>
        <pt x="504" y="664" on="1"/>
        <pt x="510" y="659" on="1"/>
        <pt x="494" y="587" on="0"/>
        <pt x="475" y="307" on="0"/>
        <pt x="475" y="51" on="0"/>
        <pt x="486" y="0" on="1"/>
        <pt x="430" y="-3" on="0"/>
        <pt x="384" y="-15" on="1"/>
        <pt x="378" y="-10" on="1"/>
        <pt x="389" y="42" on="0"/>
        <pt x="399" y="146" on="1"/>
        <pt x="396" y="147" on="1"/>
        <pt x="333" y="36" on="0"/>
        <pt x="243" y="-15" on="1"/>
        <pt x="160" y="-7" on="0"/>
        <pt x="96" y="106" on="0"/>
      </contour>
      <contour>
        <pt x="322" y="733" on="1"/>
        <pt x="124" y="808" on="1"/>
        <pt x="124" y="817" on="0"/>
        <pt x="136" y="854" on="0"/>
        <pt x="142" y="862" on="1"/>
        <pt x="157" y="867" on="0"/>
        <pt x="181" y="867" on="1"/>
        <pt x="203" y="836" on="0"/>
        <pt x="290" y="771" on="0"/>
        <pt x="331" y="751" on="1"/>
      </contour>
    </TTGlyph>
    <TTGlyph name="V" xMin="7" yMin="-15" xMax="468" yMax="690">
      <contour>
        <pt x="385" y="514" on="1"/>
        <pt x="385" y="600" on="0"/>
        <pt x="354" y="628" on="1"/>
        <pt x="354" y="635" on="1"/>
        <pt x="400" y="661" on="0"/>
        <pt x="427" y="690" on="1"/>
        <pt x="468" y="655" on="0"/>
        <pt x="468" y="554" on="1"/>
        <pt x="468" y="295" on="0"/>
        <pt x="263" y="-13" on="1"/>
        <pt x="258" y="-15" on="1"/>
        <pt x="231" y="1" on="1"/>
        <pt x="136" y="57" on="0"/>
        <pt x="88" y="57" on="1"/>
        <pt x="78" y="57" on="0"/>
        <pt x="66" y="55" on="1"/>
        <pt x="61" y="69" on="1"/>
        <pt x="88" y="91" on="0"/>
        <pt x="93" y="144" on="1"/>
        <pt x="107" y="315" on="0"/>
        <pt x="107" y="566" on="0"/>
        <pt x="99" y="620" on="1"/>
        <pt x="46" y="625" on="0"/>
        <pt x="7" y="639" on="1"/>
        <pt x="8" y="651" on="1"/>
        <pt x="128" y="651" on="0"/>
        <pt x="202" y="664" on="1"/>
        <pt x="208" y="659" on="1"/>
        <pt x="173" y="504" on="0"/>
        <pt x="169" y="192" on="1"/>
        <pt x="169" y="148" on="0"/>
        <pt x="170" y="122" on="1"/>
        <pt x="171" y="121" on="1"/>
        <pt x="202" y="84" on="0"/>
        <pt x="270" y="63" on="1"/>
        <pt x="385" y="285" on="0"/>
      </contour>
    </TTGlyph>
    <TTGlyph name="W" xMin="7" yMin="-15" xMax="751" yMax="695">
      <contour>
        <pt x="699" y="559" on="1"/>
        <pt x="699" y="283" on="0"/>
        <pt x="494" y="-13" on="1"/>
        <pt x="489" y="-15" on="1"/>
        <pt x="391" y="26" on="0"/>
        <pt x="332" y="103" on="1"/>
        <pt x="298" y="39" on="0"/>
        <pt x="263" y="-13" on="1"/>
        <pt x="258" y="-15" on="1"/>
        <pt x="231" y="1" on="1"/>
        <pt x="136" y="57" on="0"/>
        <pt x="88" y="57" on="1"/>
        <pt x="78" y="57" on="0"/>
        <pt x="66" y="55" on="1"/>
        <pt x="61" y="69" on="1"/>
        <pt x="88" y="91" on="0"/>
        <pt x="93" y="144" on="1"/>
        <pt x="107" y="315" on="0"/>
        <pt x="107" y="566" on="0"/>
        <pt x="99" y="620" on="1"/>
        <pt x="46" y="625" on="0"/>
        <pt x="7" y="639" on="1"/>
        <pt x="8" y="651" on="1"/>
        <pt x="128" y="651" on="0"/>
        <pt x="202" y="664" on="1"/>
        <pt x="208" y="659" on="1"/>
        <pt x="173" y="504" on="0"/>
        <pt x="169" y="192" on="1"/>
        <pt x="169" y="148" on="0"/>
        <pt x="170" y="122" on="1"/>
        <pt x="171" y="121" on="1"/>
        <pt x="202" y="84" on="0"/>
        <pt x="270" y="63" on="1"/>
        <pt x="371" y="286" on="0"/>
        <pt x="371" y="514" on="1"/>
        <pt x="371" y="626" on="0"/>
        <pt x="320" y="644" on="1"/>
        <pt x="321" y="656" on="1"/>
        <pt x="398" y="651" on="0"/>
        <pt x="662" y="651" on="0"/>
        <pt x="744" y="695" on="1"/>
        <pt x="751" y="685" on="1"/>
        <pt x="737" y="668" on="0"/>
        <pt x="689" y="637" on="1"/>
        <pt x="699" y="604" on="0"/>
      </contour>
      <contour>
        <pt x="457" y="554" on="1"/>
        <pt x="457" y="396" on="0"/>
        <pt x="368" y="176" on="1"/>
        <pt x="387" y="141" on="0"/>
        <pt x="463" y="77" on="0"/>
        <pt x="501" y="63" on="1"/>
        <pt x="616" y="282" on="0"/>
        <pt x="616" y="514" on="1"/>
        <pt x="616" y="573" on="0"/>
        <pt x="579" y="629" on="0"/>
        <pt x="493" y="629" on="0"/>
        <pt x="452" y="620" on="1"/>
        <pt x="457" y="588" on="0"/>
      </contour>
    </TTGlyph>
    <TTGlyph name="X" xMin="-24" yMin="-15" xMax="486" yMax="666">
      <contour>
        <pt x="383" y="615" on="1"/>
        <pt x="383" y="635" on="0"/>
        <pt x="378" y="649" on="1"/>
        <pt x="382" y="654" on="1"/>
        <pt x="445" y="656" on="0"/>
        <pt x="486" y="666" on="1"/>
        <pt x="474" y="612" on="0"/>
        <pt x="404" y="486" on="0"/>
        <pt x="354" y="420" on="0"/>
        <pt x="299" y="351" on="1"/>
        <pt x="399" y="140" on="0"/>
        <pt x="486" y="0" on="1"/>
        <pt x="427" y="-2" on="0"/>
        <pt x="373" y="-14" on="1"/>
        <pt x="366" y="-11" on="1"/>
        <pt x="328" y="112" on="0"/>
        <pt x="244" y="292" on="1"/>
        <pt x="198" y="221" on="1"/>
        <pt x="132" y="118" on="0"/>
        <pt x="132" y="36" on="1"/>
        <pt x="132" y="16" on="0"/>
        <pt x="137" y="2" on="1"/>
        <pt x="133" y="-3" on="1"/>
        <pt x="70" y="-5" on="0"/>
        <pt x="29" y="-15" on="1"/>
        <pt x="58" y="115" on="0"/>
        <pt x="227" y="327" on="1"/>
        <pt x="220" y="342" on="0"/>
        <pt x="181" y="420" on="1"/>
        <pt x="105" y="566" on="0"/>
        <pt x="72" y="620" on="1"/>
        <pt x="14" y="625" on="0"/>
        <pt x="-24" y="639" on="1"/>
        <pt x="-23" y="651" on="1"/>
        <pt x="101" y="651" on="0"/>
        <pt x="175" y="664" on="1"/>
        <pt x="197" y="567" on="0"/>
        <pt x="282" y="388" on="1"/>
        <pt x="313" y="437" on="1"/>
        <pt x="383" y="552" on="0"/>
      </contour>
    </TTGlyph>
    <TTGlyph name="Y" xMin="-37" yMin="-15" xMax="488" yMax="667">
      <contour>
        <pt x="285" y="314" on="1"/>
        <pt x="283" y="269" on="0"/>
        <pt x="283" y="51" on="0"/>
        <pt x="294" y="0" on="1"/>
        <pt x="238" y="-3" on="0"/>
        <pt x="192" y="-15" on="1"/>
        <pt x="186" y="-10" on="1"/>
        <pt x="207" y="80" on="0"/>
        <pt x="217" y="294" on="1"/>
        <pt x="205" y="322" on="0"/>
        <pt x="161" y="419" on="1"/>
        <pt x="84" y="582" on="0"/>
        <pt x="59" y="622" on="1"/>
        <pt x="-2" y="628" on="0"/>
        <pt x="-37" y="642" on="1"/>
        <pt x="-36" y="654" on="1"/>
        <pt x="-21" y="654" on="0"/>
        <pt x="-6" y="654" on="1"/>
        <pt x="95" y="654" on="0"/>
        <pt x="162" y="666" on="1"/>
        <pt x="189" y="548" on="0"/>
        <pt x="273" y="352" on="1"/>
        <pt x="323" y="435" on="1"/>
        <pt x="387" y="544" on="0"/>
        <pt x="387" y="614" on="1"/>
        <pt x="387" y="633" on="0"/>
        <pt x="380" y="648" on="1"/>
        <pt x="384" y="653" on="1"/>
        <pt x="445" y="655" on="0"/>
        <pt x="488" y="667" on="1"/>
        <pt x="478" y="615" on="0"/>
        <pt x="406" y="478" on="0"/>
        <pt x="380" y="442" on="1"/>
        <pt x="317" y="353" on="0"/>
      </contour>
    </TTGlyph>
    <TTGlyph name="Yacute" xMin="-37" yMin="-15" xMax="488" yMax="867">
      <contour>
        <pt x="285" y="314" on="1"/>
        <pt x="283" y="269" on="0"/>
        <pt x="283" y="51" on="0"/>
        <pt x="294" y="0" on="1"/>
        <pt x="238" y="-3" on="0"/>
        <pt x="192" y="-15" on="1"/>
        <pt x="186" y="-10" on="1"/>
        <pt x="207" y="80" on="0"/>
        <pt x="217" y="294" on="1"/>
        <pt x="205" y="322" on="0"/>
        <pt x="161" y="419" on="1"/>
        <pt x="84" y="582" on="0"/>
        <pt x="59" y="622" on="1"/>
        <pt x="-2" y="628" on="0"/>
        <pt x="-37" y="642" on="1"/>
        <pt x="-36" y="654" on="1"/>
        <pt x="-21" y="654" on="0"/>
        <pt x="-6" y="654" on="1"/>
        <pt x="95" y="654" on="0"/>
        <pt x="162" y="666" on="1"/>
        <pt x="189" y="548" on="0"/>
        <pt x="273" y="352" on="1"/>
        <pt x="323" y="435" on="1"/>
        <pt x="387" y="544" on="0"/>
        <pt x="387" y="614" on="1"/>
        <pt x="387" y="633" on="0"/>
        <pt x="380" y="648" on="1"/>
        <pt x="384" y="653" on="1"/>
        <pt x="445" y="655" on="0"/>
        <pt x="488" y="667" on="1"/>
        <pt x="478" y="615" on="0"/>
        <pt x="406" y="478" on="0"/>
        <pt x="380" y="442" on="1"/>
        <pt x="317" y="353" on="0"/>
      </contour>
      <contour>
        <pt x="472" y="808" on="1"/>
        <pt x="274" y="733" on="1"/>
        <pt x="265" y="751" on="1"/>
        <pt x="306" y="771" on="0"/>
        <pt x="393" y="836" on="0"/>
        <pt x="415" y="867" on="1"/>
        <pt x="439" y="867" on="0"/>
        <pt x="454" y="862" on="1"/>
        <pt x="460" y="854" on="0"/>
        <pt x="472" y="817" on="0"/>
      </contour>
    </TTGlyph>
    <TTGlyph name="Z" xMin="-28" yMin="-44" xMax="440" yMax="683">
      <contour>
        <pt x="349" y="91" on="1"/>
        <pt x="349" y="104" on="0"/>
        <pt x="346" y="113" on="1"/>
        <pt x="349" y="120" on="1"/>
        <pt x="379" y="128" on="0"/>
        <pt x="414" y="149" on="1"/>
        <pt x="432" y="142" on="0"/>
        <pt x="432" y="121" on="1"/>
        <pt x="432" y="73" on="0"/>
        <pt x="280" y="-35" on="0"/>
        <pt x="221" y="-44" on="1"/>
        <pt x="117" y="17" on="0"/>
        <pt x="9" y="17" on="0"/>
        <pt x="-17" y="-14" on="1"/>
        <pt x="-28" y="-4" on="1"/>
        <pt x="5" y="29" on="0"/>
        <pt x="117" y="220" on="1"/>
        <pt x="325" y="577" on="1"/>
        <pt x="322" y="580" on="1"/>
        <pt x="315" y="576" on="0"/>
        <pt x="299" y="572" on="1"/>
        <pt x="293" y="574" on="0"/>
        <pt x="265" y="585" on="0"/>
        <pt x="254" y="589" on="0"/>
        <pt x="231" y="597" on="0"/>
        <pt x="217" y="600" on="0"/>
        <pt x="206" y="602" on="1"/>
        <pt x="192" y="606" on="0"/>
        <pt x="142" y="606" on="0"/>
        <pt x="125" y="600" on="1"/>
        <pt x="102" y="579" on="0"/>
        <pt x="102" y="535" on="1"/>
        <pt x="102" y="522" on="0"/>
        <pt x="105" y="512" on="1"/>
        <pt x="102" y="505" on="1"/>
        <pt x="69" y="497" on="0"/>
        <pt x="37" y="476" on="1"/>
        <pt x="19" y="483" on="0"/>
        <pt x="19" y="504" on="1"/>
        <pt x="19" y="551" on="0"/>
        <pt x="166" y="663" on="0"/>
        <pt x="226" y="683" on="1"/>
        <pt x="303" y="649" on="0"/>
        <pt x="404" y="649" on="0"/>
        <pt x="428" y="679" on="1"/>
        <pt x="440" y="670" on="1"/>
        <pt x="400" y="619" on="0"/>
        <pt x="315" y="455" on="1"/>
        <pt x="117" y="73" on="1"/>
        <pt x="121" y="70" on="1"/>
        <pt x="139" y="78" on="0"/>
        <pt x="144" y="79" on="1"/>
        <pt x="228" y="33" on="0"/>
        <pt x="327" y="33" on="1"/>
        <pt x="349" y="47" on="0"/>
      </contour>
    </TTGlyph>
    <TTGlyph name="a" xMin="48" yMin="-15" xMax="477" yMax="517">
      <contour>
        <pt x="48" y="143" on="1"/>
        <pt x="48" y="251" on="0"/>
        <pt x="143" y="447" on="0"/>
        <pt x="230" y="485" on="1"/>
        <pt x="280" y="485" on="0"/>
        <pt x="334" y="450" on="1"/>
        <pt x="350" y="489" on="0"/>
        <pt x="370" y="517" on="1"/>
        <pt x="384" y="513" on="1"/>
        <pt x="352" y="428" on="0"/>
        <pt x="352" y="234" on="1"/>
        <pt x="352" y="117" on="0"/>
        <pt x="360" y="70" on="1"/>
        <pt x="390" y="96" on="0"/>
        <pt x="448" y="201" on="0"/>
        <pt x="463" y="247" on="1"/>
        <pt x="477" y="244" on="1"/>
        <pt x="458" y="167" on="0"/>
        <pt x="384" y="23" on="0"/>
        <pt x="333" y="-15" on="1"/>
        <pt x="303" y="-4" on="0"/>
        <pt x="283" y="67" on="0"/>
        <pt x="283" y="167" on="1"/>
        <pt x="288" y="208" on="0"/>
        <pt x="297" y="241" on="1"/>
        <pt x="287" y="242" on="1"/>
        <pt x="269" y="164" on="0"/>
        <pt x="188" y="19" on="0"/>
        <pt x="132" y="-15" on="1"/>
        <pt x="90" y="-8" on="0"/>
        <pt x="48" y="88" on="0"/>
      </contour>
      <contour>
        <pt x="119" y="174" on="1"/>
        <pt x="119" y="141" on="0"/>
        <pt x="136" y="74" on="0"/>
        <pt x="156" y="67" on="1"/>
        <pt x="205" y="102" on="0"/>
        <pt x="291" y="320" on="0"/>
        <pt x="291" y="388" on="1"/>
        <pt x="256" y="423" on="0"/>
        <pt x="205" y="423" on="1"/>
        <pt x="178" y="423" on="0"/>
        <pt x="164" y="409" on="1"/>
        <pt x="119" y="315" on="0"/>
      </contour>
    </TTGlyph>
    <TTGlyph name="aacute" xMin="48" yMin="-15" xMax="477" yMax="697">
      <contour>
        <pt x="48" y="143" on="1"/>
        <pt x="48" y="251" on="0"/>
        <pt x="143" y="447" on="0"/>
        <pt x="230" y="485" on="1"/>
        <pt x="280" y="485" on="0"/>
        <pt x="334" y="450" on="1"/>
        <pt x="350" y="489" on="0"/>
        <pt x="370" y="517" on="1"/>
        <pt x="384" y="513" on="1"/>
        <pt x="352" y="428" on="0"/>
        <pt x="352" y="234" on="1"/>
        <pt x="352" y="117" on="0"/>
        <pt x="360" y="70" on="1"/>
        <pt x="390" y="96" on="0"/>
        <pt x="448" y="201" on="0"/>
        <pt x="463" y="247" on="1"/>
        <pt x="477" y="244" on="1"/>
        <pt x="458" y="167" on="0"/>
        <pt x="384" y="23" on="0"/>
        <pt x="333" y="-15" on="1"/>
        <pt x="303" y="-4" on="0"/>
        <pt x="283" y="67" on="0"/>
        <pt x="283" y="167" on="1"/>
        <pt x="288" y="208" on="0"/>
        <pt x="297" y="241" on="1"/>
        <pt x="287" y="242" on="1"/>
        <pt x="269" y="164" on="0"/>
        <pt x="188" y="19" on="0"/>
        <pt x="132" y="-15" on="1"/>
        <pt x="90" y="-8" on="0"/>
        <pt x="48" y="88" on="0"/>
      </contour>
      <contour>
        <pt x="119" y="174" on="1"/>
        <pt x="119" y="141" on="0"/>
        <pt x="136" y="74" on="0"/>
        <pt x="156" y="67" on="1"/>
        <pt x="205" y="102" on="0"/>
        <pt x="291" y="320" on="0"/>
        <pt x="291" y="388" on="1"/>
        <pt x="256" y="423" on="0"/>
        <pt x="205" y="423" on="1"/>
        <pt x="178" y="423" on="0"/>
        <pt x="164" y="409" on="1"/>
        <pt x="119" y="315" on="0"/>
      </contour>
      <contour>
        <pt x="342" y="696" on="1"/>
        <pt x="352" y="697" on="0"/>
        <pt x="372" y="697" on="0"/>
        <pt x="380" y="695" on="1"/>
        <pt x="387" y="688" on="0"/>
        <pt x="402" y="651" on="0"/>
        <pt x="403" y="642" on="1"/>
        <pt x="213" y="543" on="1"/>
        <pt x="203" y="560" on="1"/>
        <pt x="305" y="629" on="0"/>
      </contour>
    </TTGlyph>
    <TTGlyph name="acircumflex" xMin="48" yMin="-15" xMax="477" yMax="705">
      <contour>
        <pt x="48" y="143" on="1"/>
        <pt x="48" y="251" on="0"/>
        <pt x="143" y="447" on="0"/>
        <pt x="230" y="485" on="1"/>
        <pt x="280" y="485" on="0"/>
        <pt x="334" y="450" on="1"/>
        <pt x="350" y="489" on="0"/>
        <pt x="370" y="517" on="1"/>
        <pt x="384" y="513" on="1"/>
        <pt x="352" y="428" on="0"/>
        <pt x="352" y="234" on="1"/>
        <pt x="352" y="117" on="0"/>
        <pt x="360" y="70" on="1"/>
        <pt x="390" y="96" on="0"/>
        <pt x="448" y="201" on="0"/>
        <pt x="463" y="247" on="1"/>
        <pt x="477" y="244" on="1"/>
        <pt x="458" y="167" on="0"/>
        <pt x="384" y="23" on="0"/>
        <pt x="333" y="-15" on="1"/>
        <pt x="303" y="-4" on="0"/>
        <pt x="283" y="67" on="0"/>
        <pt x="283" y="167" on="1"/>
        <pt x="288" y="208" on="0"/>
        <pt x="297" y="241" on="1"/>
        <pt x="287" y="242" on="1"/>
        <pt x="269" y="164" on="0"/>
        <pt x="188" y="19" on="0"/>
        <pt x="132" y="-15" on="1"/>
        <pt x="90" y="-8" on="0"/>
        <pt x="48" y="88" on="0"/>
      </contour>
      <contour>
        <pt x="119" y="174" on="1"/>
        <pt x="119" y="141" on="0"/>
        <pt x="136" y="74" on="0"/>
        <pt x="156" y="67" on="1"/>
        <pt x="205" y="102" on="0"/>
        <pt x="291" y="320" on="0"/>
        <pt x="291" y="388" on="1"/>
        <pt x="256" y="423" on="0"/>
        <pt x="205" y="423" on="1"/>
        <pt x="178" y="423" on="0"/>
        <pt x="164" y="409" on="1"/>
        <pt x="119" y="315" on="0"/>
      </contour>
      <contour>
        <pt x="256" y="617" on="1"/>
        <pt x="147" y="538" on="1"/>
        <pt x="136" y="554" on="1"/>
        <pt x="223" y="627" on="0"/>
        <pt x="264" y="705" on="1"/>
        <pt x="286" y="705" on="1"/>
        <pt x="305" y="652" on="0"/>
        <pt x="346" y="585" on="0"/>
        <pt x="382" y="552" on="1"/>
        <pt x="367" y="540" on="1"/>
      </contour>
    </TTGlyph>
    <TTGlyph name="acute" xMin="0" yMin="543" xMax="200" yMax="697">
      <contour>
        <pt x="139" y="696" on="1"/>
        <pt x="149" y="697" on="0"/>
        <pt x="169" y="697" on="0"/>
        <pt x="177" y="695" on="1"/>
        <pt x="184" y="688" on="0"/>
        <pt x="199" y="651" on="0"/>
        <pt x="200" y="642" on="1"/>
        <pt x="10" y="543" on="1"/>
        <pt x="0" y="560" on="1"/>
        <pt x="102" y="629" on="0"/>
      </contour>
    </TTGlyph>
    <TTGlyph name="acute.cap" xMin="0" yMin="733" xMax="207" yMax="867">
      <contour>
        <pt x="207" y="808" on="1"/>
        <pt x="9" y="733" on="1"/>
        <pt x="0" y="751" on="1"/>
        <pt x="41" y="771" on="0"/>
        <pt x="128" y="836" on="0"/>
        <pt x="150" y="867" on="1"/>
        <pt x="174" y="867" on="0"/>
        <pt x="189" y="862" on="1"/>
        <pt x="195" y="854" on="0"/>
        <pt x="207" y="817" on="0"/>
      </contour>
    </TTGlyph>
    <TTGlyph name="adieresis" xMin="48" yMin="-15" xMax="477" yMax="675">
      <contour>
        <pt x="48" y="143" on="1"/>
        <pt x="48" y="251" on="0"/>
        <pt x="143" y="447" on="0"/>
        <pt x="230" y="485" on="1"/>
        <pt x="280" y="485" on="0"/>
        <pt x="334" y="450" on="1"/>
        <pt x="350" y="489" on="0"/>
        <pt x="370" y="517" on="1"/>
        <pt x="384" y="513" on="1"/>
        <pt x="352" y="428" on="0"/>
        <pt x="352" y="234" on="1"/>
        <pt x="352" y="117" on="0"/>
        <pt x="360" y="70" on="1"/>
        <pt x="390" y="96" on="0"/>
        <pt x="448" y="201" on="0"/>
        <pt x="463" y="247" on="1"/>
        <pt x="477" y="244" on="1"/>
        <pt x="458" y="167" on="0"/>
        <pt x="384" y="23" on="0"/>
        <pt x="333" y="-15" on="1"/>
        <pt x="303" y="-4" on="0"/>
        <pt x="283" y="67" on="0"/>
        <pt x="283" y="167" on="1"/>
        <pt x="288" y="208" on="0"/>
        <pt x="297" y="241" on="1"/>
        <pt x="287" y="242" on="1"/>
        <pt x="269" y="164" on="0"/>
        <pt x="188" y="19" on="0"/>
        <pt x="132" y="-15" on="1"/>
        <pt x="90" y="-8" on="0"/>
        <pt x="48" y="88" on="0"/>
      </contour>
      <contour>
        <pt x="119" y="174" on="1"/>
        <pt x="119" y="141" on="0"/>
        <pt x="136" y="74" on="0"/>
        <pt x="156" y="67" on="1"/>
        <pt x="205" y="102" on="0"/>
        <pt x="291" y="320" on="0"/>
        <pt x="291" y="388" on="1"/>
        <pt x="256" y="423" on="0"/>
        <pt x="205" y="423" on="1"/>
        <pt x="178" y="423" on="0"/>
        <pt x="164" y="409" on="1"/>
        <pt x="119" y="315" on="0"/>
      </contour>
      <contour>
        <pt x="382" y="620" on="1"/>
        <pt x="373" y="605" on="0"/>
        <pt x="336" y="561" on="0"/>
        <pt x="322" y="552" on="1"/>
        <pt x="298" y="569" on="0"/>
        <pt x="274" y="620" on="1"/>
        <pt x="281" y="633" on="0"/>
        <pt x="319" y="667" on="0"/>
        <pt x="333" y="675" on="1"/>
        <pt x="358" y="659" on="0"/>
      </contour>
      <contour>
        <pt x="217" y="620" on="1"/>
        <pt x="208" y="605" on="0"/>
        <pt x="171" y="561" on="0"/>
        <pt x="157" y="552" on="1"/>
        <pt x="133" y="569" on="0"/>
        <pt x="109" y="620" on="1"/>
        <pt x="116" y="633" on="0"/>
        <pt x="154" y="667" on="0"/>
        <pt x="168" y="675" on="1"/>
        <pt x="193" y="659" on="0"/>
      </contour>
    </TTGlyph>
    <TTGlyph name="ae" xMin="48" yMin="-15" xMax="574" yMax="483">
      <contour>
        <pt x="48" y="6" on="0"/>
        <pt x="48" y="228" on="0"/>
        <pt x="175" y="439" on="0"/>
        <pt x="272" y="469" on="1"/>
        <pt x="311" y="465" on="0"/>
        <pt x="352" y="436" on="1"/>
        <pt x="381" y="465" on="0"/>
        <pt x="417" y="483" on="1"/>
        <pt x="423" y="481" on="1"/>
        <pt x="452" y="402" on="0"/>
        <pt x="502" y="322" on="1"/>
        <pt x="570" y="337" on="1"/>
        <pt x="574" y="324" on="1"/>
        <pt x="434" y="268" on="0"/>
        <pt x="324" y="172" on="1"/>
        <pt x="336" y="87" on="0"/>
        <pt x="394" y="61" on="1"/>
        <pt x="469" y="115" on="0"/>
        <pt x="506" y="214" on="1"/>
        <pt x="529" y="205" on="1"/>
        <pt x="507" y="139" on="0"/>
        <pt x="423" y="19" on="0"/>
        <pt x="369" y="-15" on="1"/>
        <pt x="276" y="7" on="0"/>
        <pt x="256" y="112" on="1"/>
        <pt x="234" y="78" on="0"/>
        <pt x="149" y="0" on="0"/>
        <pt x="114" y="-15" on="1"/>
      </contour>
      <contour>
        <pt x="250" y="177" on="1"/>
        <pt x="250" y="289" on="0"/>
        <pt x="307" y="380" on="1"/>
        <pt x="270" y="412" on="0"/>
        <pt x="231" y="412" on="1"/>
        <pt x="211" y="412" on="0"/>
        <pt x="197" y="402" on="1"/>
        <pt x="163" y="347" on="0"/>
        <pt x="122" y="203" on="0"/>
        <pt x="122" y="76" on="0"/>
        <pt x="148" y="64" on="1"/>
        <pt x="211" y="93" on="0"/>
        <pt x="251" y="148" on="1"/>
        <pt x="250" y="157" on="0"/>
      </contour>
      <contour>
        <pt x="376" y="418" on="1"/>
        <pt x="348" y="387" on="0"/>
        <pt x="320" y="282" on="0"/>
        <pt x="320" y="232" on="0"/>
        <pt x="320" y="226" on="1"/>
        <pt x="321" y="204" on="1"/>
        <pt x="373" y="252" on="0"/>
        <pt x="431" y="289" on="1"/>
        <pt x="398" y="355" on="0"/>
      </contour>
    </TTGlyph>
    <TTGlyph name="agrave" xMin="48" yMin="-15" xMax="477" yMax="697">
      <contour>
        <pt x="124" y="695" on="1"/>
        <pt x="132" y="697" on="0"/>
        <pt x="152" y="697" on="0"/>
        <pt x="162" y="696" on="1"/>
        <pt x="199" y="629" on="0"/>
        <pt x="301" y="560" on="1"/>
        <pt x="291" y="543" on="1"/>
        <pt x="101" y="642" on="1"/>
        <pt x="102" y="651" on="0"/>
        <pt x="117" y="688" on="0"/>
      </contour>
      <contour>
        <pt x="48" y="143" on="1"/>
        <pt x="48" y="251" on="0"/>
        <pt x="143" y="447" on="0"/>
        <pt x="230" y="485" on="1"/>
        <pt x="280" y="485" on="0"/>
        <pt x="334" y="450" on="1"/>
        <pt x="350" y="489" on="0"/>
        <pt x="370" y="517" on="1"/>
        <pt x="384" y="513" on="1"/>
        <pt x="352" y="428" on="0"/>
        <pt x="352" y="234" on="1"/>
        <pt x="352" y="117" on="0"/>
        <pt x="360" y="70" on="1"/>
        <pt x="390" y="96" on="0"/>
        <pt x="448" y="201" on="0"/>
        <pt x="463" y="247" on="1"/>
        <pt x="477" y="244" on="1"/>
        <pt x="458" y="167" on="0"/>
        <pt x="384" y="23" on="0"/>
        <pt x="333" y="-15" on="1"/>
        <pt x="303" y="-4" on="0"/>
        <pt x="283" y="67" on="0"/>
        <pt x="283" y="167" on="1"/>
        <pt x="288" y="208" on="0"/>
        <pt x="297" y="241" on="1"/>
        <pt x="287" y="242" on="1"/>
        <pt x="269" y="164" on="0"/>
        <pt x="188" y="19" on="0"/>
        <pt x="132" y="-15" on="1"/>
        <pt x="90" y="-8" on="0"/>
        <pt x="48" y="88" on="0"/>
      </contour>
      <contour>
        <pt x="119" y="174" on="1"/>
        <pt x="119" y="141" on="0"/>
        <pt x="136" y="74" on="0"/>
        <pt x="156" y="67" on="1"/>
        <pt x="205" y="102" on="0"/>
        <pt x="291" y="320" on="0"/>
        <pt x="291" y="388" on="1"/>
        <pt x="256" y="423" on="0"/>
        <pt x="205" y="423" on="1"/>
        <pt x="178" y="423" on="0"/>
        <pt x="164" y="409" on="1"/>
        <pt x="119" y="315" on="0"/>
      </contour>
    </TTGlyph>
    <TTGlyph name="ampersand" xMin="48" yMin="-15" xMax="784" yMax="666">
      <contour>
        <pt x="48" y="286" on="1"/>
        <pt x="48" y="494" on="0"/>
        <pt x="205" y="585" on="1"/>
        <pt x="211" y="584" on="1"/>
        <pt x="249" y="510" on="0"/>
        <pt x="296" y="442" on="1"/>
        <pt x="383" y="552" on="0"/>
        <pt x="383" y="622" on="1"/>
        <pt x="383" y="628" on="0"/>
        <pt x="381" y="652" on="1"/>
        <pt x="385" y="657" on="1"/>
        <pt x="451" y="657" on="0"/>
        <pt x="493" y="666" on="1"/>
        <pt x="455" y="555" on="0"/>
        <pt x="345" y="432" on="1"/>
        <pt x="260" y="337" on="0"/>
        <pt x="129" y="215" on="1"/>
        <pt x="152" y="126" on="0"/>
        <pt x="250" y="45" on="0"/>
        <pt x="340" y="45" on="1"/>
        <pt x="386" y="45" on="0"/>
        <pt x="415" y="61" on="1"/>
        <pt x="448" y="94" on="0"/>
        <pt x="486" y="203" on="0"/>
        <pt x="486" y="299" on="0"/>
        <pt x="477" y="322" on="1"/>
        <pt x="396" y="320" on="0"/>
        <pt x="354" y="289" on="1"/>
        <pt x="347" y="275" on="0"/>
        <pt x="347" y="215" on="0"/>
        <pt x="357" y="204" on="1"/>
        <pt x="356" y="197" on="1"/>
        <pt x="331" y="182" on="0"/>
        <pt x="306" y="155" on="1"/>
        <pt x="294" y="156" on="0"/>
        <pt x="279" y="174" on="0"/>
        <pt x="279" y="186" on="1"/>
        <pt x="279" y="243" on="0"/>
        <pt x="386" y="359" on="0"/>
        <pt x="448" y="382" on="1"/>
        <pt x="553" y="372" on="0"/>
        <pt x="582" y="372" on="1"/>
        <pt x="665" y="372" on="0"/>
        <pt x="709" y="405" on="1"/>
        <pt x="716" y="419" on="0"/>
        <pt x="716" y="479" on="0"/>
        <pt x="706" y="490" on="1"/>
        <pt x="707" y="497" on="1"/>
        <pt x="732" y="512" on="0"/>
        <pt x="757" y="539" on="1"/>
        <pt x="769" y="538" on="0"/>
        <pt x="784" y="520" on="0"/>
        <pt x="784" y="508" on="1"/>
        <pt x="784" y="451" on="0"/>
        <pt x="677" y="335" on="0"/>
        <pt x="615" y="312" on="1"/>
        <pt x="551" y="318" on="1"/>
        <pt x="550" y="197" on="0"/>
        <pt x="437" y="22" on="0"/>
        <pt x="328" y="-15" on="1"/>
        <pt x="189" y="-15" on="0"/>
        <pt x="48" y="142" on="0"/>
      </contour>
      <contour>
        <pt x="141" y="492" on="0"/>
        <pt x="113" y="385" on="0"/>
        <pt x="113" y="286" on="0"/>
        <pt x="121" y="250" on="1"/>
        <pt x="194" y="323" on="0"/>
        <pt x="242" y="377" on="1"/>
        <pt x="208" y="431" on="0"/>
        <pt x="168" y="515" on="1"/>
      </contour>
    </TTGlyph>
    <TTGlyph name="aring" xMin="48" yMin="-15" xMax="477" yMax="706">
      <contour>
        <pt x="48" y="143" on="1"/>
        <pt x="48" y="251" on="0"/>
        <pt x="143" y="447" on="0"/>
        <pt x="230" y="485" on="1"/>
        <pt x="280" y="485" on="0"/>
        <pt x="334" y="450" on="1"/>
        <pt x="350" y="489" on="0"/>
        <pt x="370" y="517" on="1"/>
        <pt x="384" y="513" on="1"/>
        <pt x="352" y="428" on="0"/>
        <pt x="352" y="234" on="1"/>
        <pt x="352" y="117" on="0"/>
        <pt x="360" y="70" on="1"/>
        <pt x="390" y="96" on="0"/>
        <pt x="448" y="201" on="0"/>
        <pt x="463" y="247" on="1"/>
        <pt x="477" y="244" on="1"/>
        <pt x="458" y="167" on="0"/>
        <pt x="384" y="23" on="0"/>
        <pt x="333" y="-15" on="1"/>
        <pt x="303" y="-4" on="0"/>
        <pt x="283" y="67" on="0"/>
        <pt x="283" y="167" on="1"/>
        <pt x="288" y="208" on="0"/>
        <pt x="297" y="241" on="1"/>
        <pt x="287" y="242" on="1"/>
        <pt x="269" y="164" on="0"/>
        <pt x="188" y="19" on="0"/>
        <pt x="132" y="-15" on="1"/>
        <pt x="90" y="-8" on="0"/>
        <pt x="48" y="88" on="0"/>
      </contour>
      <contour>
        <pt x="119" y="174" on="1"/>
        <pt x="119" y="141" on="0"/>
        <pt x="136" y="74" on="0"/>
        <pt x="156" y="67" on="1"/>
        <pt x="205" y="102" on="0"/>
        <pt x="291" y="320" on="0"/>
        <pt x="291" y="388" on="1"/>
        <pt x="256" y="423" on="0"/>
        <pt x="205" y="423" on="1"/>
        <pt x="178" y="423" on="0"/>
        <pt x="164" y="409" on="1"/>
        <pt x="119" y="315" on="0"/>
      </contour>
      <contour>
        <pt x="295" y="644" on="0"/>
        <pt x="267" y="671" on="0"/>
        <pt x="225" y="671" on="0"/>
        <pt x="213" y="662" on="1"/>
        <pt x="196" y="642" on="0"/>
        <pt x="196" y="609" on="1"/>
        <pt x="196" y="560" on="0"/>
        <pt x="247" y="560" on="1"/>
        <pt x="268" y="560" on="0"/>
        <pt x="278" y="569" on="1"/>
        <pt x="295" y="589" on="0"/>
      </contour>
      <contour>
        <pt x="197" y="525" on="0"/>
        <pt x="146" y="558" on="0"/>
        <pt x="146" y="631" on="0"/>
        <pt x="213" y="692" on="0"/>
        <pt x="262" y="706" on="1"/>
        <pt x="345" y="706" on="0"/>
        <pt x="345" y="645" on="1"/>
        <pt x="345" y="601" on="0"/>
        <pt x="282" y="539" on="0"/>
        <pt x="235" y="525" on="1"/>
      </contour>
    </TTGlyph>
    <TTGlyph name="asciicircum" xMin="50" yMin="291" xMax="468" yMax="696">
      <contour>
        <pt x="259" y="580" on="1"/>
        <pt x="79" y="291" on="1"/>
        <pt x="50" y="306" on="1"/>
        <pt x="142" y="464" on="0"/>
        <pt x="231" y="686" on="1"/>
        <pt x="284" y="696" on="1"/>
        <pt x="379" y="458" on="0"/>
        <pt x="468" y="306" on="1"/>
        <pt x="439" y="291" on="1"/>
      </contour>
    </TTGlyph>
    <TTGlyph name="asciitilde" xMin="48" yMin="193" xMax="522" yMax="323">
      <contour>
        <pt x="387" y="258" on="1"/>
        <pt x="445" y="258" on="0"/>
        <pt x="506" y="317" on="1"/>
        <pt x="522" y="304" on="1"/>
        <pt x="499" y="268" on="0"/>
        <pt x="408" y="205" on="0"/>
        <pt x="365" y="193" on="1"/>
        <pt x="334" y="193" on="0"/>
        <pt x="197" y="254" on="0"/>
        <pt x="166" y="254" on="1"/>
        <pt x="107" y="254" on="0"/>
        <pt x="64" y="199" on="1"/>
        <pt x="48" y="212" on="1"/>
        <pt x="74" y="251" on="0"/>
        <pt x="171" y="318" on="0"/>
        <pt x="215" y="323" on="1"/>
        <pt x="311" y="258" on="0"/>
      </contour>
    </TTGlyph>
    <TTGlyph name="asterisk" xMin="43" yMin="383" xMax="326" yMax="711">
      <contour>
        <pt x="210" y="672" on="1"/>
        <pt x="236" y="678" on="1"/>
        <pt x="238" y="676" on="1"/>
        <pt x="206" y="627" on="0"/>
        <pt x="196" y="564" on="1"/>
        <pt x="249" y="603" on="0"/>
        <pt x="276" y="651" on="1"/>
        <pt x="279" y="651" on="1"/>
        <pt x="282" y="646" on="0"/>
        <pt x="285" y="625" on="1"/>
        <pt x="310" y="630" on="0"/>
        <pt x="324" y="630" on="0"/>
        <pt x="326" y="629" on="1"/>
        <pt x="326" y="623" on="0"/>
        <pt x="300" y="594" on="1"/>
        <pt x="316" y="574" on="1"/>
        <pt x="315" y="572" on="1"/>
        <pt x="312" y="572" on="0"/>
        <pt x="308" y="572" on="1"/>
        <pt x="262" y="572" on="0"/>
        <pt x="202" y="547" on="1"/>
        <pt x="255" y="522" on="0"/>
        <pt x="305" y="522" on="1"/>
        <pt x="308" y="522" on="0"/>
        <pt x="312" y="522" on="1"/>
        <pt x="313" y="520" on="1"/>
        <pt x="293" y="500" on="1"/>
        <pt x="316" y="470" on="0"/>
        <pt x="316" y="465" on="1"/>
        <pt x="315" y="464" on="0"/>
        <pt x="301" y="464" on="0"/>
        <pt x="274" y="469" on="1"/>
        <pt x="266" y="445" on="0"/>
        <pt x="265" y="443" on="1"/>
        <pt x="262" y="443" on="1"/>
        <pt x="241" y="490" on="0"/>
        <pt x="194" y="530" on="1"/>
        <pt x="196" y="465" on="0"/>
        <pt x="220" y="418" on="1"/>
        <pt x="219" y="416" on="1"/>
        <pt x="194" y="422" on="1"/>
        <pt x="177" y="385" on="0"/>
        <pt x="173" y="383" on="1"/>
        <pt x="169" y="385" on="0"/>
        <pt x="159" y="422" on="1"/>
        <pt x="134" y="416" on="1"/>
        <pt x="132" y="418" on="1"/>
        <pt x="163" y="468" on="0"/>
        <pt x="174" y="530" on="1"/>
        <pt x="124" y="493" on="0"/>
        <pt x="93" y="443" on="1"/>
        <pt x="90" y="443" on="1"/>
        <pt x="84" y="469" on="1"/>
        <pt x="59" y="464" on="0"/>
        <pt x="45" y="464" on="0"/>
        <pt x="43" y="465" on="1"/>
        <pt x="43" y="467" on="0"/>
        <pt x="69" y="500" on="1"/>
        <pt x="53" y="520" on="1"/>
        <pt x="54" y="522" on="1"/>
        <pt x="58" y="522" on="0"/>
        <pt x="61" y="522" on="1"/>
        <pt x="111" y="522" on="0"/>
        <pt x="167" y="547" on="1"/>
        <pt x="109" y="572" on="0"/>
        <pt x="61" y="572" on="1"/>
        <pt x="59" y="572" on="0"/>
        <pt x="57" y="572" on="1"/>
        <pt x="57" y="574" on="1"/>
        <pt x="76" y="594" on="1"/>
        <pt x="74" y="597" on="0"/>
        <pt x="68" y="605" on="1"/>
        <pt x="53" y="623" on="0"/>
        <pt x="53" y="629" on="1"/>
        <pt x="54" y="630" on="0"/>
        <pt x="69" y="630" on="0"/>
        <pt x="95" y="625" on="1"/>
        <pt x="103" y="650" on="0"/>
        <pt x="104" y="651" on="1"/>
        <pt x="107" y="651" on="1"/>
        <pt x="130" y="602" on="0"/>
        <pt x="176" y="564" on="1"/>
        <pt x="172" y="631" on="0"/>
        <pt x="149" y="676" on="1"/>
        <pt x="151" y="678" on="1"/>
        <pt x="175" y="672" on="1"/>
        <pt x="192" y="708" on="0"/>
        <pt x="196" y="711" on="1"/>
        <pt x="200" y="709" on="0"/>
      </contour>
    </TTGlyph>
    <TTGlyph name="at" xMin="38" yMin="-190" xMax="794" yMax="666">
      <contour>
        <pt x="252" y="143" on="1"/>
        <pt x="252" y="251" on="0"/>
        <pt x="347" y="447" on="0"/>
        <pt x="434" y="485" on="1"/>
        <pt x="484" y="485" on="0"/>
        <pt x="538" y="450" on="1"/>
        <pt x="554" y="489" on="0"/>
        <pt x="574" y="517" on="1"/>
        <pt x="588" y="513" on="1"/>
        <pt x="556" y="428" on="0"/>
        <pt x="556" y="88" on="0"/>
        <pt x="573" y="31" on="1"/>
        <pt x="649" y="73" on="0"/>
        <pt x="728" y="266" on="0"/>
        <pt x="728" y="363" on="1"/>
        <pt x="728" y="616" on="0"/>
        <pt x="463" y="616" on="1"/>
        <pt x="358" y="616" on="0"/>
        <pt x="285" y="570" on="1"/>
        <pt x="203" y="496" on="0"/>
        <pt x="106" y="238" on="0"/>
        <pt x="106" y="-1" on="0"/>
        <pt x="231" y="-140" on="0"/>
        <pt x="344" y="-140" on="1"/>
        <pt x="406" y="-140" on="0"/>
        <pt x="464" y="-118" on="1"/>
        <pt x="470" y="-131" on="1"/>
        <pt x="409" y="-173" on="0"/>
        <pt x="332" y="-190" on="1"/>
        <pt x="192" y="-190" on="0"/>
        <pt x="38" y="-42" on="0"/>
        <pt x="38" y="241" on="0"/>
        <pt x="132" y="479" on="0"/>
        <pt x="327" y="644" on="0"/>
        <pt x="465" y="666" on="1"/>
        <pt x="616" y="666" on="0"/>
        <pt x="794" y="533" on="0"/>
        <pt x="794" y="255" on="0"/>
        <pt x="659" y="29" on="0"/>
        <pt x="537" y="-15" on="1"/>
        <pt x="507" y="-4" on="0"/>
        <pt x="487" y="67" on="0"/>
        <pt x="487" y="167" on="1"/>
        <pt x="492" y="208" on="0"/>
        <pt x="501" y="241" on="1"/>
        <pt x="491" y="242" on="1"/>
        <pt x="473" y="164" on="0"/>
        <pt x="392" y="19" on="0"/>
        <pt x="336" y="-15" on="1"/>
        <pt x="294" y="-8" on="0"/>
        <pt x="252" y="88" on="0"/>
      </contour>
      <contour>
        <pt x="323" y="174" on="1"/>
        <pt x="323" y="141" on="0"/>
        <pt x="340" y="74" on="0"/>
        <pt x="360" y="67" on="1"/>
        <pt x="409" y="102" on="0"/>
        <pt x="495" y="320" on="0"/>
        <pt x="495" y="388" on="1"/>
        <pt x="460" y="423" on="0"/>
        <pt x="409" y="423" on="1"/>
        <pt x="382" y="423" on="0"/>
        <pt x="368" y="409" on="1"/>
        <pt x="323" y="315" on="0"/>
      </contour>
    </TTGlyph>
    <TTGlyph name="atilde" xMin="48" yMin="-15" xMax="477" yMax="667">
      <contour>
        <pt x="216" y="667" on="1"/>
        <pt x="267" y="634" on="0"/>
        <pt x="355" y="634" on="0"/>
        <pt x="378" y="658" on="1"/>
        <pt x="394" y="646" on="1"/>
        <pt x="356" y="593" on="0"/>
        <pt x="298" y="569" on="1"/>
        <pt x="280" y="569" on="0"/>
        <pt x="188" y="602" on="0"/>
        <pt x="170" y="602" on="1"/>
        <pt x="136" y="602" on="0"/>
        <pt x="114" y="578" on="1"/>
        <pt x="97" y="590" on="1"/>
        <pt x="135" y="642" on="0"/>
      </contour>
      <contour>
        <pt x="48" y="143" on="1"/>
        <pt x="48" y="251" on="0"/>
        <pt x="143" y="447" on="0"/>
        <pt x="230" y="485" on="1"/>
        <pt x="280" y="485" on="0"/>
        <pt x="334" y="450" on="1"/>
        <pt x="350" y="489" on="0"/>
        <pt x="370" y="517" on="1"/>
        <pt x="384" y="513" on="1"/>
        <pt x="352" y="428" on="0"/>
        <pt x="352" y="234" on="1"/>
        <pt x="352" y="117" on="0"/>
        <pt x="360" y="70" on="1"/>
        <pt x="390" y="96" on="0"/>
        <pt x="448" y="201" on="0"/>
        <pt x="463" y="247" on="1"/>
        <pt x="477" y="244" on="1"/>
        <pt x="458" y="167" on="0"/>
        <pt x="384" y="23" on="0"/>
        <pt x="333" y="-15" on="1"/>
        <pt x="303" y="-4" on="0"/>
        <pt x="283" y="67" on="0"/>
        <pt x="283" y="167" on="1"/>
        <pt x="288" y="208" on="0"/>
        <pt x="297" y="241" on="1"/>
        <pt x="287" y="242" on="1"/>
        <pt x="269" y="164" on="0"/>
        <pt x="188" y="19" on="0"/>
        <pt x="132" y="-15" on="1"/>
        <pt x="90" y="-8" on="0"/>
        <pt x="48" y="88" on="0"/>
      </contour>
      <contour>
        <pt x="119" y="174" on="1"/>
        <pt x="119" y="141" on="0"/>
        <pt x="136" y="74" on="0"/>
        <pt x="156" y="67" on="1"/>
        <pt x="205" y="102" on="0"/>
        <pt x="291" y="320" on="0"/>
        <pt x="291" y="388" on="1"/>
        <pt x="256" y="423" on="0"/>
        <pt x="205" y="423" on="1"/>
        <pt x="178" y="423" on="0"/>
        <pt x="164" y="409" on="1"/>
        <pt x="119" y="315" on="0"/>
      </contour>
    </TTGlyph>
    <TTGlyph name="b" xMin="4" yMin="-15" xMax="390" yMax="703">
      <contour>
        <pt x="390" y="347" on="1"/>
        <pt x="390" y="238" on="0"/>
        <pt x="300" y="39" on="0"/>
        <pt x="216" y="-15" on="1"/>
        <pt x="191" y="-7" on="1"/>
        <pt x="134" y="11" on="0"/>
        <pt x="78" y="11" on="0"/>
        <pt x="58" y="7" on="1"/>
        <pt x="52" y="20" on="1"/>
        <pt x="73" y="42" on="0"/>
        <pt x="87" y="164" on="0"/>
        <pt x="88" y="303" on="1"/>
        <pt x="89" y="442" on="1"/>
        <pt x="89" y="561" on="0"/>
        <pt x="82" y="628" on="1"/>
        <pt x="44" y="631" on="0"/>
        <pt x="4" y="642" on="1"/>
        <pt x="4" y="656" on="1"/>
        <pt x="105" y="656" on="0"/>
        <pt x="195" y="703" on="1"/>
        <pt x="203" y="690" on="1"/>
        <pt x="180" y="669" on="0"/>
        <pt x="158" y="600" on="0"/>
        <pt x="155" y="544" on="0"/>
        <pt x="155" y="489" on="1"/>
        <pt x="155" y="303" on="1"/>
        <pt x="150" y="262" on="0"/>
        <pt x="141" y="229" on="1"/>
        <pt x="151" y="228" on="1"/>
        <pt x="169" y="305" on="0"/>
        <pt x="251" y="451" on="0"/>
        <pt x="308" y="485" on="1"/>
        <pt x="390" y="470" on="0"/>
      </contour>
      <contour>
        <pt x="141" y="79" on="1"/>
        <pt x="206" y="52" on="0"/>
        <pt x="260" y="52" on="0"/>
        <pt x="265" y="56" on="1"/>
        <pt x="292" y="105" on="0"/>
        <pt x="319" y="250" on="0"/>
        <pt x="319" y="393" on="0"/>
        <pt x="282" y="406" on="1"/>
        <pt x="234" y="370" on="0"/>
        <pt x="154" y="173" on="0"/>
        <pt x="141" y="93" on="1"/>
      </contour>
    </TTGlyph>
    <TTGlyph name="backslash" xMin="7" yMin="-45" xMax="259" yMax="717">
      <contour>
        <pt x="216" y="-45" on="1"/>
        <pt x="211" y="-45" on="1"/>
        <pt x="70" y="478" on="1"/>
        <pt x="31" y="623" on="0"/>
        <pt x="7" y="696" on="1"/>
        <pt x="38" y="706" on="0"/>
        <pt x="57" y="717" on="1"/>
        <pt x="61" y="717" on="1"/>
        <pt x="78" y="631" on="0"/>
        <pt x="114" y="493" on="1"/>
        <pt x="201" y="175" on="1"/>
        <pt x="230" y="71" on="0"/>
        <pt x="259" y="-17" on="1"/>
        <pt x="243" y="-34" on="0"/>
      </contour>
    </TTGlyph>
    <TTGlyph name="bar" xMin="89" yMin="-216" xMax="146" yMax="750">
      <contour>
        <pt x="144" y="-199" on="1"/>
        <pt x="126" y="-209" on="0"/>
        <pt x="103" y="-216" on="1"/>
        <pt x="96" y="-213" on="1"/>
        <pt x="96" y="476" on="0"/>
        <pt x="89" y="723" on="1"/>
        <pt x="123" y="737" on="0"/>
        <pt x="141" y="750" on="1"/>
        <pt x="146" y="749" on="1"/>
        <pt x="144" y="607" on="0"/>
      </contour>
    </TTGlyph>
    <TTGlyph name="braceleft" xMin="51" yMin="-215" xMax="266" yMax="711">
      <contour>
        <pt x="176" y="604" on="1"/>
        <pt x="175" y="594" on="0"/>
        <pt x="175" y="537" on="0"/>
        <pt x="202" y="378" on="0"/>
        <pt x="202" y="333" on="0"/>
        <pt x="202" y="329" on="1"/>
        <pt x="184" y="295" on="0"/>
        <pt x="105" y="250" on="1"/>
        <pt x="105" y="246" on="1"/>
        <pt x="178" y="202" on="0"/>
        <pt x="190" y="167" on="1"/>
        <pt x="187" y="128" on="0"/>
        <pt x="129" y="-60" on="0"/>
        <pt x="126" y="-108" on="1"/>
        <pt x="133" y="-135" on="0"/>
        <pt x="177" y="-187" on="0"/>
        <pt x="203" y="-201" on="1"/>
        <pt x="198" y="-215" on="1"/>
        <pt x="151" y="-201" on="0"/>
        <pt x="73" y="-120" on="0"/>
        <pt x="73" y="-79" on="1"/>
        <pt x="73" y="-44" on="0"/>
        <pt x="119" y="152" on="0"/>
        <pt x="119" y="189" on="1"/>
        <pt x="119" y="208" on="0"/>
        <pt x="81" y="232" on="0"/>
        <pt x="54" y="236" on="1"/>
        <pt x="51" y="255" on="1"/>
        <pt x="125" y="271" on="0"/>
        <pt x="127" y="309" on="1"/>
        <pt x="128" y="325" on="0"/>
        <pt x="128" y="384" on="0"/>
        <pt x="117" y="500" on="0"/>
        <pt x="117" y="556" on="0"/>
        <pt x="118" y="569" on="1"/>
        <pt x="122" y="613" on="0"/>
        <pt x="214" y="697" on="0"/>
        <pt x="263" y="711" on="1"/>
        <pt x="266" y="697" on="1"/>
        <pt x="238" y="683" on="0"/>
        <pt x="186" y="631" on="0"/>
      </contour>
    </TTGlyph>
    <TTGlyph name="braceright" xMin="34" yMin="-215" xMax="250" yMax="711">
      <contour>
        <pt x="227" y="569" on="1"/>
        <pt x="224" y="521" on="0"/>
        <pt x="182" y="343" on="0"/>
        <pt x="182" y="272" on="0"/>
        <pt x="250" y="255" on="1"/>
        <pt x="245" y="236" on="1"/>
        <pt x="177" y="225" on="0"/>
        <pt x="174" y="187" on="1"/>
        <pt x="173" y="174" on="0"/>
        <pt x="173" y="116" on="0"/>
        <pt x="183" y="3" on="0"/>
        <pt x="183" y="-57" on="0"/>
        <pt x="182" y="-73" on="1"/>
        <pt x="179" y="-117" on="0"/>
        <pt x="87" y="-201" on="0"/>
        <pt x="37" y="-215" on="1"/>
        <pt x="34" y="-201" on="1"/>
        <pt x="62" y="-187" on="0"/>
        <pt x="114" y="-135" on="0"/>
        <pt x="125" y="-108" on="1"/>
        <pt x="125" y="-101" on="0"/>
        <pt x="125" y="-46" on="0"/>
        <pt x="99" y="112" on="0"/>
        <pt x="99" y="161" on="0"/>
        <pt x="99" y="167" on="1"/>
        <pt x="115" y="200" on="0"/>
        <pt x="196" y="246" on="1"/>
        <pt x="196" y="250" on="1"/>
        <pt x="122" y="295" on="0"/>
        <pt x="111" y="329" on="1"/>
        <pt x="113" y="369" on="0"/>
        <pt x="171" y="557" on="0"/>
        <pt x="175" y="604" on="1"/>
        <pt x="168" y="631" on="0"/>
        <pt x="123" y="683" on="0"/>
        <pt x="97" y="697" on="1"/>
        <pt x="102" y="711" on="1"/>
        <pt x="149" y="697" on="0"/>
        <pt x="227" y="617" on="0"/>
        <pt x="227" y="577" on="1"/>
        <pt x="227" y="573" on="0"/>
      </contour>
    </TTGlyph>
    <TTGlyph name="bracketleft" xMin="68" yMin="-208" xMax="333" yMax="704">
      <contour>
        <pt x="245" y="-193" on="1"/>
        <pt x="137" y="-193" on="0"/>
        <pt x="75" y="-208" on="1"/>
        <pt x="68" y="-203" on="1"/>
        <pt x="84" y="-133" on="0"/>
        <pt x="132" y="574" on="0"/>
        <pt x="132" y="689" on="0"/>
        <pt x="131" y="699" on="1"/>
        <pt x="139" y="704" on="1"/>
        <pt x="199" y="689" on="0"/>
        <pt x="307" y="689" on="1"/>
        <pt x="320" y="689" on="0"/>
        <pt x="333" y="689" on="1"/>
        <pt x="331" y="668" on="1"/>
        <pt x="254" y="666" on="0"/>
        <pt x="198" y="651" on="1"/>
        <pt x="142" y="-155" on="1"/>
        <pt x="194" y="-170" on="0"/>
        <pt x="272" y="-172" on="1"/>
        <pt x="271" y="-193" on="1"/>
        <pt x="258" y="-193" on="0"/>
      </contour>
    </TTGlyph>
    <TTGlyph name="bracketright" xMin="-14" yMin="-208" xMax="250" yMax="704">
      <contour>
        <pt x="74" y="689" on="1"/>
        <pt x="182" y="689" on="0"/>
        <pt x="244" y="704" on="1"/>
        <pt x="250" y="699" on="1"/>
        <pt x="235" y="625" on="0"/>
        <pt x="186" y="-85" on="0"/>
        <pt x="186" y="-194" on="0"/>
        <pt x="187" y="-203" on="1"/>
        <pt x="180" y="-208" on="1"/>
        <pt x="120" y="-193" on="0"/>
        <pt x="12" y="-193" on="1"/>
        <pt x="-1" y="-193" on="0"/>
        <pt x="-14" y="-193" on="1"/>
        <pt x="-13" y="-172" on="1"/>
        <pt x="65" y="-170" on="0"/>
        <pt x="121" y="-155" on="1"/>
        <pt x="177" y="651" on="1"/>
        <pt x="125" y="666" on="0"/>
        <pt x="46" y="668" on="1"/>
        <pt x="48" y="689" on="1"/>
        <pt x="61" y="689" on="0"/>
      </contour>
    </TTGlyph>
    <TTGlyph name="brokenbar" xMin="94" yMin="-215" xMax="151" yMax="752">
      <contour>
        <pt x="149" y="340" on="1"/>
        <pt x="131" y="330" on="0"/>
        <pt x="108" y="323" on="1"/>
        <pt x="101" y="326" on="1"/>
        <pt x="100" y="508" on="0"/>
        <pt x="94" y="725" on="1"/>
        <pt x="128" y="739" on="0"/>
        <pt x="146" y="752" on="1"/>
        <pt x="151" y="751" on="1"/>
        <pt x="149" y="609" on="0"/>
      </contour>
      <contour>
        <pt x="149" y="-198" on="1"/>
        <pt x="131" y="-208" on="0"/>
        <pt x="108" y="-215" on="1"/>
        <pt x="101" y="-212" on="1"/>
        <pt x="100" y="-30" on="0"/>
        <pt x="94" y="187" on="1"/>
        <pt x="128" y="201" on="0"/>
        <pt x="146" y="214" on="1"/>
        <pt x="151" y="213" on="1"/>
        <pt x="149" y="71" on="0"/>
      </contour>
    </TTGlyph>
    <TTGlyph name="bullet" xMin="46" yMin="141" xMax="291" yMax="407">
      <contour>
        <pt x="291" y="288" on="1"/>
        <pt x="289" y="274" on="1"/>
        <pt x="205" y="211" on="0"/>
        <pt x="161" y="141" on="1"/>
        <pt x="143" y="141" on="1"/>
        <pt x="116" y="211" on="0"/>
        <pt x="46" y="273" on="1"/>
        <pt x="48" y="287" on="1"/>
        <pt x="93" y="316" on="0"/>
        <pt x="150" y="368" on="0"/>
        <pt x="175" y="407" on="1"/>
        <pt x="193" y="407" on="1"/>
        <pt x="210" y="368" on="0"/>
        <pt x="254" y="317" on="0"/>
      </contour>
    </TTGlyph>
    <TTGlyph name="c" xMin="47" yMin="-15" xMax="348" yMax="485">
      <contour>
        <pt x="47" y="157" on="1"/>
        <pt x="47" y="258" on="0"/>
        <pt x="129" y="436" on="0"/>
        <pt x="208" y="485" on="1"/>
        <pt x="257" y="467" on="0"/>
        <pt x="329" y="467" on="0"/>
        <pt x="342" y="471" on="1"/>
        <pt x="348" y="456" on="1"/>
        <pt x="307" y="422" on="0"/>
        <pt x="307" y="313" on="1"/>
        <pt x="293" y="313" on="1"/>
        <pt x="282" y="353" on="0"/>
        <pt x="279" y="390" on="1"/>
        <pt x="252" y="401" on="1"/>
        <pt x="205" y="420" on="0"/>
        <pt x="169" y="425" on="1"/>
        <pt x="118" y="328" on="0"/>
        <pt x="118" y="90" on="0"/>
        <pt x="190" y="61" on="1"/>
        <pt x="265" y="115" on="0"/>
        <pt x="302" y="214" on="1"/>
        <pt x="325" y="205" on="1"/>
        <pt x="303" y="139" on="0"/>
        <pt x="219" y="19" on="0"/>
        <pt x="165" y="-15" on="1"/>
        <pt x="108" y="-4" on="0"/>
        <pt x="47" y="93" on="0"/>
      </contour>
    </TTGlyph>
    <TTGlyph name="caron" xMin="0" yMin="538" xMax="246" yMax="705">
      <contour>
        <pt x="126" y="626" on="1"/>
        <pt x="235" y="705" on="1"/>
        <pt x="246" y="689" on="1"/>
        <pt x="159" y="616" on="0"/>
        <pt x="118" y="538" on="1"/>
        <pt x="96" y="538" on="1"/>
        <pt x="77" y="591" on="0"/>
        <pt x="36" y="658" on="0"/>
        <pt x="0" y="691" on="1"/>
        <pt x="15" y="703" on="1"/>
      </contour>
    </TTGlyph>
    <TTGlyph name="caron.cap" xMin="0" yMin="718" xMax="274" yMax="885">
      <contour>
        <pt x="140" y="806" on="1"/>
        <pt x="263" y="885" on="1"/>
        <pt x="274" y="869" on="1"/>
        <pt x="178" y="797" on="0"/>
        <pt x="132" y="718" on="1"/>
        <pt x="110" y="718" on="1"/>
        <pt x="77" y="807" on="0"/>
        <pt x="0" y="871" on="1"/>
        <pt x="15" y="883" on="1"/>
      </contour>
    </TTGlyph>
    <TTGlyph name="ccedilla" xMin="47" yMin="-215" xMax="348" yMax="485">
      <contour>
        <pt x="47" y="157" on="1"/>
        <pt x="47" y="258" on="0"/>
        <pt x="129" y="436" on="0"/>
        <pt x="208" y="485" on="1"/>
        <pt x="257" y="467" on="0"/>
        <pt x="329" y="467" on="0"/>
        <pt x="342" y="471" on="1"/>
        <pt x="348" y="456" on="1"/>
        <pt x="307" y="422" on="0"/>
        <pt x="307" y="313" on="1"/>
        <pt x="293" y="313" on="1"/>
        <pt x="282" y="353" on="0"/>
        <pt x="279" y="390" on="1"/>
        <pt x="252" y="401" on="1"/>
        <pt x="205" y="420" on="0"/>
        <pt x="169" y="425" on="1"/>
        <pt x="118" y="328" on="0"/>
        <pt x="118" y="90" on="0"/>
        <pt x="190" y="61" on="1"/>
        <pt x="265" y="115" on="0"/>
        <pt x="302" y="214" on="1"/>
        <pt x="325" y="205" on="1"/>
        <pt x="303" y="139" on="0"/>
        <pt x="219" y="19" on="0"/>
        <pt x="165" y="-15" on="1"/>
        <pt x="108" y="-4" on="0"/>
        <pt x="47" y="93" on="0"/>
      </contour>
      <contour>
        <pt x="257" y="-119" on="1"/>
        <pt x="257" y="-126" on="0"/>
        <pt x="256" y="-133" on="1"/>
        <pt x="216" y="-195" on="0"/>
        <pt x="155" y="-215" on="1"/>
        <pt x="111" y="-215" on="0"/>
        <pt x="71" y="-194" on="1"/>
        <pt x="85" y="-170" on="0"/>
        <pt x="91" y="-155" on="1"/>
        <pt x="95" y="-153" on="1"/>
        <pt x="124" y="-178" on="0"/>
        <pt x="160" y="-178" on="1"/>
        <pt x="178" y="-178" on="0"/>
        <pt x="186" y="-173" on="1"/>
        <pt x="199" y="-158" on="0"/>
        <pt x="199" y="-112" on="0"/>
        <pt x="158" y="-97" on="0"/>
        <pt x="122" y="-97" on="1"/>
        <pt x="116" y="-93" on="1"/>
        <pt x="177" y="14" on="1"/>
        <pt x="206" y="16" on="1"/>
        <pt x="172" y="-46" on="1"/>
        <pt x="175" y="-49" on="1"/>
        <pt x="216" y="-49" on="0"/>
        <pt x="257" y="-90" on="0"/>
      </contour>
    </TTGlyph>
    <TTGlyph name="cedilla" xMin="0" yMin="-215" xMax="186" yMax="16">
      <contour>
        <pt x="186" y="-119" on="1"/>
        <pt x="186" y="-126" on="0"/>
        <pt x="185" y="-133" on="1"/>
        <pt x="145" y="-195" on="0"/>
        <pt x="84" y="-215" on="1"/>
        <pt x="40" y="-215" on="0"/>
        <pt x="0" y="-194" on="1"/>
        <pt x="14" y="-170" on="0"/>
        <pt x="20" y="-155" on="1"/>
        <pt x="24" y="-153" on="1"/>
        <pt x="53" y="-178" on="0"/>
        <pt x="89" y="-178" on="1"/>
        <pt x="107" y="-178" on="0"/>
        <pt x="115" y="-173" on="1"/>
        <pt x="128" y="-158" on="0"/>
        <pt x="128" y="-112" on="0"/>
        <pt x="87" y="-97" on="0"/>
        <pt x="51" y="-97" on="1"/>
        <pt x="45" y="-93" on="1"/>
        <pt x="106" y="14" on="1"/>
        <pt x="135" y="16" on="1"/>
        <pt x="101" y="-46" on="1"/>
        <pt x="104" y="-49" on="1"/>
        <pt x="145" y="-49" on="0"/>
        <pt x="186" y="-90" on="0"/>
      </contour>
    </TTGlyph>
    <TTGlyph name="cent" xMin="47" yMin="-92" xMax="348" yMax="594">
      <contour>
        <pt x="252" y="416" on="1"/>
        <pt x="220" y="427" on="1"/>
        <pt x="196" y="81" on="1"/>
        <pt x="267" y="135" on="0"/>
        <pt x="302" y="229" on="1"/>
        <pt x="325" y="220" on="1"/>
        <pt x="283" y="92" on="0"/>
        <pt x="192" y="19" on="1"/>
        <pt x="187" y="-91" on="1"/>
        <pt x="182" y="-92" on="1"/>
        <pt x="166" y="-87" on="0"/>
        <pt x="155" y="-77" on="1"/>
        <pt x="165" y="0" on="1"/>
        <pt x="108" y="11" on="0"/>
        <pt x="47" y="108" on="0"/>
        <pt x="47" y="172" on="1"/>
        <pt x="47" y="269" on="0"/>
        <pt x="124" y="443" on="0"/>
        <pt x="197" y="493" on="1"/>
        <pt x="202" y="588" on="1"/>
        <pt x="217" y="590" on="0"/>
        <pt x="230" y="594" on="1"/>
        <pt x="234" y="591" on="1"/>
        <pt x="230" y="562" on="0"/>
        <pt x="225" y="494" on="1"/>
        <pt x="271" y="482" on="0"/>
        <pt x="329" y="482" on="0"/>
        <pt x="342" y="486" on="1"/>
        <pt x="348" y="471" on="1"/>
        <pt x="307" y="437" on="0"/>
        <pt x="307" y="328" on="1"/>
        <pt x="293" y="328" on="1"/>
        <pt x="282" y="368" on="0"/>
        <pt x="279" y="405" on="1"/>
      </contour>
      <contour>
        <pt x="118" y="218" on="1"/>
        <pt x="118" y="123" on="0"/>
        <pt x="170" y="87" on="1"/>
        <pt x="193" y="435" on="1"/>
        <pt x="169" y="440" on="1"/>
        <pt x="118" y="343" on="0"/>
      </contour>
    </TTGlyph>
    <TTGlyph name="circumflex" xMin="0" yMin="538" xMax="246" yMax="705">
      <contour>
        <pt x="120" y="617" on="1"/>
        <pt x="11" y="538" on="1"/>
        <pt x="0" y="554" on="1"/>
        <pt x="87" y="627" on="0"/>
        <pt x="128" y="705" on="1"/>
        <pt x="150" y="705" on="1"/>
        <pt x="169" y="652" on="0"/>
        <pt x="210" y="585" on="0"/>
        <pt x="246" y="552" on="1"/>
        <pt x="231" y="540" on="1"/>
      </contour>
    </TTGlyph>
    <TTGlyph name="circumflex.cap" xMin="0" yMin="718" xMax="274" yMax="885">
      <contour>
        <pt x="134" y="797" on="1"/>
        <pt x="11" y="718" on="1"/>
        <pt x="0" y="734" on="1"/>
        <pt x="96" y="806" on="0"/>
        <pt x="142" y="885" on="1"/>
        <pt x="164" y="885" on="1"/>
        <pt x="197" y="796" on="0"/>
        <pt x="274" y="732" on="1"/>
        <pt x="259" y="720" on="1"/>
      </contour>
    </TTGlyph>
    <TTGlyph name="colon" xMin="46" yMin="-15" xMax="173" yMax="485">
      <contour>
        <pt x="154" y="53" on="1"/>
        <pt x="145" y="38" on="0"/>
        <pt x="108" y="-6" on="0"/>
        <pt x="94" y="-15" on="1"/>
        <pt x="70" y="2" on="0"/>
        <pt x="46" y="53" on="1"/>
        <pt x="53" y="66" on="0"/>
        <pt x="91" y="100" on="0"/>
        <pt x="105" y="108" on="1"/>
        <pt x="130" y="92" on="0"/>
      </contour>
      <contour>
        <pt x="173" y="430" on="1"/>
        <pt x="164" y="415" on="0"/>
        <pt x="127" y="371" on="0"/>
        <pt x="113" y="362" on="1"/>
        <pt x="89" y="379" on="0"/>
        <pt x="65" y="430" on="1"/>
        <pt x="72" y="443" on="0"/>
        <pt x="110" y="477" on="0"/>
        <pt x="124" y="485" on="1"/>
        <pt x="149" y="469" on="0"/>
      </contour>
    </TTGlyph>
    <TTGlyph name="comma" xMin="15" yMin="-139" xMax="159" yMax="108">
      <contour>
        <pt x="159" y="53" on="1"/>
        <pt x="150" y="0" on="0"/>
        <pt x="71" y="-108" on="0"/>
        <pt x="23" y="-139" on="1"/>
        <pt x="15" y="-129" on="1"/>
        <pt x="76" y="-68" on="0"/>
        <pt x="87" y="0" on="1"/>
        <pt x="62" y="25" on="0"/>
        <pt x="50" y="53" on="1"/>
        <pt x="59" y="67" on="0"/>
        <pt x="98" y="101" on="0"/>
        <pt x="111" y="108" on="1"/>
        <pt x="122" y="101" on="0"/>
        <pt x="152" y="66" on="0"/>
      </contour>
    </TTGlyph>
    <TTGlyph name="commaaccent" xMin="0" yMin="-215" xMax="121" yMax="-31">
      <contour>
        <pt x="77" y="-31" on="1"/>
        <pt x="104" y="-51" on="0"/>
        <pt x="121" y="-84" on="1"/>
        <pt x="109" y="-162" on="0"/>
        <pt x="10" y="-215" on="1"/>
        <pt x="0" y="-202" on="1"/>
        <pt x="47" y="-167" on="0"/>
        <pt x="53" y="-130" on="1"/>
        <pt x="33" y="-111" on="0"/>
        <pt x="18" y="-84" on="1"/>
        <pt x="24" y="-72" on="0"/>
        <pt x="63" y="-38" on="0"/>
      </contour>
    </TTGlyph>
    <TTGlyph name="copyright" xMin="42" yMin="-15" xMax="723" yMax="666">
      <contour>
        <pt x="294" y="261" on="0"/>
        <pt x="333" y="177" on="0"/>
        <pt x="436" y="177" on="0"/>
        <pt x="484" y="221" on="1"/>
        <pt x="496" y="208" on="1"/>
        <pt x="452" y="153" on="0"/>
        <pt x="374" y="119" on="1"/>
        <pt x="299" y="119" on="0"/>
        <pt x="223" y="209" on="0"/>
        <pt x="223" y="366" on="0"/>
        <pt x="320" y="506" on="0"/>
        <pt x="392" y="531" on="1"/>
        <pt x="455" y="531" on="0"/>
        <pt x="512" y="518" on="1"/>
        <pt x="511" y="501" on="1"/>
        <pt x="494" y="499" on="0"/>
        <pt x="487" y="494" on="1"/>
        <pt x="471" y="459" on="0"/>
        <pt x="466" y="411" on="1"/>
        <pt x="448" y="411" on="1"/>
        <pt x="441" y="441" on="0"/>
        <pt x="441" y="464" on="1"/>
        <pt x="413" y="479" on="0"/>
        <pt x="345" y="479" on="0"/>
        <pt x="322" y="463" on="1"/>
        <pt x="294" y="409" on="0"/>
      </contour>
      <contour>
        <pt x="42" y="184" on="0"/>
        <pt x="42" y="466" on="0"/>
        <pt x="241" y="666" on="0"/>
        <pt x="523" y="666" on="0"/>
        <pt x="723" y="466" on="0"/>
        <pt x="723" y="184" on="0"/>
        <pt x="523" y="-15" on="0"/>
        <pt x="241" y="-15" on="0"/>
      </contour>
      <contour>
        <pt x="86" y="448" on="0"/>
        <pt x="86" y="202" on="0"/>
        <pt x="259" y="27" on="0"/>
        <pt x="505" y="27" on="0"/>
        <pt x="679" y="202" on="0"/>
        <pt x="679" y="448" on="0"/>
        <pt x="505" y="624" on="0"/>
        <pt x="259" y="624" on="0"/>
      </contour>
    </TTGlyph>
    <TTGlyph name="currency" xMin="13" yMin="63" xMax="574" yMax="568">
      <contour>
        <pt x="74" y="279" on="1"/>
        <pt x="74" y="362" on="0"/>
        <pt x="136" y="431" on="1"/>
        <pt x="98" y="469" on="0"/>
        <pt x="42" y="521" on="1"/>
        <pt x="49" y="548" on="0"/>
        <pt x="69" y="568" on="1"/>
        <pt x="74" y="568" on="1"/>
        <pt x="172" y="463" on="1"/>
        <pt x="234" y="509" on="0"/>
        <pt x="311" y="523" on="1"/>
        <pt x="391" y="523" on="0"/>
        <pt x="438" y="488" on="1"/>
        <pt x="520" y="568" on="1"/>
        <pt x="563" y="553" on="0"/>
        <pt x="572" y="552" on="1"/>
        <pt x="574" y="548" on="1"/>
        <pt x="468" y="455" on="1"/>
        <pt x="494" y="415" on="0"/>
        <pt x="494" y="357" on="1"/>
        <pt x="494" y="267" on="0"/>
        <pt x="426" y="199" on="1"/>
        <pt x="526" y="97" on="0"/>
        <pt x="541" y="83" on="1"/>
        <pt x="539" y="79" on="1"/>
        <pt x="526" y="77" on="0"/>
        <pt x="485" y="63" on="1"/>
        <pt x="390" y="168" on="1"/>
        <pt x="338" y="130" on="0"/>
        <pt x="271" y="116" on="1"/>
        <pt x="187" y="116" on="0"/>
        <pt x="136" y="151" on="1"/>
        <pt x="39" y="63" on="1"/>
        <pt x="34" y="63" on="1"/>
        <pt x="16" y="85" on="0"/>
        <pt x="13" y="110" on="1"/>
        <pt x="53" y="142" on="0"/>
        <pt x="102" y="185" on="1"/>
        <pt x="74" y="222" on="0"/>
      </contour>
      <contour>
        <pt x="279" y="469" on="1"/>
        <pt x="222" y="469" on="0"/>
        <pt x="187" y="443" on="1"/>
        <pt x="151" y="394" on="0"/>
        <pt x="151" y="250" on="0"/>
        <pt x="220" y="170" on="0"/>
        <pt x="346" y="170" on="0"/>
        <pt x="381" y="196" on="1"/>
        <pt x="418" y="244" on="0"/>
        <pt x="418" y="317" on="1"/>
        <pt x="418" y="469" on="0"/>
      </contour>
    </TTGlyph>
    <TTGlyph name="d" xMin="-6" yMin="-15" xMax="364" yMax="698">
      <contour>
        <pt x="364" y="418" on="1"/>
        <pt x="364" y="308" on="0"/>
        <pt x="251" y="60" on="0"/>
        <pt x="169" y="-15" on="1"/>
        <pt x="49" y="12" on="0"/>
        <pt x="49" y="173" on="1"/>
        <pt x="49" y="260" on="0"/>
        <pt x="132" y="432" on="0"/>
        <pt x="201" y="484" on="1"/>
        <pt x="123" y="536" on="0"/>
        <pt x="20" y="569" on="1"/>
        <pt x="-6" y="578" on="1"/>
        <pt x="3" y="618" on="0"/>
        <pt x="3" y="666" on="0"/>
        <pt x="1" y="696" on="1"/>
        <pt x="17" y="698" on="1"/>
        <pt x="21" y="684" on="0"/>
        <pt x="43" y="647" on="0"/>
        <pt x="114" y="607" on="1"/>
        <pt x="355" y="471" on="1"/>
        <pt x="364" y="447" on="0"/>
      </contour>
      <contour>
        <pt x="163" y="409" on="1"/>
        <pt x="120" y="313" on="0"/>
        <pt x="120" y="99" on="0"/>
        <pt x="194" y="63" on="1"/>
        <pt x="238" y="109" on="0"/>
        <pt x="292" y="288" on="0"/>
        <pt x="292" y="403" on="0"/>
        <pt x="287" y="419" on="1"/>
        <pt x="235" y="461" on="0"/>
        <pt x="215" y="474" on="1"/>
      </contour>
    </TTGlyph>
    <TTGlyph name="degree" xMin="42" yMin="396" xMax="322" yMax="667">
      <contour>
        <pt x="112" y="396" on="0"/>
        <pt x="42" y="455" on="0"/>
        <pt x="42" y="570" on="0"/>
        <pt x="134" y="656" on="0"/>
        <pt x="200" y="667" on="1"/>
        <pt x="322" y="667" on="0"/>
        <pt x="322" y="562" on="1"/>
        <pt x="322" y="500" on="0"/>
        <pt x="237" y="407" on="0"/>
        <pt x="173" y="396" on="1"/>
      </contour>
      <contour>
        <pt x="179" y="628" on="1"/>
        <pt x="140" y="628" on="0"/>
        <pt x="120" y="611" on="1"/>
        <pt x="101" y="582" on="0"/>
        <pt x="101" y="538" on="1"/>
        <pt x="101" y="435" on="0"/>
        <pt x="185" y="435" on="1"/>
        <pt x="224" y="435" on="0"/>
        <pt x="244" y="452" on="1"/>
        <pt x="263" y="480" on="0"/>
        <pt x="263" y="525" on="1"/>
        <pt x="263" y="628" on="0"/>
      </contour>
    </TTGlyph>
    <TTGlyph name="dieresis" xMin="0" yMin="552" xMax="273" yMax="675">
      <contour>
        <pt x="273" y="620" on="1"/>
        <pt x="264" y="605" on="0"/>
        <pt x="227" y="561" on="0"/>
        <pt x="213" y="552" on="1"/>
        <pt x="189" y="569" on="0"/>
        <pt x="165" y="620" on="1"/>
        <pt x="172" y="633" on="0"/>
        <pt x="210" y="667" on="0"/>
        <pt x="224" y="675" on="1"/>
        <pt x="249" y="659" on="0"/>
      </contour>
      <contour>
        <pt x="108" y="620" on="1"/>
        <pt x="99" y="605" on="0"/>
        <pt x="62" y="561" on="0"/>
        <pt x="48" y="552" on="1"/>
        <pt x="24" y="569" on="0"/>
        <pt x="0" y="620" on="1"/>
        <pt x="7" y="633" on="0"/>
        <pt x="45" y="667" on="0"/>
        <pt x="59" y="675" on="1"/>
        <pt x="84" y="659" on="0"/>
      </contour>
    </TTGlyph>
    <TTGlyph name="dieresis.cap" xMin="0" yMin="735" xMax="273" yMax="858">
      <contour>
        <pt x="273" y="803" on="1"/>
        <pt x="264" y="788" on="0"/>
        <pt x="227" y="744" on="0"/>
        <pt x="213" y="735" on="1"/>
        <pt x="189" y="752" on="0"/>
        <pt x="165" y="803" on="1"/>
        <pt x="172" y="816" on="0"/>
        <pt x="210" y="850" on="0"/>
        <pt x="224" y="858" on="1"/>
        <pt x="249" y="842" on="0"/>
      </contour>
      <contour>
        <pt x="108" y="803" on="1"/>
        <pt x="99" y="788" on="0"/>
        <pt x="62" y="744" on="0"/>
        <pt x="48" y="735" on="1"/>
        <pt x="24" y="752" on="0"/>
        <pt x="0" y="803" on="1"/>
        <pt x="7" y="816" on="0"/>
        <pt x="45" y="850" on="0"/>
        <pt x="59" y="858" on="1"/>
        <pt x="84" y="842" on="0"/>
      </contour>
    </TTGlyph>
    <TTGlyph name="divide" xMin="53" yMin="66" xMax="496" yMax="430">
      <contour>
        <pt x="318" y="402" on="0"/>
        <pt x="318" y="368" on="0"/>
        <pt x="290" y="339" on="0"/>
        <pt x="258" y="339" on="0"/>
        <pt x="229" y="368" on="0"/>
        <pt x="229" y="402" on="0"/>
        <pt x="258" y="430" on="0"/>
        <pt x="290" y="430" on="0"/>
      </contour>
      <contour>
        <pt x="318" y="129" on="0"/>
        <pt x="318" y="95" on="0"/>
        <pt x="290" y="66" on="0"/>
        <pt x="258" y="66" on="0"/>
        <pt x="229" y="95" on="0"/>
        <pt x="229" y="128" on="0"/>
        <pt x="258" y="157" on="0"/>
        <pt x="290" y="157" on="0"/>
      </contour>
      <contour>
        <pt x="62" y="280" on="1"/>
        <pt x="232" y="271" on="0"/>
        <pt x="451" y="271" on="0"/>
        <pt x="490" y="274" on="1"/>
        <pt x="496" y="268" on="1"/>
        <pt x="487" y="222" on="1"/>
        <pt x="61" y="222" on="1"/>
        <pt x="53" y="229" on="1"/>
      </contour>
    </TTGlyph>
    <TTGlyph name="dollar" xMin="10" yMin="-92" xMax="359" yMax="594">
      <contour>
        <pt x="96" y="199" on="1"/>
        <pt x="88" y="175" on="0"/>
        <pt x="88" y="131" on="0"/>
        <pt x="130" y="72" on="0"/>
        <pt x="157" y="53" on="1"/>
        <pt x="173" y="255" on="1"/>
        <pt x="98" y="295" on="0"/>
        <pt x="59" y="333" on="0"/>
        <pt x="59" y="355" on="1"/>
        <pt x="59" y="405" on="0"/>
        <pt x="146" y="495" on="0"/>
        <pt x="201" y="519" on="1"/>
        <pt x="207" y="588" on="1"/>
        <pt x="223" y="590" on="0"/>
        <pt x="234" y="594" on="1"/>
        <pt x="238" y="591" on="1"/>
        <pt x="233" y="568" on="0"/>
        <pt x="228" y="516" on="1"/>
        <pt x="271" y="503" on="0"/>
        <pt x="329" y="503" on="0"/>
        <pt x="349" y="519" on="1"/>
        <pt x="359" y="505" on="1"/>
        <pt x="341" y="487" on="0"/>
        <pt x="321" y="469" on="0"/>
        <pt x="314" y="460" on="1"/>
        <pt x="302" y="448" on="0"/>
        <pt x="285" y="424" on="1"/>
        <pt x="254" y="438" on="1"/>
        <pt x="221" y="450" on="1"/>
        <pt x="211" y="319" on="1"/>
        <pt x="248" y="300" on="0"/>
        <pt x="282" y="281" on="0"/>
        <pt x="319" y="244" on="0"/>
        <pt x="319" y="225" on="1"/>
        <pt x="319" y="174" on="0"/>
        <pt x="231" y="44" on="0"/>
        <pt x="178" y="-4" on="1"/>
        <pt x="174" y="-91" on="1"/>
        <pt x="169" y="-92" on="1"/>
        <pt x="153" y="-87" on="0"/>
        <pt x="143" y="-77" on="1"/>
        <pt x="149" y="-15" on="1"/>
        <pt x="149" y="-10" on="1"/>
        <pt x="116" y="3" on="0"/>
        <pt x="51" y="60" on="0"/>
        <pt x="30" y="92" on="1"/>
        <pt x="10" y="121" on="1"/>
        <pt x="59" y="166" on="0"/>
        <pt x="82" y="206" on="1"/>
      </contour>
      <contour>
        <pt x="257" y="173" on="1"/>
        <pt x="257" y="206" on="0"/>
        <pt x="197" y="242" on="1"/>
        <pt x="184" y="50" on="1"/>
        <pt x="183" y="40" on="1"/>
        <pt x="202" y="55" on="0"/>
        <pt x="257" y="151" on="0"/>
      </contour>
      <contour>
        <pt x="195" y="458" on="1"/>
        <pt x="168" y="464" on="1"/>
        <pt x="152" y="459" on="0"/>
        <pt x="115" y="421" on="0"/>
        <pt x="115" y="406" on="1"/>
        <pt x="115" y="370" on="0"/>
        <pt x="186" y="332" on="1"/>
        <pt x="195" y="457" on="1"/>
      </contour>
    </TTGlyph>
    <TTGlyph name="dotaccentcmb" xMin="0" yMin="552" xMax="108" yMax="675">
      <contour>
        <pt x="108" y="620" on="1"/>
        <pt x="99" y="605" on="0"/>
        <pt x="62" y="561" on="0"/>
        <pt x="48" y="552" on="1"/>
        <pt x="24" y="569" on="0"/>
        <pt x="0" y="620" on="1"/>
        <pt x="7" y="633" on="0"/>
        <pt x="45" y="667" on="0"/>
        <pt x="59" y="675" on="1"/>
        <pt x="84" y="659" on="0"/>
      </contour>
    </TTGlyph>
    <TTGlyph name="dotaccentcmb.cap" xMin="0" yMin="736" xMax="108" yMax="859">
      <contour>
        <pt x="108" y="804" on="1"/>
        <pt x="99" y="789" on="0"/>
        <pt x="62" y="745" on="0"/>
        <pt x="48" y="736" on="1"/>
        <pt x="24" y="753" on="0"/>
        <pt x="0" y="804" on="1"/>
        <pt x="7" y="817" on="0"/>
        <pt x="45" y="851" on="0"/>
        <pt x="59" y="859" on="1"/>
        <pt x="84" y="843" on="0"/>
      </contour>
    </TTGlyph>
    <TTGlyph name="dotlessi" xMin="25" yMin="-15" xMax="285" yMax="485">
      <contour>
        <pt x="202" y="472" on="1"/>
        <pt x="168" y="382" on="0"/>
        <pt x="168" y="86" on="1"/>
        <pt x="168" y="70" on="1"/>
        <pt x="198" y="96" on="0"/>
        <pt x="256" y="201" on="0"/>
        <pt x="271" y="247" on="1"/>
        <pt x="285" y="244" on="1"/>
        <pt x="266" y="166" on="0"/>
        <pt x="194" y="23" on="0"/>
        <pt x="143" y="-15" on="1"/>
        <pt x="95" y="1" on="0"/>
        <pt x="95" y="76" on="1"/>
        <pt x="95" y="118" on="0"/>
        <pt x="105" y="322" on="0"/>
        <pt x="105" y="414" on="0"/>
        <pt x="103" y="442" on="1"/>
        <pt x="65" y="445" on="0"/>
        <pt x="25" y="456" on="1"/>
        <pt x="25" y="470" on="1"/>
        <pt x="121" y="470" on="0"/>
        <pt x="195" y="485" on="1"/>
      </contour>
    </TTGlyph>
    <TTGlyph name="dotlessj" xMin="18" yMin="-202" xMax="195" yMax="485">
      <contour>
        <pt x="195" y="472" on="1"/>
        <pt x="166" y="376" on="0"/>
        <pt x="166" y="136" on="1"/>
        <pt x="166" y="34" on="0"/>
        <pt x="174" y="0" on="1"/>
        <pt x="107" y="-78" on="0"/>
        <pt x="99" y="-202" on="1"/>
        <pt x="81" y="-200" on="1"/>
        <pt x="79" y="-187" on="0"/>
        <pt x="79" y="-136" on="0"/>
        <pt x="92" y="24" on="0"/>
        <pt x="94" y="79" on="1"/>
        <pt x="98" y="235" on="1"/>
        <pt x="99" y="262" on="0"/>
        <pt x="99" y="358" on="0"/>
        <pt x="96" y="442" on="1"/>
        <pt x="58" y="445" on="0"/>
        <pt x="18" y="456" on="1"/>
        <pt x="18" y="470" on="1"/>
        <pt x="114" y="470" on="0"/>
        <pt x="188" y="485" on="1"/>
      </contour>
    </TTGlyph>
    <TTGlyph name="e" xMin="47" yMin="-15" xMax="383" yMax="480">
      <contour>
        <pt x="383" y="275" on="1"/>
        <pt x="260" y="275" on="0"/>
        <pt x="118" y="236" on="1"/>
        <pt x="118" y="95" on="0"/>
        <pt x="191" y="61" on="1"/>
        <pt x="266" y="115" on="0"/>
        <pt x="303" y="214" on="1"/>
        <pt x="326" y="205" on="1"/>
        <pt x="304" y="139" on="0"/>
        <pt x="220" y="19" on="0"/>
        <pt x="166" y="-15" on="1"/>
        <pt x="47" y="13" on="0"/>
        <pt x="47" y="177" on="1"/>
        <pt x="47" y="297" on="0"/>
        <pt x="174" y="474" on="0"/>
        <pt x="283" y="480" on="1"/>
        <pt x="294" y="473" on="1"/>
        <pt x="298" y="394" on="0"/>
        <pt x="314" y="299" on="1"/>
        <pt x="383" y="289" on="1"/>
      </contour>
      <contour>
        <pt x="118" y="257" on="1"/>
        <pt x="173" y="278" on="0"/>
        <pt x="237" y="291" on="1"/>
        <pt x="231" y="361" on="0"/>
        <pt x="231" y="441" on="1"/>
        <pt x="179" y="427" on="0"/>
        <pt x="118" y="318" on="0"/>
      </contour>
    </TTGlyph>
    <TTGlyph name="eacute" xMin="47" yMin="-15" xMax="383" yMax="697">
      <contour>
        <pt x="383" y="275" on="1"/>
        <pt x="260" y="275" on="0"/>
        <pt x="118" y="236" on="1"/>
        <pt x="118" y="95" on="0"/>
        <pt x="191" y="61" on="1"/>
        <pt x="266" y="115" on="0"/>
        <pt x="303" y="214" on="1"/>
        <pt x="326" y="205" on="1"/>
        <pt x="304" y="139" on="0"/>
        <pt x="220" y="19" on="0"/>
        <pt x="166" y="-15" on="1"/>
        <pt x="47" y="13" on="0"/>
        <pt x="47" y="177" on="1"/>
        <pt x="47" y="297" on="0"/>
        <pt x="174" y="474" on="0"/>
        <pt x="283" y="480" on="1"/>
        <pt x="294" y="473" on="1"/>
        <pt x="298" y="394" on="0"/>
        <pt x="314" y="299" on="1"/>
        <pt x="383" y="289" on="1"/>
      </contour>
      <contour>
        <pt x="118" y="257" on="1"/>
        <pt x="173" y="278" on="0"/>
        <pt x="237" y="291" on="1"/>
        <pt x="231" y="361" on="0"/>
        <pt x="231" y="441" on="1"/>
        <pt x="179" y="427" on="0"/>
        <pt x="118" y="318" on="0"/>
      </contour>
      <contour>
        <pt x="315" y="696" on="1"/>
        <pt x="325" y="697" on="0"/>
        <pt x="345" y="697" on="0"/>
        <pt x="353" y="695" on="1"/>
        <pt x="360" y="688" on="0"/>
        <pt x="375" y="651" on="0"/>
        <pt x="376" y="642" on="1"/>
        <pt x="186" y="543" on="1"/>
        <pt x="176" y="560" on="1"/>
        <pt x="278" y="629" on="0"/>
      </contour>
    </TTGlyph>
    <TTGlyph name="ecircumflex" xMin="47" yMin="-15" xMax="383" yMax="705">
      <contour>
        <pt x="383" y="275" on="1"/>
        <pt x="260" y="275" on="0"/>
        <pt x="118" y="236" on="1"/>
        <pt x="118" y="95" on="0"/>
        <pt x="191" y="61" on="1"/>
        <pt x="266" y="115" on="0"/>
        <pt x="303" y="214" on="1"/>
        <pt x="326" y="205" on="1"/>
        <pt x="304" y="139" on="0"/>
        <pt x="220" y="19" on="0"/>
        <pt x="166" y="-15" on="1"/>
        <pt x="47" y="13" on="0"/>
        <pt x="47" y="177" on="1"/>
        <pt x="47" y="297" on="0"/>
        <pt x="174" y="474" on="0"/>
        <pt x="283" y="480" on="1"/>
        <pt x="294" y="473" on="1"/>
        <pt x="298" y="394" on="0"/>
        <pt x="314" y="299" on="1"/>
        <pt x="383" y="289" on="1"/>
      </contour>
      <contour>
        <pt x="118" y="257" on="1"/>
        <pt x="173" y="278" on="0"/>
        <pt x="237" y="291" on="1"/>
        <pt x="231" y="361" on="0"/>
        <pt x="231" y="441" on="1"/>
        <pt x="179" y="427" on="0"/>
        <pt x="118" y="318" on="0"/>
      </contour>
      <contour>
        <pt x="208" y="617" on="1"/>
        <pt x="99" y="538" on="1"/>
        <pt x="88" y="554" on="1"/>
        <pt x="175" y="627" on="0"/>
        <pt x="216" y="705" on="1"/>
        <pt x="238" y="705" on="1"/>
        <pt x="257" y="652" on="0"/>
        <pt x="298" y="585" on="0"/>
        <pt x="334" y="552" on="1"/>
        <pt x="319" y="540" on="1"/>
      </contour>
    </TTGlyph>
    <TTGlyph name="edieresis" xMin="47" yMin="-15" xMax="383" yMax="675">
      <contour>
        <pt x="383" y="275" on="1"/>
        <pt x="260" y="275" on="0"/>
        <pt x="118" y="236" on="1"/>
        <pt x="118" y="95" on="0"/>
        <pt x="191" y="61" on="1"/>
        <pt x="266" y="115" on="0"/>
        <pt x="303" y="214" on="1"/>
        <pt x="326" y="205" on="1"/>
        <pt x="304" y="139" on="0"/>
        <pt x="220" y="19" on="0"/>
        <pt x="166" y="-15" on="1"/>
        <pt x="47" y="13" on="0"/>
        <pt x="47" y="177" on="1"/>
        <pt x="47" y="297" on="0"/>
        <pt x="174" y="474" on="0"/>
        <pt x="283" y="480" on="1"/>
        <pt x="294" y="473" on="1"/>
        <pt x="298" y="394" on="0"/>
        <pt x="314" y="299" on="1"/>
        <pt x="383" y="289" on="1"/>
      </contour>
      <contour>
        <pt x="118" y="257" on="1"/>
        <pt x="173" y="278" on="0"/>
        <pt x="237" y="291" on="1"/>
        <pt x="231" y="361" on="0"/>
        <pt x="231" y="441" on="1"/>
        <pt x="179" y="427" on="0"/>
        <pt x="118" y="318" on="0"/>
      </contour>
      <contour>
        <pt x="348" y="620" on="1"/>
        <pt x="339" y="605" on="0"/>
        <pt x="302" y="561" on="0"/>
        <pt x="288" y="552" on="1"/>
        <pt x="264" y="569" on="0"/>
        <pt x="240" y="620" on="1"/>
        <pt x="247" y="633" on="0"/>
        <pt x="285" y="667" on="0"/>
        <pt x="299" y="675" on="1"/>
        <pt x="324" y="659" on="0"/>
      </contour>
      <contour>
        <pt x="183" y="620" on="1"/>
        <pt x="174" y="605" on="0"/>
        <pt x="137" y="561" on="0"/>
        <pt x="123" y="552" on="1"/>
        <pt x="99" y="569" on="0"/>
        <pt x="75" y="620" on="1"/>
        <pt x="82" y="633" on="0"/>
        <pt x="120" y="667" on="0"/>
        <pt x="134" y="675" on="1"/>
        <pt x="159" y="659" on="0"/>
      </contour>
    </TTGlyph>
    <TTGlyph name="egrave" xMin="47" yMin="-15" xMax="383" yMax="697">
      <contour>
        <pt x="383" y="275" on="1"/>
        <pt x="260" y="275" on="0"/>
        <pt x="118" y="236" on="1"/>
        <pt x="118" y="95" on="0"/>
        <pt x="191" y="61" on="1"/>
        <pt x="266" y="115" on="0"/>
        <pt x="303" y="214" on="1"/>
        <pt x="326" y="205" on="1"/>
        <pt x="304" y="139" on="0"/>
        <pt x="220" y="19" on="0"/>
        <pt x="166" y="-15" on="1"/>
        <pt x="47" y="13" on="0"/>
        <pt x="47" y="177" on="1"/>
        <pt x="47" y="297" on="0"/>
        <pt x="174" y="474" on="0"/>
        <pt x="283" y="480" on="1"/>
        <pt x="294" y="473" on="1"/>
        <pt x="298" y="394" on="0"/>
        <pt x="314" y="299" on="1"/>
        <pt x="383" y="289" on="1"/>
      </contour>
      <contour>
        <pt x="118" y="257" on="1"/>
        <pt x="173" y="278" on="0"/>
        <pt x="237" y="291" on="1"/>
        <pt x="231" y="361" on="0"/>
        <pt x="231" y="441" on="1"/>
        <pt x="179" y="427" on="0"/>
        <pt x="118" y="318" on="0"/>
      </contour>
      <contour>
        <pt x="81" y="695" on="1"/>
        <pt x="89" y="697" on="0"/>
        <pt x="109" y="697" on="0"/>
        <pt x="119" y="696" on="1"/>
        <pt x="156" y="629" on="0"/>
        <pt x="258" y="560" on="1"/>
        <pt x="248" y="543" on="1"/>
        <pt x="58" y="642" on="1"/>
        <pt x="59" y="651" on="0"/>
        <pt x="74" y="688" on="0"/>
      </contour>
    </TTGlyph>
    <TTGlyph name="eight" xMin="38" yMin="-15" xMax="344" yMax="585">
      <contour>
        <pt x="111" y="-15" on="0"/>
        <pt x="38" y="63" on="0"/>
        <pt x="38" y="178" on="0"/>
        <pt x="102" y="273" on="0"/>
        <pt x="150" y="303" on="1"/>
        <pt x="108" y="335" on="0"/>
        <pt x="61" y="405" on="0"/>
        <pt x="61" y="457" on="1"/>
        <pt x="87" y="498" on="0"/>
        <pt x="182" y="574" on="0"/>
        <pt x="224" y="585" on="1"/>
        <pt x="277" y="585" on="0"/>
        <pt x="329" y="539" on="0"/>
        <pt x="329" y="446" on="0"/>
        <pt x="267" y="363" on="0"/>
        <pt x="225" y="335" on="1"/>
        <pt x="318" y="273" on="0"/>
        <pt x="335" y="224" on="1"/>
        <pt x="344" y="198" on="0"/>
        <pt x="344" y="166" on="1"/>
        <pt x="320" y="93" on="0"/>
        <pt x="244" y="11" on="0"/>
        <pt x="174" y="-15" on="1"/>
      </contour>
      <contour>
        <pt x="258" y="65" on="1"/>
        <pt x="276" y="103" on="0"/>
        <pt x="276" y="170" on="0"/>
        <pt x="261" y="209" on="0"/>
        <pt x="221" y="250" on="0"/>
        <pt x="201" y="265" on="0"/>
        <pt x="170" y="288" on="1"/>
        <pt x="140" y="265" on="0"/>
        <pt x="103" y="191" on="0"/>
        <pt x="103" y="106" on="0"/>
        <pt x="153" y="45" on="0"/>
        <pt x="237" y="45" on="0"/>
      </contour>
      <contour>
        <pt x="137" y="505" on="1"/>
        <pt x="129" y="487" on="0"/>
        <pt x="129" y="458" on="1"/>
        <pt x="129" y="400" on="0"/>
        <pt x="205" y="349" on="1"/>
        <pt x="265" y="404" on="0"/>
        <pt x="265" y="459" on="1"/>
        <pt x="265" y="523" on="0"/>
        <pt x="201" y="523" on="1"/>
        <pt x="161" y="523" on="0"/>
      </contour>
    </TTGlyph>
    <TTGlyph name="ellipsis" xMin="46" yMin="-15" xMax="530" yMax="108">
      <contour>
        <pt x="154" y="53" on="1"/>
        <pt x="145" y="38" on="0"/>
        <pt x="108" y="-6" on="0"/>
        <pt x="94" y="-15" on="1"/>
        <pt x="70" y="2" on="0"/>
        <pt x="46" y="53" on="1"/>
        <pt x="53" y="66" on="0"/>
        <pt x="91" y="100" on="0"/>
        <pt x="105" y="108" on="1"/>
        <pt x="130" y="92" on="0"/>
      </contour>
      <contour>
        <pt x="342" y="53" on="1"/>
        <pt x="333" y="38" on="0"/>
        <pt x="296" y="-6" on="0"/>
        <pt x="282" y="-15" on="1"/>
        <pt x="258" y="2" on="0"/>
        <pt x="234" y="53" on="1"/>
        <pt x="241" y="66" on="0"/>
        <pt x="279" y="100" on="0"/>
        <pt x="293" y="108" on="1"/>
        <pt x="318" y="92" on="0"/>
      </contour>
      <contour>
        <pt x="530" y="53" on="1"/>
        <pt x="521" y="38" on="0"/>
        <pt x="484" y="-6" on="0"/>
        <pt x="470" y="-15" on="1"/>
        <pt x="446" y="2" on="0"/>
        <pt x="422" y="53" on="1"/>
        <pt x="429" y="66" on="0"/>
        <pt x="467" y="100" on="0"/>
        <pt x="481" y="108" on="1"/>
        <pt x="506" y="92" on="0"/>
      </contour>
    </TTGlyph>
    <TTGlyph name="emdash" xMin="1" yMin="245" xMax="634" yMax="296">
      <contour>
        <pt x="30" y="296" on="1"/>
        <pt x="200" y="287" on="0"/>
        <pt x="589" y="287" on="0"/>
        <pt x="628" y="290" on="1"/>
        <pt x="634" y="284" on="1"/>
        <pt x="605" y="245" on="1"/>
        <pt x="9" y="245" on="1"/>
        <pt x="1" y="252" on="1"/>
      </contour>
    </TTGlyph>
    <TTGlyph name="endash" xMin="1" yMin="245" xMax="434" yMax="296">
      <contour>
        <pt x="30" y="296" on="1"/>
        <pt x="155" y="287" on="0"/>
        <pt x="389" y="287" on="0"/>
        <pt x="428" y="290" on="1"/>
        <pt x="434" y="284" on="1"/>
        <pt x="405" y="245" on="1"/>
        <pt x="9" y="245" on="1"/>
        <pt x="1" y="252" on="1"/>
      </contour>
    </TTGlyph>
    <TTGlyph name="equal" xMin="53" yMin="145" xMax="496" yMax="357">
      <contour>
        <pt x="62" y="203" on="1"/>
        <pt x="232" y="194" on="0"/>
        <pt x="451" y="194" on="0"/>
        <pt x="490" y="197" on="1"/>
        <pt x="496" y="191" on="1"/>
        <pt x="487" y="145" on="1"/>
        <pt x="61" y="145" on="1"/>
        <pt x="53" y="152" on="1"/>
      </contour>
      <contour>
        <pt x="62" y="357" on="1"/>
        <pt x="232" y="348" on="0"/>
        <pt x="451" y="348" on="0"/>
        <pt x="490" y="351" on="1"/>
        <pt x="496" y="345" on="1"/>
        <pt x="487" y="299" on="1"/>
        <pt x="61" y="299" on="1"/>
        <pt x="53" y="306" on="1"/>
      </contour>
    </TTGlyph>
    <TTGlyph name="eth" xMin="47" yMin="-15" xMax="369" yMax="711">
      <contour>
        <pt x="360" y="269" on="1"/>
        <pt x="360" y="178" on="0"/>
        <pt x="268" y="16" on="0"/>
        <pt x="185" y="-15" on="1"/>
        <pt x="116" y="-15" on="0"/>
        <pt x="47" y="77" on="0"/>
        <pt x="47" y="234" on="0"/>
        <pt x="138" y="388" on="0"/>
        <pt x="221" y="419" on="1"/>
        <pt x="262" y="406" on="0"/>
        <pt x="280" y="366" on="1"/>
        <pt x="284" y="366" on="1"/>
        <pt x="271" y="454" on="0"/>
        <pt x="219" y="540" on="1"/>
        <pt x="205" y="530" on="1"/>
        <pt x="140" y="485" on="0"/>
        <pt x="110" y="455" on="1"/>
        <pt x="105" y="456" on="1"/>
        <pt x="95" y="486" on="1"/>
        <pt x="204" y="562" on="1"/>
        <pt x="151" y="643" on="0"/>
        <pt x="73" y="696" on="1"/>
        <pt x="83" y="711" on="1"/>
        <pt x="174" y="666" on="0"/>
        <pt x="241" y="589" on="1"/>
        <pt x="277" y="615" on="1"/>
        <pt x="322" y="648" on="0"/>
        <pt x="345" y="669" on="1"/>
        <pt x="353" y="660" on="0"/>
        <pt x="368" y="649" on="1"/>
        <pt x="369" y="645" on="1"/>
        <pt x="258" y="568" on="1"/>
        <pt x="360" y="436" on="0"/>
      </contour>
      <contour>
        <pt x="282" y="311" on="0"/>
        <pt x="241" y="368" on="0"/>
        <pt x="181" y="368" on="0"/>
        <pt x="161" y="358" on="1"/>
        <pt x="118" y="278" on="0"/>
        <pt x="118" y="163" on="1"/>
        <pt x="118" y="115" on="0"/>
        <pt x="155" y="45" on="0"/>
        <pt x="197" y="45" on="1"/>
        <pt x="223" y="45" on="0"/>
        <pt x="243" y="55" on="1"/>
        <pt x="264" y="94" on="0"/>
        <pt x="288" y="218" on="0"/>
        <pt x="288" y="269" on="1"/>
      </contour>
    </TTGlyph>
    <TTGlyph name="exclam" xMin="46" yMin="-15" xMax="219" yMax="697">
      <contour>
        <pt x="154" y="53" on="1"/>
        <pt x="145" y="38" on="0"/>
        <pt x="108" y="-6" on="0"/>
        <pt x="94" y="-15" on="1"/>
        <pt x="70" y="2" on="0"/>
        <pt x="46" y="53" on="1"/>
        <pt x="53" y="66" on="0"/>
        <pt x="91" y="100" on="0"/>
        <pt x="105" y="108" on="1"/>
        <pt x="130" y="92" on="0"/>
      </contour>
      <contour>
        <pt x="186" y="696" on="1"/>
        <pt x="189" y="696" on="0"/>
        <pt x="192" y="696" on="1"/>
        <pt x="204" y="684" on="0"/>
        <pt x="219" y="656" on="1"/>
        <pt x="169" y="505" on="0"/>
        <pt x="120" y="182" on="1"/>
        <pt x="94" y="180" on="1"/>
        <pt x="123" y="679" on="1"/>
        <pt x="159" y="696" on="0"/>
      </contour>
    </TTGlyph>
    <TTGlyph name="exclamdown" xMin="-14" yMin="-201" xMax="161" yMax="485">
      <contour>
        <pt x="19" y="-200" on="1"/>
        <pt x="16" y="-200" on="0"/>
        <pt x="13" y="-200" on="1"/>
        <pt x="1" y="-188" on="0"/>
        <pt x="-14" y="-160" on="1"/>
        <pt x="40" y="1" on="0"/>
        <pt x="85" y="301" on="1"/>
        <pt x="111" y="303" on="1"/>
        <pt x="82" y="-183" on="1"/>
        <pt x="46" y="-200" on="0"/>
      </contour>
      <contour>
        <pt x="161" y="430" on="1"/>
        <pt x="152" y="415" on="0"/>
        <pt x="115" y="371" on="0"/>
        <pt x="101" y="362" on="1"/>
        <pt x="77" y="379" on="0"/>
        <pt x="53" y="430" on="1"/>
        <pt x="60" y="443" on="0"/>
        <pt x="98" y="477" on="0"/>
        <pt x="112" y="485" on="1"/>
        <pt x="137" y="469" on="0"/>
      </contour>
    </TTGlyph>
    <TTGlyph name="f" xMin="42" yMin="-202" xMax="340" yMax="713">
      <contour>
        <pt x="164" y="422" on="1"/>
        <pt x="150" y="368" on="0"/>
        <pt x="150" y="32" on="0"/>
        <pt x="158" y="0" on="1"/>
        <pt x="91" y="-78" on="0"/>
        <pt x="83" y="-202" on="1"/>
        <pt x="65" y="-200" on="1"/>
        <pt x="63" y="-187" on="0"/>
        <pt x="63" y="-136" on="0"/>
        <pt x="77" y="33" on="0"/>
        <pt x="78" y="79" on="1"/>
        <pt x="82" y="235" on="1"/>
        <pt x="83" y="269" on="0"/>
        <pt x="83" y="370" on="0"/>
        <pt x="77" y="428" on="1"/>
        <pt x="47" y="431" on="0"/>
        <pt x="44" y="431" on="1"/>
        <pt x="42" y="447" on="1"/>
        <pt x="55" y="455" on="0"/>
        <pt x="78" y="464" on="1"/>
        <pt x="78" y="545" on="0"/>
        <pt x="164" y="684" on="0"/>
        <pt x="237" y="713" on="1"/>
        <pt x="250" y="706" on="1"/>
        <pt x="306" y="675" on="0"/>
        <pt x="336" y="675" on="1"/>
        <pt x="340" y="660" on="1"/>
        <pt x="284" y="627" on="0"/>
        <pt x="284" y="546" on="1"/>
        <pt x="270" y="546" on="1"/>
        <pt x="260" y="584" on="0"/>
        <pt x="260" y="626" on="1"/>
        <pt x="242" y="636" on="1"/>
        <pt x="205" y="656" on="0"/>
        <pt x="188" y="661" on="1"/>
        <pt x="135" y="610" on="0"/>
        <pt x="135" y="496" on="0"/>
        <pt x="156" y="472" on="1"/>
        <pt x="205" y="476" on="0"/>
        <pt x="245" y="486" on="1"/>
        <pt x="250" y="480" on="1"/>
        <pt x="239" y="448" on="0"/>
        <pt x="235" y="414" on="1"/>
        <pt x="199" y="420" on="0"/>
      </contour>
    </TTGlyph>
    <TTGlyph name="fi" xMin="42" yMin="-202" xMax="534" yMax="713">
      <contour>
        <pt x="451" y="472" on="1"/>
        <pt x="417" y="382" on="0"/>
        <pt x="417" y="86" on="1"/>
        <pt x="417" y="70" on="1"/>
        <pt x="447" y="96" on="0"/>
        <pt x="505" y="201" on="0"/>
        <pt x="520" y="247" on="1"/>
        <pt x="534" y="244" on="1"/>
        <pt x="515" y="166" on="0"/>
        <pt x="443" y="23" on="0"/>
        <pt x="392" y="-15" on="1"/>
        <pt x="344" y="1" on="0"/>
        <pt x="344" y="76" on="1"/>
        <pt x="344" y="76" on="0"/>
        <pt x="354" y="369" on="1"/>
        <pt x="353" y="414" on="1"/>
        <pt x="264" y="426" on="0"/>
        <pt x="164" y="426" on="1"/>
        <pt x="150" y="367" on="0"/>
        <pt x="150" y="122" on="1"/>
        <pt x="150" y="34" on="0"/>
        <pt x="158" y="0" on="1"/>
        <pt x="91" y="-78" on="0"/>
        <pt x="83" y="-202" on="1"/>
        <pt x="65" y="-200" on="1"/>
        <pt x="63" y="-187" on="0"/>
        <pt x="63" y="-136" on="0"/>
        <pt x="77" y="33" on="0"/>
        <pt x="78" y="79" on="1"/>
        <pt x="82" y="235" on="1"/>
        <pt x="83" y="285" on="1"/>
        <pt x="83" y="374" on="0"/>
        <pt x="77" y="428" on="1"/>
        <pt x="47" y="431" on="0"/>
        <pt x="44" y="431" on="1"/>
        <pt x="42" y="447" on="1"/>
        <pt x="55" y="455" on="0"/>
        <pt x="78" y="464" on="1"/>
        <pt x="78" y="545" on="0"/>
        <pt x="164" y="684" on="0"/>
        <pt x="237" y="713" on="1"/>
        <pt x="250" y="706" on="1"/>
        <pt x="306" y="675" on="0"/>
        <pt x="336" y="675" on="1"/>
        <pt x="340" y="660" on="1"/>
        <pt x="284" y="627" on="0"/>
        <pt x="284" y="546" on="1"/>
        <pt x="270" y="546" on="1"/>
        <pt x="260" y="584" on="0"/>
        <pt x="260" y="626" on="1"/>
        <pt x="242" y="636" on="1"/>
        <pt x="205" y="656" on="0"/>
        <pt x="188" y="661" on="1"/>
        <pt x="135" y="610" on="0"/>
        <pt x="135" y="496" on="0"/>
        <pt x="155" y="473" on="1"/>
        <pt x="197" y="470" on="0"/>
        <pt x="245" y="470" on="1"/>
        <pt x="394" y="470" on="0"/>
        <pt x="444" y="487" on="1"/>
      </contour>
      <contour>
        <pt x="453" y="620" on="1"/>
        <pt x="444" y="605" on="0"/>
        <pt x="407" y="561" on="0"/>
        <pt x="393" y="552" on="1"/>
        <pt x="369" y="569" on="0"/>
        <pt x="345" y="620" on="1"/>
        <pt x="352" y="633" on="0"/>
        <pt x="390" y="667" on="0"/>
        <pt x="404" y="675" on="1"/>
        <pt x="429" y="659" on="0"/>
      </contour>
    </TTGlyph>
</ttFont>
